<?xml version="1.0" encoding="utf-8"?><svg xmlns="http://www.w3.org/2000/svg" xmlns:xlink="http://www.w3.org/1999/xlink"><symbol fill="none" viewBox="0 0 10 18" id="arrow"><path d="m1.309 1.23 7.89 8.178-7.89 8.178" stroke="#fff"/></symbol><symbol fill="none" viewBox="0 0 8 14" id="arrow-dark"><path d="m1.282 1.124 5.81 5.875-5.81 5.875"/></symbol><symbol fill="none" viewBox="0 0 30 30" id="down"><path d="m1 1 28 28m0 0V6.275M29 29H4.652" stroke="#fff"/></symbol><symbol fill="none" viewBox="0 0 22 22" id="down-arrow"><path d="M11 0v21m0 0 10-9.649M11 21 1 11.351" stroke="#fff"/></symbol><symbol fill="none" viewBox="0 0 23 25" id="fb"><path d="M15.787 4.976h2.186V1.169C17.596 1.117 16.299 1 14.788 1c-3.151 0-5.31 1.982-5.31 5.626V9.98H6v4.257h3.478v10.71h4.264v-10.71h3.337l.53-4.256H13.74V7.048c0-1.23.332-2.072 2.046-2.072z" fill="#E2E2E2"/></symbol><symbol fill="none" viewBox="0 0 23 25" id="insta"><path d="M16.747 1.548H6.034C3.09 1.548.678 3.886.678 6.746v10.398c0 2.859 2.41 5.198 5.356 5.198h10.713c2.945 0 5.356-2.34 5.356-5.198V6.746c0-2.86-2.41-5.198-5.356-5.198zm-5.356 14.73c-2.466 0-4.464-1.941-4.464-4.333 0-2.393 1.998-4.332 4.464-4.332 2.464 0 4.463 1.94 4.463 4.332s-2 4.332-4.463 4.332zm5.802-8.665c-.74 0-1.339-.582-1.339-1.3 0-.717.599-1.3 1.34-1.3.74 0 1.338.583 1.338 1.3 0 .718-.599 1.3-1.339 1.3z" fill="#E2E2E2"/></symbol><symbol fill="none" viewBox="0 0 537 631" id="logo-black"><path fill="#000" d="M-4 0h541v631H-4z"/><path d="M263.531 266.673h18.401v113.098h117.022V172.388l-128.689-84.74-142.237 84.74 1.896 207.383h64.965V398H112V162.286L270.265 68l148.164 94.286V398H263.531V266.673z" fill="#E2E2E2"/><path d="M263.663 234.829v18.269h18.269v-18.269h-18.269z" fill="#B5773E"/><path d="M129.901 504.222c.233 0 .35.232.35.695 0 .463-.117.694-.35.694-2.407 0-4.271-.038-5.591-.116l-7.803-.115-8.037.115c-1.32.078-3.145.116-5.474.116-.233 0-.35-.231-.35-.694 0-.463.117-.695.35-.695 3.106 0 5.357-.193 6.755-.578 1.398-.386 2.33-1.119 2.796-2.2.543-1.08.815-2.816.815-5.208v-27.199H66.889v27.199c0 2.392.233 4.128.699 5.208.543 1.081 1.514 1.814 2.911 2.2 1.398.385 3.65.578 6.756.578.155 0 .233.232.233.695 0 .463-.078.694-.233.694-2.33 0-4.193-.038-5.59-.116l-7.921-.115-7.687.115c-1.398.078-3.34.116-5.824.116-.155 0-.233-.231-.233-.694 0-.463.078-.695.233-.695 3.028 0 5.241-.193 6.639-.578 1.475-.386 2.485-1.119 3.028-2.2.544-1.157.816-2.893.816-5.208v-53.588c0-2.315-.272-4.012-.816-5.092-.466-1.081-1.436-1.814-2.912-2.2-1.397-.462-3.61-.694-6.639-.694-.155 0-.232-.231-.232-.694 0-.463.077-.695.232-.695l5.708.116c3.26.154 5.823.231 7.687.231 2.097 0 4.775-.077 8.037-.231l5.474-.116c.155 0 .233.232.233.695 0 .463-.078.694-.233.694-3.028 0-5.28.232-6.756.694-1.397.463-2.368 1.274-2.911 2.431-.466 1.08-.7 2.778-.7 5.093v23.958h46.474V442.88c0-2.315-.272-4.013-.815-5.093-.466-1.157-1.437-1.968-2.912-2.431-1.398-.462-3.611-.694-6.639-.694-.233 0-.35-.231-.35-.694 0-.463.117-.695.35-.695l5.474.116c3.261.154 5.94.231 8.037.231 1.941 0 4.542-.077 7.803-.231l5.591-.116c.233 0 .35.232.35.695 0 .463-.117.694-.35.694-3.028 0-5.28.232-6.755.694-1.398.386-2.369 1.119-2.912 2.2-.544 1.08-.816 2.777-.816 5.092v53.588c0 2.315.272 4.051.816 5.208.543 1.081 1.514 1.814 2.912 2.2 1.475.385 3.727.578 6.755.578zm26.767-7.986c0 2.392.233 4.128.699 5.208.544 1.081 1.514 1.814 2.912 2.2 1.398.385 3.65.578 6.756.578.155 0 .232.232.232.695 0 .463-.077.694-.232.694-2.33 0-4.155-.038-5.475-.116l-8.153-.115-7.804.115c-1.397.078-3.3.116-5.707.116-.233 0-.349-.231-.349-.694 0-.463.116-.695.349-.695 3.028 0 5.241-.193 6.639-.578 1.475-.386 2.485-1.119 3.028-2.2.544-1.157.816-2.893.816-5.208v-53.588c0-2.315-.272-4.012-.816-5.092-.543-1.081-1.553-1.814-3.028-2.2-1.398-.462-3.611-.694-6.639-.694-.233 0-.349-.231-.349-.694 0-.463.116-.695.349-.695l5.707.116c3.262.154 5.863.231 7.804.231 2.174 0 4.892-.077 8.153-.231l5.475-.116c.155 0 .232.232.232.695 0 .463-.077.694-.232.694-3.029 0-5.281.232-6.756.694-1.398.463-2.368 1.274-2.912 2.431-.466 1.08-.699 2.778-.699 5.093v53.356zm19.81-21.759c-.233.077-.466-.347-.699-1.273a15.528 15.528 0 0 1-.233-2.547c0-.694.078-1.041.233-1.041l35.758-5.44c.233-.077.427.309.582 1.157.233.849.349 1.659.349 2.431 0 .849-.116 1.273-.349 1.273l-35.641 5.44zm73.406 31.597c-2.252 0-4.776-.116-7.571-.347a184.014 184.014 0 0 0-4.077-.232c-1.553-.077-3.3-.115-5.241-.115l-7.687.115c-1.398.078-3.339.116-5.824.116-.155 0-.233-.231-.233-.694 0-.463.078-.695.233-.695 3.028 0 5.242-.193 6.639-.578 1.476-.386 2.485-1.119 3.029-2.2.543-1.157.815-2.893.815-5.208v-53.588c0-2.315-.272-4.012-.815-5.092-.466-1.081-1.437-1.814-2.912-2.2-1.398-.462-3.611-.694-6.639-.694-.156 0-.233-.231-.233-.694 0-.463.077-.695.233-.695l5.707.116c3.261.154 5.824.231 7.687.231 2.718 0 5.474-.115 8.27-.347 3.416-.154 5.746-.231 6.988-.231 8.153 0 15.375 1.543 21.664 4.629 6.29 3.087 11.143 7.292 14.56 12.616 3.494 5.324 5.241 11.304 5.241 17.94 0 7.484-1.825 14.12-5.474 19.907-3.572 5.71-8.386 10.147-14.443 13.31-6.057 3.087-12.696 4.63-19.917 4.63zm-1.165-1.505c6.523 0 12.308-1.311 17.355-3.935 5.047-2.623 8.968-6.481 11.764-11.574 2.873-5.092 4.309-11.188 4.309-18.287 0-6.79-1.359-12.924-4.076-18.403-2.641-5.478-6.484-9.799-11.531-12.963-4.97-3.24-10.716-4.861-17.238-4.861-3.417 0-6.057.193-7.921.579-1.786.386-3.106 1.196-3.96 2.431-.854 1.157-1.281 2.932-1.281 5.324v52.083c0 2.315.349 4.167 1.048 5.556.699 1.388 1.941 2.43 3.727 3.125 1.786.617 4.388.925 7.804.925zM338.11 507c-7.221 0-13.666-1.659-19.334-4.977-5.591-3.395-9.94-7.947-13.046-13.657-3.028-5.787-4.542-12.076-4.542-18.866 0-7.948 2.019-14.738 6.057-20.37 4.037-5.71 9.201-9.993 15.491-12.848 6.367-2.855 12.851-4.282 19.451-4.282 7.376 0 13.86 1.736 19.451 5.208 5.591 3.395 9.861 7.909 12.812 13.542 3.028 5.633 4.543 11.613 4.543 17.94 0 7.021-1.864 13.464-5.591 19.329-3.727 5.864-8.736 10.493-15.025 13.888-6.212 3.395-12.968 5.093-20.267 5.093zm4.193-2.315c5.513 0 10.483-1.273 14.909-3.819 4.426-2.547 7.92-6.289 10.483-11.227 2.562-4.938 3.843-10.841 3.843-17.708 0-7.254-1.436-13.696-4.309-19.329-2.796-5.71-6.795-10.147-11.997-13.31-5.125-3.164-11.104-4.746-17.937-4.746-9.007 0-16.035 2.778-21.082 8.334-5.047 5.555-7.571 13.117-7.571 22.685 0 7.176 1.398 13.773 4.193 19.791 2.873 5.942 6.872 10.649 11.997 14.121 5.125 3.472 10.949 5.208 17.471 5.208zm136.348-.463c.233 0 .349.232.349.695 0 .463-.116.694-.349.694-2.408 0-4.31-.038-5.708-.116l-7.803-.115-7.222.115c-1.165.078-2.795.116-4.892.116-.155 0-.233-.231-.233-.694 0-.463.078-.695.233-.695 2.718 0 4.698-.193 5.94-.578 1.321-.463 2.175-1.235 2.563-2.315.466-1.081.621-2.778.466-5.093l-1.98-53.819-27.255 62.384c-.155.309-.466.463-.932.463-.388 0-.738-.154-1.048-.463l-28.42-61.921-.116-.232-.932 50.926c-.078 4.012.582 6.79 1.98 8.333 1.398 1.544 3.999 2.315 7.804 2.315.155 0 .233.232.233.695 0 .463-.078.694-.233.694-2.175 0-3.844-.038-5.009-.116l-6.289-.115-5.708.115c-1.009.078-2.523.116-4.542.116-.155 0-.233-.231-.233-.694 0-.463.078-.695.233-.695 3.261 0 5.552-.771 6.872-2.315 1.398-1.62 2.135-4.398 2.213-8.333l1.165-54.861c-2.407-2.701-5.552-4.051-9.435-4.051-.155 0-.233-.231-.233-.694 0-.463.078-.695.233-.695l3.96.116c.777.077 1.786.116 3.029.116 1.242 0 2.29-.039 3.145-.116a23.683 23.683 0 0 1 1.98-.116c1.087 0 1.941.386 2.562 1.158.621.694 1.553 2.314 2.795 4.861l26.207 56.25 26.09-59.375c.388-.849.893-1.544 1.514-2.084.699-.54 1.359-.81 1.98-.81.311 0 .816.039 1.515.116.698.077 1.669.116 2.911.116l5.242-.116c.776-.077 1.98-.116 3.61-.116.156 0 .233.232.233.695 0 .463-.077.694-.233.694-4.037 0-6.91.54-8.619 1.62-1.63 1.003-2.407 3.048-2.329 6.135l2.213 53.819c.078 2.392.349 4.128.815 5.208.544 1.081 1.514 1.814 2.912 2.2 1.475.385 3.727.578 6.756.578zM59.45 553.062c-.695 0-1.473-.036-2.336-.108a55.428 55.428 0 0 0-1.257-.071 32.608 32.608 0 0 0-1.617-.036l-2.372.036c-.43.024-1.03.036-1.796.036-.048 0-.072-.072-.072-.215 0-.143.024-.214.072-.214.934 0 1.617-.06 2.048-.179.455-.119.766-.346.934-.679.168-.358.252-.894.252-1.609v-16.552c0-.715-.084-1.24-.252-1.573-.144-.334-.443-.56-.898-.68-.431-.143-1.114-.214-2.048-.214-.048 0-.072-.072-.072-.215 0-.143.024-.214.072-.214l1.76.036a54.04 54.04 0 0 0 2.372.071c.838 0 1.689-.036 2.55-.107a57.319 57.319 0 0 1 2.157-.072c2.515 0 4.743.477 6.683 1.43 1.94.954 3.437 2.253 4.491 3.897 1.078 1.645 1.617 3.492 1.617 5.541 0 2.312-.563 4.362-1.689 6.149-1.102 1.764-2.587 3.134-4.455 4.112-1.868.953-3.916 1.43-6.144 1.43zm-.36-.465c2.013 0 3.797-.405 5.354-1.216 1.557-.81 2.767-2.002 3.63-3.575.885-1.573 1.329-3.455 1.329-5.648 0-2.097-.42-3.992-1.258-5.684-.814-1.692-2-3.027-3.557-4.004-1.533-1.001-3.306-1.502-5.318-1.502-1.054 0-1.868.06-2.443.179-.551.119-.958.369-1.222.751-.263.357-.395.905-.395 1.644v16.088c0 .715.108 1.287.323 1.716.216.429.6.75 1.15.965.551.19 1.353.286 2.407.286zm27.289-1.609c.072 0 .132.048.18.143.072.072.083.143.035.215-1.58 1.334-3.293 2.002-5.138 2.002-1.389 0-2.587-.322-3.593-.966-1.006-.643-1.76-1.477-2.263-2.502a7.75 7.75 0 0 1-.755-3.396c0-1.43.336-2.729 1.006-3.897a7.362 7.362 0 0 1 2.731-2.753c1.174-.691 2.467-1.037 3.88-1.037 1.246 0 2.216.322 2.91.966.696.619 1.043 1.477 1.043 2.574 0 .286-.036.488-.108.607-.048.12-.156.179-.323.179l-8.911.036c-.12.667-.18 1.323-.18 1.966 0 2.097.503 3.802 1.51 5.112 1.03 1.311 2.43 1.967 4.203 1.967 1.413 0 2.66-.406 3.737-1.216h.036zm-5.138-11.476c-1.054 0-1.928.286-2.623.858-.67.549-1.15 1.347-1.437 2.396l7.078-.179c0-.977-.275-1.728-.826-2.252-.551-.549-1.282-.823-2.192-.823zm10.286 1.895c0 .882.275 1.573.826 2.074.551.476 1.39.989 2.515 1.537.815.405 1.462.763 1.94 1.072.48.31.887.715 1.222 1.216.336.477.503 1.06.503 1.752 0 1.191-.455 2.204-1.365 3.038-.886.811-2.108 1.216-3.665 1.216-1.27 0-2.395-.37-3.377-1.108a.482.482 0 0 1-.216-.429l-.072-2.574c0-.072.06-.108.18-.108.144-.023.227 0 .251.072.455 1.192 1.03 2.073 1.725 2.645.719.548 1.569.823 2.551.823.814 0 1.437-.179 1.868-.537.432-.357.647-.882.647-1.573s-.156-1.263-.467-1.716a3.411 3.411 0 0 0-1.114-1.144c-.43-.286-1.03-.607-1.796-.965a25.052 25.052 0 0 1-1.905-1.001 4.435 4.435 0 0 1-1.185-1.215c-.312-.501-.467-1.121-.467-1.859 0-1.264.479-2.241 1.437-2.932.958-.691 2.084-1.037 3.377-1.037.887 0 1.737.179 2.551.537.144.071.228.131.252.178.048.048.072.12.072.215 0 .453-.012.81-.036 1.072l-.036 1.395c0 .047-.072.071-.216.071-.143 0-.215-.024-.215-.071 0-.763-.395-1.395-1.186-1.895-.79-.524-1.629-.787-2.515-.787-.647 0-1.162.179-1.545.537-.36.333-.54.834-.54 1.501zm10.739 11.512c-.048 0-.072-.072-.072-.215 0-.143.024-.214.072-.214.695 0 1.198-.06 1.509-.179.336-.119.563-.346.683-.679.12-.358.18-.894.18-1.609v-6.757c0-.882-.096-1.513-.288-1.895-.168-.381-.467-.572-.898-.572-.455 0-1.03.179-1.725.537h-.036c-.096 0-.167-.06-.215-.179-.048-.119-.024-.203.072-.25l4.455-2.074.144-.036c.048 0 .096.024.143.072.072.048.108.107.108.179 0 .143-.012.619-.036 1.43a91.604 91.604 0 0 0-.036 2.752v6.793c0 .715.048 1.251.144 1.609.12.333.335.56.647.679.335.119.85.179 1.545.179.072 0 .108.071.108.214 0 .143-.036.215-.108.215-.551 0-.982-.012-1.294-.036l-1.904-.036-1.868.036c-.336.024-.779.036-1.33.036zm2.911-18.447c-.456 0-.815-.119-1.078-.358-.24-.238-.36-.572-.36-1.001 0-.429.12-.762.36-1.001.263-.238.622-.357 1.078-.357.431 0 .766.119 1.006.357.239.239.359.572.359 1.001 0 .429-.12.763-.359 1.001-.24.239-.575.358-1.006.358zm13.488 17.517c1.461.215 2.599.429 3.413.644a4.943 4.943 0 0 1 2.156 1.144c.599.572.898 1.358.898 2.359 0 1.049-.407 2.109-1.222 3.182-.79 1.072-1.868 1.954-3.233 2.645a9.653 9.653 0 0 1-4.42 1.037c-1.677 0-3.03-.417-4.06-1.251-1.03-.834-1.545-1.871-1.545-3.11 0-1.907 1.389-3.778 4.168-5.613-1.653-.477-2.479-1.275-2.479-2.395 0-1.264.838-2.491 2.515-3.683-.886-.333-1.581-.846-2.084-1.537a4.208 4.208 0 0 1-.719-2.395c0-1.192.491-2.181 1.474-2.967 1.006-.787 2.323-1.18 3.952-1.18 1.533 0 2.719.357 3.557 1.072 1.317-.738 2.599-1.108 3.845-1.108.048 0 .083.084.107.25.048.167.072.334.072.501 0 .286-.036.56-.108.822-.047.238-.119.334-.215.286a12.183 12.183 0 0 0-.719-.25c-.407-.167-.934-.25-1.581-.25-.359 0-.706.035-1.042.107.623.691.935 1.525.935 2.502 0 .787-.204 1.526-.611 2.217-.407.691-1.006 1.251-1.797 1.68-.79.405-1.736.608-2.838.608-.719 0-1.33-.084-1.833-.25a3.508 3.508 0 0 0-1.078 1.144 2.556 2.556 0 0 0-.395 1.358c0 .739.347 1.263 1.042 1.573.695.31 1.677.56 2.946.751l.899.107zm-2.013-12.62c-.79 0-1.437.239-1.94.715-.479.477-.718 1.228-.718 2.253 0 1.406.383 2.502 1.149 3.289.767.786 1.653 1.179 2.659 1.179.767 0 1.39-.262 1.869-.786.503-.548.754-1.382.754-2.503 0-1.239-.383-2.24-1.15-3.003-.742-.762-1.616-1.144-2.623-1.144zm.899 22.594c1.269 0 2.359-.238 3.269-.715.911-.453 1.593-1.048 2.048-1.787a4.181 4.181 0 0 0 .683-2.288c0-.954-.311-1.68-.934-2.181a5.342 5.342 0 0 0-2.156-1.037c-.79-.167-1.952-.345-3.485-.536a24.294 24.294 0 0 1-1.509-.25c-.958.596-1.713 1.227-2.264 1.895-.527.691-.79 1.537-.79 2.538 0 1.311.455 2.359 1.365 3.146.91.81 2.168 1.215 3.773 1.215zm25.609-9.473c.072 0 .108.071.108.214 0 .143-.036.215-.108.215-.551 0-.982-.012-1.294-.036l-1.868-.036-1.904.036a17.89 17.89 0 0 1-1.294.036c-.072 0-.108-.072-.108-.215 0-.143.036-.214.108-.214.695 0 1.198-.06 1.509-.179.312-.119.527-.346.647-.679.12-.358.18-.894.18-1.609v-5.97c0-1.454-.276-2.515-.827-3.182-.551-.667-1.413-1.001-2.587-1.001-.766 0-1.557.226-2.371.679-.791.429-1.521 1.025-2.192 1.788v7.686c0 .715.048 1.251.144 1.609.119.333.335.56.646.679.336.119.851.179 1.545.179.072 0 .108.071.108.214 0 .143-.036.215-.108.215-.551 0-.982-.012-1.293-.036l-1.868-.036-1.905.036a17.84 17.84 0 0 1-1.293.036c-.072 0-.108-.072-.108-.215 0-.143.036-.214.108-.214.694 0 1.197-.06 1.509-.179.311-.119.527-.346.647-.679.119-.358.179-.894.179-1.609v-7.15c0-.834-.096-1.43-.287-1.788-.192-.357-.527-.536-1.006-.536-.384 0-1.054.179-2.012.536h-.072c-.096 0-.168-.047-.216-.143-.024-.119.012-.202.108-.25l3.988-1.859a.4.4 0 0 1 .18-.036c.192 0 .407.274.647.823.239.524.359 1.203.359 2.037v.143c.958-1.096 1.88-1.894 2.767-2.395.886-.5 1.808-.751 2.766-.751 1.342 0 2.36.358 3.054 1.073.719.715 1.078 1.799 1.078 3.253v7.043c0 .715.048 1.251.144 1.609.12.333.335.56.647.679.335.119.85.179 1.545.179zm25.606 0c.096.023.131.107.107.25 0 .119-.035.179-.107.179h-3.378c-1.197 0-2.97-.93-5.318-2.789-1.94 2.145-4.383 3.218-7.329 3.218-1.438 0-2.647-.251-3.629-.751-.959-.501-1.677-1.156-2.156-1.966a5.517 5.517 0 0 1-.683-2.682c0-1.406.431-2.633 1.294-3.682.862-1.049 2.096-2.145 3.7-3.289a17.043 17.043 0 0 1-1.042-1.823c-.67-1.525-1.006-2.824-1.006-3.897 0-.953.24-1.847.719-2.681a5.674 5.674 0 0 1 2.048-2.002c.862-.501 1.845-.751 2.946-.751 1.078 0 2.024.262 2.839.787.814.524 1.222 1.442 1.222 2.752 0 .93-.24 1.776-.719 2.539a7.35 7.35 0 0 1-1.725 1.93c-.67.548-1.605 1.228-2.802 2.038l-.755.5c1.773 2.765 4.36 5.434 7.761 8.008 1.03-1.668 1.545-3.432 1.545-5.291 0-.738-.167-1.287-.503-1.644-.311-.381-.97-.572-1.976-.572-.072 0-.12-.072-.144-.215 0-.143.048-.214.144-.214l7.258-.036c.096 0 .144.072.144.215 0 .143-.048.214-.144.214-.838 0-1.473.072-1.904.215-.408.143-.695.345-.863.607-.167.263-.323.644-.467 1.144-.647 2.288-1.521 4.255-2.623 5.899 1.414 1.025 2.779 1.871 4.096 2.538 1.318.644 2.468 1.061 3.45 1.252zm-17.822-18.34c0 1.787.599 3.718 1.797 5.791 1.461-1.024 2.575-1.99 3.341-2.895.791-.906 1.186-1.955 1.186-3.146 0-1.073-.288-1.907-.862-2.503-.575-.596-1.366-.894-2.372-.894-.982 0-1.748.298-2.299.894-.527.596-.791 1.514-.791 2.753zm3.126 18.304a7.07 7.07 0 0 0 3.054-.679 8.404 8.404 0 0 0 2.551-1.967l-.395-.321a43.196 43.196 0 0 1-4.276-3.861c-1.341-1.407-2.491-2.813-3.449-4.219-1.054.787-1.88 1.621-2.479 2.503-.575.858-.863 1.859-.863 3.003 0 1.024.252 1.966.755 2.824a5.892 5.892 0 0 0 2.12 2.002c.886.476 1.88.715 2.982.715zm26.459-12.155c1.868.119 3.377.739 4.527 1.859 1.15 1.12 1.725 2.502 1.725 4.147 0 1.287-.3 2.443-.899 3.468a6.548 6.548 0 0 1-2.479 2.431c-1.054.572-2.215.858-3.485.858-.814 0-1.677-.036-2.587-.108a65.244 65.244 0 0 0-1.186-.071c-.455-.024-.97-.036-1.545-.036l-2.371.036c-.431.024-1.03.036-1.797.036-.048 0-.072-.072-.072-.215 0-.143.024-.214.072-.214.958 0 1.653-.06 2.084-.179.455-.119.767-.346.934-.679.168-.358.252-.894.252-1.609v-16.552c0-.715-.084-1.24-.252-1.573-.143-.334-.443-.56-.898-.68-.431-.143-1.114-.214-2.048-.214-.072 0-.108-.072-.108-.215 0-.143.036-.214.108-.214l1.725.036a50.19 50.19 0 0 0 2.371.071 19.6 19.6 0 0 0 1.222-.036c.383-.023.718-.047 1.006-.071a20.69 20.69 0 0 1 1.976-.107c1.988 0 3.449.453 4.384 1.358.958.882 1.437 2.014 1.437 3.396 0 1.168-.371 2.193-1.114 3.075-.743.858-1.737 1.525-2.982 2.002zm-2.551-9.367c-.671 0-1.162.048-1.473.143-.312.096-.551.322-.719.68-.144.357-.216.953-.216 1.787v6.793l1.689.035c1.892 0 3.27-.441 4.132-1.322.862-.906 1.294-2.098 1.294-3.575 0-1.335-.384-2.419-1.15-3.254-.743-.858-1.928-1.287-3.557-1.287zm1.437 21.558c1.773 0 3.09-.453 3.952-1.359.887-.929 1.33-2.24 1.33-3.932 0-1.812-.563-3.277-1.689-4.398-1.102-1.144-2.599-1.728-4.491-1.751-.887-.024-1.869 0-2.947.071v8.902c0 .643.096 1.144.288 1.501.215.334.599.584 1.15.751.551.143 1.353.215 2.407.215zm26.547-1.538c.095 0 .155.06.179.179.048.095.024.167-.072.215l-4.024 1.859-.144.035c-.215 0-.443-.262-.682-.786-.216-.548-.324-1.24-.324-2.074v-.321c-.982 1.096-1.952 1.894-2.91 2.395-.958.476-1.94.715-2.946.715-1.174 0-2.096-.37-2.767-1.108-.647-.739-.97-1.824-.97-3.254v-5.541c0-.977-.084-1.668-.252-2.073-.143-.429-.407-.644-.79-.644-.36 0-.791.119-1.294.358h-.072c-.095 0-.167-.06-.215-.179-.024-.119.012-.191.108-.215l3.772-1.68.144-.036a.35.35 0 0 1 .18.072c.072.048.108.107.108.179v8.687c0 1.43.251 2.49.754 3.182.503.691 1.258 1.036 2.264 1.036.838 0 1.688-.214 2.551-.643a8.197 8.197 0 0 0 2.335-1.859v-6.185c0-.977-.084-1.668-.251-2.073-.144-.429-.419-.644-.827-.644-.359 0-.79.119-1.293.358h-.072c-.096 0-.156-.06-.18-.179-.024-.119.012-.191.108-.215l3.773-1.68.108-.036c.072 0 .131.024.179.072.072.048.108.107.108.179v10.117c0 .81.096 1.406.288 1.787.215.358.562.537 1.042.537.239 0 .527-.048.862-.143.359-.12.742-.251 1.15-.394h.072zm2.272 1.967c-.048 0-.072-.072-.072-.215 0-.143.024-.214.072-.214.694 0 1.197-.06 1.509-.179.335-.119.563-.346.682-.679.12-.358.18-.894.18-1.609v-6.757c0-.882-.096-1.513-.287-1.895-.168-.381-.468-.572-.899-.572-.455 0-1.03.179-1.724.537h-.036c-.096 0-.168-.06-.216-.179-.048-.119-.024-.203.072-.25l4.455-2.074.144-.036c.048 0 .096.024.144.072.072.048.108.107.108.179 0 .143-.012.619-.036 1.43a91.604 91.604 0 0 0-.036 2.752v6.793c0 .715.048 1.251.143 1.609.12.333.336.56.647.679.336.119.851.179 1.545.179.072 0 .108.071.108.214 0 .143-.036.215-.108.215-.551 0-.982-.012-1.293-.036l-1.905-.036-1.868.036a19.46 19.46 0 0 1-1.329.036zm2.91-18.447c-.455 0-.814-.119-1.078-.358-.24-.238-.359-.572-.359-1.001 0-.429.119-.762.359-1.001.264-.238.623-.357 1.078-.357.431 0 .766.119 1.006.357.24.239.359.572.359 1.001 0 .429-.119.763-.359 1.001-.24.239-.575.358-1.006.358zm6.41 18.447c-.072 0-.108-.072-.108-.215 0-.143.036-.214.108-.214.694 0 1.197-.06 1.509-.179.311-.119.527-.346.646-.679.12-.358.18-.894.18-1.609v-18.554c0-.882-.084-1.514-.251-1.895-.168-.381-.467-.572-.899-.572-.383 0-.958.179-1.724.536h-.072c-.096 0-.168-.059-.216-.179-.024-.119.012-.19.108-.214l4.42-2.109a.393.393 0 0 1 .179-.036c.048 0 .096.024.144.071.072.048.108.108.108.179v22.773c0 .715.048 1.239.143 1.573.12.333.336.572.647.715.335.119.85.179 1.545.179.072 0 .108.071.108.214 0 .143-.036.215-.108.215-.527 0-.958-.012-1.293-.036l-1.941-.036-1.94.036a17.84 17.84 0 0 1-1.293.036zm25.937-1.967c.095 0 .155.06.179.179.048.119.024.203-.072.25l-3.701 1.752a.632.632 0 0 1-.287.072c-.335 0-.623-.263-.862-.787-.216-.548-.336-1.311-.36-2.288-.91.977-1.868 1.764-2.874 2.36-.982.595-2.084.893-3.306.893a4.97 4.97 0 0 1-2.802-.858c-.839-.572-1.521-1.37-2.048-2.395-.503-1.049-.755-2.228-.755-3.539 0-1.668.419-3.098 1.258-4.29.838-1.216 1.892-2.121 3.162-2.717 1.269-.62 2.527-.93 3.772-.93 1.27 0 2.468.37 3.593 1.109v-8.259c0-.881-.095-1.513-.287-1.894-.168-.382-.479-.572-.934-.572-.192 0-.443.059-.755.178a18.53 18.53 0 0 0-.97.358h-.072c-.096 0-.155-.048-.179-.143-.024-.119 0-.203.071-.25l4.384-2.145a.4.4 0 0 1 .18-.036c.047 0 .095.024.143.071.072.048.108.108.108.179v21.808c0 .881.096 1.513.288 1.894.215.382.574.572 1.077.572.743 0 1.402-.178 1.977-.536l.072-.036zm-10.025 1.252c.91 0 1.76-.227 2.551-.68.79-.476 1.581-1.132 2.371-1.966v-7.579c-.622-.834-1.305-1.478-2.048-1.93-.718-.477-1.593-.715-2.623-.715-1.557 0-2.802.548-3.736 1.644-.935 1.096-1.402 2.622-1.402 4.576 0 1.311.216 2.467.647 3.468.431 1.001 1.018 1.787 1.761 2.359a4.076 4.076 0 0 0 2.479.823zm12.277.715c-.048 0-.072-.072-.072-.215 0-.143.024-.214.072-.214.695 0 1.198-.06 1.509-.179.336-.119.563-.346.683-.679.12-.358.18-.894.18-1.609v-6.757c0-.882-.096-1.513-.288-1.895-.167-.381-.467-.572-.898-.572-.455 0-1.03.179-1.725.537h-.036c-.095 0-.167-.06-.215-.179-.048-.119-.024-.203.072-.25l4.455-2.074.144-.036c.048 0 .096.024.143.072.072.048.108.107.108.179 0 .143-.012.619-.036 1.43a91.604 91.604 0 0 0-.036 2.752v6.793c0 .715.048 1.251.144 1.609.12.333.335.56.647.679.335.119.85.179 1.545.179.072 0 .108.071.108.214 0 .143-.036.215-.108.215-.551 0-.982-.012-1.294-.036l-1.904-.036-1.868.036c-.336.024-.779.036-1.33.036zm2.911-18.447c-.456 0-.815-.119-1.078-.358-.24-.238-.36-.572-.36-1.001 0-.429.12-.762.36-1.001.263-.238.622-.357 1.078-.357.431 0 .766.119 1.006.357.239.239.359.572.359 1.001 0 .429-.12.763-.359 1.001-.24.239-.575.358-1.006.358zm22.614 18.018c.072 0 .108.071.108.214 0 .143-.036.215-.108.215-.551 0-.982-.012-1.293-.036l-1.869-.036-1.904.036a17.89 17.89 0 0 1-1.294.036c-.072 0-.108-.072-.108-.215 0-.143.036-.214.108-.214.695 0 1.198-.06 1.509-.179.312-.119.527-.346.647-.679.12-.358.18-.894.18-1.609v-5.97c0-1.454-.276-2.515-.827-3.182-.551-.667-1.413-1.001-2.587-1.001-.766 0-1.557.226-2.371.679-.791.429-1.521 1.025-2.192 1.788v7.686c0 .715.048 1.251.144 1.609.12.333.335.56.647.679.335.119.85.179 1.545.179.072 0 .107.071.107.214 0 .143-.035.215-.107.215-.551 0-.982-.012-1.294-.036l-1.868-.036-1.905.036a17.84 17.84 0 0 1-1.293.036c-.072 0-.108-.072-.108-.215 0-.143.036-.214.108-.214.695 0 1.198-.06 1.509-.179.311-.119.527-.346.647-.679.12-.358.179-.894.179-1.609v-7.15c0-.834-.095-1.43-.287-1.788-.192-.357-.527-.536-1.006-.536-.383 0-1.054.179-2.012.536h-.072c-.096 0-.168-.047-.216-.143-.024-.119.012-.202.108-.25l3.988-1.859a.4.4 0 0 1 .18-.036c.192 0 .407.274.647.823.239.524.359 1.203.359 2.037v.143c.958-1.096 1.881-1.894 2.767-2.395.886-.5 1.808-.751 2.766-.751 1.342 0 2.36.358 3.055 1.073.718.715 1.078 1.799 1.078 3.253v7.043c0 .715.047 1.251.143 1.609.12.333.336.56.647.679.335.119.85.179 1.545.179zm9.365-.501c1.461.215 2.599.429 3.414.644a4.943 4.943 0 0 1 2.156 1.144c.598.572.898 1.358.898 2.359 0 1.049-.407 2.109-1.222 3.182-.79 1.072-1.868 1.954-3.234 2.645a9.646 9.646 0 0 1-4.419 1.037c-1.677 0-3.03-.417-4.06-1.251-1.03-.834-1.545-1.871-1.545-3.11 0-1.907 1.389-3.778 4.168-5.613-1.653-.477-2.48-1.275-2.48-2.395 0-1.264.839-2.491 2.516-3.683-.887-.333-1.581-.846-2.084-1.537a4.208 4.208 0 0 1-.719-2.395c0-1.192.491-2.181 1.473-2.967 1.006-.787 2.324-1.18 3.953-1.18 1.533 0 2.718.357 3.557 1.072 1.317-.738 2.599-1.108 3.844-1.108.048 0 .084.084.108.25.048.167.072.334.072.501 0 .286-.036.56-.108.822-.048.238-.12.334-.215.286a12.183 12.183 0 0 0-.719-.25c-.407-.167-.934-.25-1.581-.25a4.95 4.95 0 0 0-1.042.107c.623.691.934 1.525.934 2.502 0 .787-.203 1.526-.611 2.217-.407.691-1.006 1.251-1.796 1.68-.791.405-1.737.608-2.839.608-.718 0-1.329-.084-1.832-.25a3.498 3.498 0 0 0-1.078 1.144 2.548 2.548 0 0 0-.395 1.358c0 .739.347 1.263 1.042 1.573.694.31 1.676.56 2.946.751l.898.107zm-2.012-12.62c-.79 0-1.437.239-1.94.715-.479.477-.719 1.228-.719 2.253 0 1.406.384 2.502 1.15 3.289.767.786 1.653 1.179 2.659 1.179.766 0 1.389-.262 1.868-.786.503-.548.755-1.382.755-2.503 0-1.239-.383-2.24-1.15-3.003-.742-.762-1.617-1.144-2.623-1.144zm.898 22.594c1.27 0 2.36-.238 3.27-.715.91-.453 1.593-1.048 2.048-1.787a4.19 4.19 0 0 0 .683-2.288c0-.954-.312-1.68-.934-2.181a5.348 5.348 0 0 0-2.156-1.037c-.791-.167-1.952-.345-3.485-.536a24.487 24.487 0 0 1-1.51-.25c-.958.596-1.712 1.227-2.263 1.895-.527.691-.791 1.537-.791 2.538 0 1.311.455 2.359 1.366 3.146.91.81 2.168 1.215 3.772 1.215zm32.724-9.473c.096.023.131.107.107.25 0 .119-.035.179-.107.179h-3.378c-1.197 0-2.97-.93-5.317-2.789-1.941 2.145-4.384 3.218-7.33 3.218-1.438 0-2.647-.251-3.629-.751-.959-.501-1.677-1.156-2.156-1.966a5.517 5.517 0 0 1-.683-2.682c0-1.406.431-2.633 1.294-3.682.862-1.049 2.096-2.145 3.7-3.289a17.043 17.043 0 0 1-1.042-1.823c-.67-1.525-1.006-2.824-1.006-3.897 0-.953.24-1.847.719-2.681a5.674 5.674 0 0 1 2.048-2.002c.862-.501 1.845-.751 2.946-.751 1.078 0 2.025.262 2.839.787.814.524 1.222 1.442 1.222 2.752 0 .93-.24 1.776-.719 2.539a7.35 7.35 0 0 1-1.725 1.93c-.67.548-1.605 1.228-2.802 2.038l-.755.5c1.773 2.765 4.36 5.434 7.761 8.008 1.03-1.668 1.545-3.432 1.545-5.291 0-.738-.168-1.287-.503-1.644-.311-.381-.97-.572-1.976-.572-.072 0-.12-.072-.144-.215 0-.143.048-.214.144-.214l7.258-.036c.096 0 .144.072.144.215 0 .143-.048.214-.144.214-.838 0-1.473.072-1.904.215-.408.143-.695.345-.863.607-.167.263-.323.644-.467 1.144-.647 2.288-1.521 4.255-2.623 5.899 1.414 1.025 2.779 1.871 4.096 2.538 1.318.644 2.468 1.061 3.45 1.252zm-17.822-18.34c0 1.787.599 3.718 1.797 5.791 1.461-1.024 2.575-1.99 3.341-2.895.791-.906 1.186-1.955 1.186-3.146 0-1.073-.288-1.907-.862-2.503-.575-.596-1.366-.894-2.372-.894-.982 0-1.748.298-2.299.894-.527.596-.791 1.514-.791 2.753zm3.126 18.304a7.07 7.07 0 0 0 3.054-.679 8.404 8.404 0 0 0 2.551-1.967l-.395-.321a43.196 43.196 0 0 1-4.276-3.861c-1.341-1.407-2.491-2.813-3.449-4.219-1.054.787-1.88 1.621-2.479 2.503-.575.858-.863 1.859-.863 3.003 0 1.024.252 1.966.755 2.824a5.892 5.892 0 0 0 2.12 2.002c.886.476 1.88.715 2.982.715zm31.669-4.755c0-.071.072-.095.215-.071.144 0 .216.035.216.107a32.607 32.607 0 0 0-.323 4.647c0 .191-.048.334-.144.429-.072.072-.216.108-.431.108h-14.84c-.048 0-.072-.072-.072-.215 0-.143.024-.214.072-.214.934 0 1.617-.06 2.048-.179.455-.119.755-.346.899-.679.167-.358.251-.894.251-1.609v-16.552c0-.715-.084-1.24-.251-1.573-.144-.334-.444-.56-.899-.68-.431-.143-1.114-.214-2.048-.214-.048 0-.072-.072-.072-.215 0-.143.024-.214.072-.214h14.229c.215 0 .323.107.323.322l.072 4.325c0 .072-.072.108-.216.108-.119 0-.179-.036-.179-.108 0-1.215-.324-2.18-.97-2.895-.647-.715-1.497-1.073-2.551-1.073h-2.48c-.91 0-1.581.06-2.012.179-.431.119-.73.346-.898.679-.144.334-.216.858-.216 1.573v7.257h4.743c1.102 0 1.869-.178 2.3-.536.431-.381.647-1.025.647-1.93 0-.048.071-.072.215-.072.144 0 .216.024.216.072l-.036 2.824c0 .691.012 1.203.036 1.537l.036 1.68c0 .048-.072.072-.216.072-.144 0-.215-.024-.215-.072 0-1.072-.228-1.823-.683-2.252-.455-.429-1.258-.643-2.408-.643h-4.635v8.258c0 .691.072 1.203.216 1.537.168.31.455.524.862.644.432.119 1.114.178 2.048.178h3.306c.958 0 1.773-.417 2.443-1.251.695-.834 1.138-1.93 1.33-3.289zm19.949 4.791c.071 0 .107.071.107.214 0 .143-.036.215-.107.215-.551 0-.983-.012-1.294-.036l-1.868-.036-1.905.036a17.84 17.84 0 0 1-1.293.036c-.072 0-.108-.072-.108-.215 0-.143.036-.214.108-.214.694 0 1.198-.06 1.509-.179.311-.119.527-.346.647-.679.119-.358.179-.894.179-1.609v-5.97c0-1.454-.275-2.515-.826-3.182-.551-.667-1.413-1.001-2.587-1.001-.767 0-1.557.226-2.372.679-.79.429-1.521 1.025-2.191 1.788v7.686c0 .715.048 1.251.143 1.609.12.333.336.56.647.679.336.119.851.179 1.545.179.072 0 .108.071.108.214 0 .143-.036.215-.108.215-.551 0-.982-.012-1.293-.036l-1.869-.036-1.904.036c-.311.024-.743.036-1.294.036-.071 0-.107-.072-.107-.215 0-.143.036-.214.107-.214.695 0 1.198-.06 1.51-.179.311-.119.527-.346.646-.679.12-.358.18-.894.18-1.609v-7.15c0-.834-.096-1.43-.287-1.788-.192-.357-.527-.536-1.007-.536-.383 0-1.053.179-2.012.536h-.072c-.095 0-.167-.047-.215-.143-.024-.119.012-.202.108-.25l3.988-1.859a.4.4 0 0 1 .18-.036c.191 0 .407.274.646.823.24.524.36 1.203.36 2.037v.143c.958-1.096 1.88-1.894 2.766-2.395.887-.5 1.809-.751 2.767-.751 1.341 0 2.359.358 3.054 1.073.719.715 1.078 1.799 1.078 3.253v7.043c0 .715.048 1.251.144 1.609.12.333.335.56.647.679.335.119.85.179 1.545.179zm9.365-.501c1.461.215 2.599.429 3.413.644a4.937 4.937 0 0 1 2.156 1.144c.599.572.898 1.358.898 2.359 0 1.049-.407 2.109-1.221 3.182-.791 1.072-1.869 1.954-3.234 2.645a9.65 9.65 0 0 1-4.42 1.037c-1.676 0-3.03-.417-4.06-1.251-1.03-.834-1.545-1.871-1.545-3.11 0-1.907 1.39-3.778 4.168-5.613-1.653-.477-2.479-1.275-2.479-2.395 0-1.264.838-2.491 2.515-3.683-.886-.333-1.581-.846-2.084-1.537a4.207 4.207 0 0 1-.718-2.395c0-1.192.491-2.181 1.473-2.967 1.006-.787 2.323-1.18 3.952-1.18 1.533 0 2.719.357 3.557 1.072 1.318-.738 2.599-1.108 3.845-1.108.048 0 .084.084.108.25.048.167.071.334.071.501 0 .286-.035.56-.107.822-.048.238-.12.334-.216.286a11.881 11.881 0 0 0-.719-.25c-.407-.167-.934-.25-1.58-.25-.36 0-.707.035-1.042.107.622.691.934 1.525.934 2.502 0 .787-.204 1.526-.611 2.217-.407.691-1.006 1.251-1.797 1.68-.79.405-1.736.608-2.838.608-.719 0-1.33-.084-1.833-.25a3.508 3.508 0 0 0-1.078 1.144 2.556 2.556 0 0 0-.395 1.358c0 .739.348 1.263 1.042 1.573.695.31 1.677.56 2.947.751l.898.107zm-2.012-12.62c-.791 0-1.438.239-1.941.715-.479.477-.718 1.228-.718 2.253 0 1.406.383 2.502 1.15 3.289.766.786 1.652 1.179 2.658 1.179.767 0 1.39-.262 1.869-.786.503-.548.754-1.382.754-2.503 0-1.239-.383-2.24-1.149-3.003-.743-.762-1.617-1.144-2.623-1.144zm.898 22.594c1.27 0 2.359-.238 3.27-.715.91-.453 1.593-1.048 2.048-1.787a4.188 4.188 0 0 0 .682-2.288c0-.954-.311-1.68-.934-2.181a5.342 5.342 0 0 0-2.156-1.037c-.79-.167-1.952-.345-3.485-.536a24.294 24.294 0 0 1-1.509-.25c-.958.596-1.713 1.227-2.264 1.895-.527.691-.79 1.537-.79 2.538 0 1.311.455 2.359 1.365 3.146.91.81 2.168 1.215 3.773 1.215zm9.979-9.044c-.048 0-.072-.072-.072-.215 0-.143.024-.214.072-.214.695 0 1.198-.06 1.509-.179.336-.119.563-.346.683-.679.12-.358.18-.894.18-1.609v-6.757c0-.882-.096-1.513-.288-1.895-.168-.381-.467-.572-.898-.572-.455 0-1.03.179-1.725.537h-.036c-.096 0-.167-.06-.215-.179-.048-.119-.024-.203.072-.25l4.455-2.074.144-.036c.048 0 .095.024.143.072.072.048.108.107.108.179 0 .143-.012.619-.036 1.43a91.604 91.604 0 0 0-.036 2.752v6.793c0 .715.048 1.251.144 1.609.12.333.335.56.647.679.335.119.85.179 1.545.179.072 0 .108.071.108.214 0 .143-.036.215-.108.215-.551 0-.982-.012-1.294-.036l-1.904-.036-1.868.036c-.336.024-.779.036-1.33.036zm2.911-18.447c-.456 0-.815-.119-1.078-.358-.24-.238-.36-.572-.36-1.001 0-.429.12-.762.36-1.001.263-.238.622-.357 1.078-.357.431 0 .766.119 1.006.357.239.239.359.572.359 1.001 0 .429-.12.763-.359 1.001-.24.239-.575.358-1.006.358zm22.614 18.018c.072 0 .108.071.108.214 0 .143-.036.215-.108.215-.551 0-.982-.012-1.294-.036l-1.868-.036-1.904.036a17.89 17.89 0 0 1-1.294.036c-.072 0-.108-.072-.108-.215 0-.143.036-.214.108-.214.695 0 1.198-.06 1.509-.179.312-.119.527-.346.647-.679.12-.358.18-.894.18-1.609v-5.97c0-1.454-.276-2.515-.827-3.182-.551-.667-1.413-1.001-2.587-1.001-.766 0-1.557.226-2.371.679-.791.429-1.521 1.025-2.192 1.788v7.686c0 .715.048 1.251.144 1.609.12.333.335.56.647.679.335.119.85.179 1.545.179.071 0 .107.071.107.214 0 .143-.036.215-.107.215-.551 0-.983-.012-1.294-.036l-1.868-.036-1.905.036a17.84 17.84 0 0 1-1.293.036c-.072 0-.108-.072-.108-.215 0-.143.036-.214.108-.214.695 0 1.198-.06 1.509-.179.311-.119.527-.346.647-.679.119-.358.179-.894.179-1.609v-7.15c0-.834-.095-1.43-.287-1.788-.192-.357-.527-.536-1.006-.536-.383 0-1.054.179-2.012.536h-.072c-.096 0-.168-.047-.216-.143-.024-.119.012-.202.108-.25l3.988-1.859a.4.4 0 0 1 .18-.036c.192 0 .407.274.647.823.239.524.359 1.203.359 2.037v.143c.958-1.096 1.88-1.894 2.767-2.395.886-.5 1.808-.751 2.766-.751 1.342 0 2.36.358 3.055 1.073.718.715 1.077 1.799 1.077 3.253v7.043c0 .715.048 1.251.144 1.609.12.333.336.56.647.679.335.119.85.179 1.545.179zm13.677-1.502c.072 0 .132.048.18.143.071.072.083.143.035.215-1.58 1.334-3.293 2.002-5.138 2.002-1.389 0-2.587-.322-3.593-.966-1.006-.643-1.76-1.477-2.263-2.502a7.752 7.752 0 0 1-.755-3.396c0-1.43.335-2.729 1.006-3.897a7.364 7.364 0 0 1 2.731-2.753c1.174-.691 2.467-1.037 3.88-1.037 1.246 0 2.216.322 2.911.966.695.619 1.042 1.477 1.042 2.574 0 .286-.036.488-.108.607-.048.12-.156.179-.323.179l-8.911.036c-.12.667-.18 1.323-.18 1.966 0 2.097.503 3.802 1.509 5.112 1.03 1.311 2.432 1.967 4.204 1.967 1.413 0 2.659-.406 3.737-1.216h.036zm-5.138-11.476c-1.054 0-1.928.286-2.623.858-.671.549-1.15 1.347-1.437 2.396l7.078-.179c0-.977-.275-1.728-.826-2.252-.551-.549-1.282-.823-2.192-.823zm19.489 11.476c.072 0 .132.048.18.143.072.072.084.143.036.215-1.581 1.334-3.294 2.002-5.138 2.002-1.39 0-2.587-.322-3.593-.966-1.007-.643-1.761-1.477-2.264-2.502a7.752 7.752 0 0 1-.755-3.396c0-1.43.336-2.729 1.006-3.897a7.364 7.364 0 0 1 2.731-2.753c1.174-.691 2.467-1.037 3.881-1.037 1.245 0 2.215.322 2.91.966.695.619 1.042 1.477 1.042 2.574 0 .286-.036.488-.108.607-.048.12-.155.179-.323.179l-8.911.036c-.12.667-.18 1.323-.18 1.966 0 2.097.503 3.802 1.509 5.112 1.031 1.311 2.432 1.967 4.204 1.967 1.414 0 2.659-.406 3.737-1.216h.036zm-5.138-11.476c-1.054 0-1.928.286-2.623.858-.671.549-1.15 1.347-1.437 2.396l7.078-.179c0-.977-.275-1.728-.826-2.252-.551-.549-1.282-.823-2.192-.823zm16.502-.715c.527 0 1.018.143 1.473.429.479.263.719.572.719.93a.885.885 0 0 1-.288.643c-.167.191-.419.286-.754.286-.24 0-.455-.059-.647-.178a3.83 3.83 0 0 0-.359-.251c-.455-.357-.91-.536-1.366-.536-.335 0-.694.143-1.078.429-.359.286-.922.894-1.688 1.823v7.651c0 .715.084 1.251.251 1.609.168.333.491.56.97.679.503.119 1.294.179 2.372.179.072 0 .108.071.108.214 0 .143-.036.215-.108.215-.767 0-1.378-.012-1.833-.036l-2.587-.036-1.904.036c-.311.024-.743.036-1.294.036-.071 0-.107-.072-.107-.215 0-.143.036-.214.107-.214.695 0 1.198-.06 1.51-.179.311-.119.527-.346.646-.679.12-.358.18-.894.18-1.609v-7.15c0-.834-.096-1.43-.287-1.788-.192-.357-.527-.536-1.007-.536-.383 0-1.054.179-2.012.536h-.071c-.096 0-.168-.047-.216-.143-.024-.119.012-.202.108-.25l3.988-1.859a.4.4 0 0 1 .18-.036c.191 0 .407.274.646.823.24.524.36 1.203.36 2.037v.215c.982-1.192 1.76-2.002 2.335-2.431.575-.429 1.126-.644 1.653-.644zm5.33 14.122c-.048 0-.072-.072-.072-.215 0-.143.024-.214.072-.214.695 0 1.198-.06 1.509-.179.336-.119.563-.346.683-.679.12-.358.18-.894.18-1.609v-6.757c0-.882-.096-1.513-.288-1.895-.167-.381-.467-.572-.898-.572-.455 0-1.03.179-1.725.537h-.035c-.096 0-.168-.06-.216-.179-.048-.119-.024-.203.072-.25l4.455-2.074.144-.036c.048 0 .096.024.144.072.071.048.107.107.107.179 0 .143-.012.619-.036 1.43a95.412 95.412 0 0 0-.035 2.752v6.793c0 .715.047 1.251.143 1.609.12.333.336.56.647.679.335.119.85.179 1.545.179.072 0 .108.071.108.214 0 .143-.036.215-.108.215-.551 0-.982-.012-1.293-.036l-1.905-.036-1.868.036c-.336.024-.779.036-1.33.036zm2.911-18.447c-.455 0-.815-.119-1.078-.358-.24-.238-.359-.572-.359-1.001 0-.429.119-.762.359-1.001.263-.238.623-.357 1.078-.357.431 0 .766.119 1.006.357.239.239.359.572.359 1.001 0 .429-.12.763-.359 1.001-.24.239-.575.358-1.006.358zm22.614 18.018c.072 0 .108.071.108.214 0 .143-.036.215-.108.215-.551 0-.982-.012-1.293-.036l-1.869-.036-1.904.036c-.311.024-.743.036-1.294.036-.071 0-.107-.072-.107-.215 0-.143.036-.214.107-.214.695 0 1.198-.06 1.51-.179.311-.119.527-.346.646-.679.12-.358.18-.894.18-1.609v-5.97c0-1.454-.276-2.515-.826-3.182-.551-.667-1.414-1.001-2.587-1.001-.767 0-1.557.226-2.372.679-.79.429-1.521 1.025-2.192 1.788v7.686c0 .715.048 1.251.144 1.609.12.333.335.56.647.679.335.119.85.179 1.545.179.072 0 .108.071.108.214 0 .143-.036.215-.108.215-.551 0-.982-.012-1.294-.036l-1.868-.036-1.904.036a17.89 17.89 0 0 1-1.294.036c-.072 0-.108-.072-.108-.215 0-.143.036-.214.108-.214.695 0 1.198-.06 1.509-.179.312-.119.527-.346.647-.679.12-.358.18-.894.18-1.609v-7.15c0-.834-.096-1.43-.288-1.788-.191-.357-.527-.536-1.006-.536-.383 0-1.054.179-2.012.536h-.072c-.096 0-.168-.047-.215-.143-.024-.119.012-.202.107-.25l3.989-1.859a.396.396 0 0 1 .179-.036c.192 0 .407.274.647.823.24.524.359 1.203.359 2.037v.143c.959-1.096 1.881-1.894 2.767-2.395.886-.5 1.809-.751 2.767-.751 1.341 0 2.359.358 3.054 1.073.718.715 1.078 1.799 1.078 3.253v7.043c0 .715.048 1.251.143 1.609.12.333.336.56.647.679.336.119.851.179 1.545.179zm9.365-.501c1.462.215 2.599.429 3.414.644a4.943 4.943 0 0 1 2.156 1.144c.599.572.898 1.358.898 2.359 0 1.049-.407 2.109-1.222 3.182-.79 1.072-1.868 1.954-3.233 2.645a9.653 9.653 0 0 1-4.42 1.037c-1.677 0-3.03-.417-4.06-1.251-1.03-.834-1.545-1.871-1.545-3.11 0-1.907 1.389-3.778 4.168-5.613-1.653-.477-2.479-1.275-2.479-2.395 0-1.264.838-2.491 2.515-3.683-.886-.333-1.581-.846-2.084-1.537a4.208 4.208 0 0 1-.719-2.395c0-1.192.491-2.181 1.473-2.967 1.006-.787 2.324-1.18 3.953-1.18 1.533 0 2.718.357 3.557 1.072 1.317-.738 2.599-1.108 3.844-1.108.048 0 .084.084.108.25.048.167.072.334.072.501 0 .286-.036.56-.108.822-.048.238-.119.334-.215.286a12.183 12.183 0 0 0-.719-.25c-.407-.167-.934-.25-1.581-.25-.359 0-.706.035-1.042.107.623.691.934 1.525.934 2.502 0 .787-.203 1.526-.61 2.217-.408.691-1.006 1.251-1.797 1.68-.79.405-1.737.608-2.838.608-.719 0-1.33-.084-1.833-.25a3.508 3.508 0 0 0-1.078 1.144 2.556 2.556 0 0 0-.395 1.358c0 .739.347 1.263 1.042 1.573.695.31 1.677.56 2.946.751l.898.107zm-2.012-12.62c-.79 0-1.437.239-1.94.715-.479.477-.719 1.228-.719 2.253 0 1.406.384 2.502 1.15 3.289.767.786 1.653 1.179 2.659 1.179.767 0 1.389-.262 1.869-.786.503-.548.754-1.382.754-2.503 0-1.239-.383-2.24-1.15-3.003-.742-.762-1.617-1.144-2.623-1.144zm.899 22.594c1.269 0 2.359-.238 3.269-.715.911-.453 1.593-1.048 2.048-1.787a4.19 4.19 0 0 0 .683-2.288c0-.954-.311-1.68-.934-2.181a5.348 5.348 0 0 0-2.156-1.037c-.79-.167-1.952-.345-3.485-.536a24.294 24.294 0 0 1-1.509-.25c-.959.596-1.713 1.227-2.264 1.895-.527.691-.79 1.537-.79 2.538 0 1.311.455 2.359 1.365 3.146.91.81 2.168 1.215 3.773 1.215z" fill="#fff"/></symbol></svg>