<?xml version="1.0" encoding="utf-8"?><svg xmlns="http://www.w3.org/2000/svg" xmlns:xlink="http://www.w3.org/1999/xlink"><symbol fill="none" viewBox="0 0 10 18" id="arrow"><path d="m1.309 1.23 7.89 8.178-7.89 8.178" stroke="#fff"/></symbol><symbol fill="none" viewBox="0 0 30 30" id="down"><path d="m1 1 28 28m0 0V6.275M29 29H4.652" stroke="#fff"/></symbol><symbol fill="none" viewBox="0 0 22 22" id="down-arrow"><path d="M11 0v21m0 0 10-9.649M11 21 1 11.351" stroke="#fff"/></symbol><symbol fill="none" viewBox="0 0 23 25" id="fb"><path d="M15.787 4.976h2.186V1.169C17.596 1.117 16.299 1 14.788 1c-3.151 0-5.31 1.982-5.31 5.626V9.98H6v4.257h3.478v10.71h4.264v-10.71h3.337l.53-4.256H13.74V7.048c0-1.23.332-2.072 2.046-2.072z" fill="#E2E2E2"/></symbol><symbol fill="none" viewBox="0 0 23 25" id="insta"><path d="M16.747 1.548H6.034C3.09 1.548.678 3.886.678 6.746v10.398c0 2.859 2.41 5.198 5.356 5.198h10.713c2.945 0 5.356-2.34 5.356-5.198V6.746c0-2.86-2.41-5.198-5.356-5.198zm-5.356 14.73c-2.466 0-4.464-1.941-4.464-4.333 0-2.393 1.998-4.332 4.464-4.332 2.464 0 4.463 1.94 4.463 4.332s-2 4.332-4.463 4.332zm5.802-8.665c-.74 0-1.339-.582-1.339-1.3 0-.717.599-1.3 1.34-1.3.74 0 1.338.583 1.338 1.3 0 .718-.599 1.3-1.339 1.3z" fill="#E2E2E2"/></symbol></svg>