<svg width="2075" height="848" viewBox="0 0 2075 848" fill="none" xmlns="http://www.w3.org/2000/svg">
<path d="M1037.4 846.956C750.977 846.956 491.694 799.536 304.036 722.886C210.205 684.561 134.306 638.938 81.8715 588.303C29.4386 537.669 0.50025 482.055 0.500249 423.728C0.500248 365.401 29.4386 309.788 81.8715 259.154C134.306 208.518 210.205 162.895 304.036 124.57C491.694 47.9203 750.977 0.500016 1037.4 0.500012C1323.82 0.500009 1583.1 47.9203 1770.76 124.57C1864.59 162.895 1940.49 208.518 1992.92 259.154C2045.36 309.788 2074.29 365.401 2074.29 423.728C2074.29 482.055 2045.36 537.669 1992.92 588.303C1940.49 638.938 1864.59 684.561 1770.76 722.886C1583.1 799.536 1323.82 846.956 1037.4 846.956Z" stroke="#B5773E"/>
</svg>
