<svg width="2075" height="848" viewBox="0 0 2075 848" fill="none" xmlns="http://www.w3.org/2000/svg">
<path d="M1037.39 846.955C750.975 846.955 491.693 799.534 304.035 722.885C210.205 684.559 134.305 638.937 81.8709 588.301C29.4382 537.667 0.499979 482.054 0.499981 423.727C0.499984 365.401 29.4382 309.787 81.871 259.153C134.305 208.518 210.205 162.895 304.035 124.57C491.693 47.9201 750.975 0.499942 1037.4 0.499955C1323.82 0.499967 1583.1 47.9202 1770.75 124.57C1864.59 162.895 1940.48 208.518 1992.92 259.153C2045.35 309.787 2074.29 365.401 2074.29 423.727C2074.29 482.054 2045.35 537.668 1992.92 588.301C1940.48 638.937 1864.59 684.56 1770.75 722.885C1583.1 799.534 1323.82 846.955 1037.39 846.955Z" stroke="#735337"/>
</svg>
