<svg width="1036" height="452" viewBox="0 0 1036 452" fill="none" xmlns="http://www.w3.org/2000/svg">
<path d="M517.926 450.649C374.956 450.649 245.546 425.409 151.897 384.621C105.071 364.227 67.2087 339.956 41.0599 313.03C14.9133 286.106 0.499989 256.554 0.49999 225.575C0.499991 194.595 14.9133 165.043 41.0599 138.119C67.2087 111.193 105.071 86.9218 151.897 66.5276C245.546 25.7401 374.956 0.499971 517.926 0.499977C660.895 0.499984 790.305 25.7401 883.955 66.5277C930.78 86.9218 968.642 111.193 994.791 138.119C1020.94 165.043 1035.35 194.595 1035.35 225.575C1035.35 256.554 1020.94 286.106 994.791 313.03C968.642 339.956 930.78 364.227 883.955 384.622C790.305 425.409 660.895 450.649 517.926 450.649Z" stroke="#735337"/>
</svg>
