<svg width="1602" height="718" viewBox="0 0 1602 718" fill="none" xmlns="http://www.w3.org/2000/svg">
<path d="M676.733 222.851H697.565V404.283H676.733V320.824H574.832V404.283H554V222.851H574.832V300.349H676.733V222.851Z" fill="#E2E2E2"/>
<path d="M741.751 404.283V222.851H762.583V404.283H741.751Z" fill="#E2E2E2"/>
<path d="M888.023 315.9V336.376H806.703V315.9H888.023Z" fill="#E2E2E2"/>
<path d="M991.436 222.851C1017.2 222.851 1038.62 231.404 1055.69 248.511C1072.92 265.617 1081.54 287.303 1081.54 313.567C1081.54 339.659 1072.92 361.344 1055.69 378.624C1038.45 395.73 1017.04 404.283 991.436 404.283H931.952V222.851H991.436ZM991.687 383.807C1011.43 383.807 1027.83 377.241 1040.88 364.109C1053.93 350.804 1060.54 333.957 1060.71 313.567C1060.71 293.178 1054.1 276.417 1040.88 263.285C1027.83 249.98 1011.43 243.327 991.687 243.327H952.784V383.807H991.687Z" fill="#E2E2E2"/>
<path d="M1136.56 246.956C1154.13 228.985 1175.71 220 1201.31 220C1226.92 220 1248.33 228.985 1265.57 246.956C1282.97 264.753 1291.67 286.957 1291.67 313.567C1291.67 340.177 1282.97 362.468 1265.57 380.438C1248.17 398.236 1226.66 407.134 1201.06 407.134C1175.46 407.134 1153.96 398.236 1136.56 380.438C1119.16 362.468 1110.46 340.177 1110.46 313.567C1110.46 286.957 1119.16 264.753 1136.56 246.956ZM1201.06 240.476C1181.49 240.476 1165.01 247.474 1151.62 261.47C1138.23 275.466 1131.54 292.832 1131.54 313.567C1131.54 334.302 1138.23 351.668 1151.62 365.664C1165.01 379.66 1181.49 386.659 1201.06 386.659C1220.81 386.659 1237.29 379.747 1250.51 365.923C1263.89 351.927 1270.59 334.475 1270.59 313.567C1270.59 292.659 1263.89 275.294 1250.51 261.47C1237.29 247.474 1220.81 240.476 1201.06 240.476Z" fill="#E2E2E2"/>
<path d="M1464.07 222.851H1489.67V404.283H1468.84V250.584L1409.36 343.374H1407.35L1347.86 250.584V404.283H1327.03V222.851H1352.63L1408.35 309.42L1464.07 222.851Z" fill="#E2E2E2"/>
<path d="M616.698 468.659H565.721V498.943H613.309V509.72H565.721V542.596H616.698V553.373H554V457.882H616.698V468.659Z" fill="#E2E2E2"/>
<path d="M703.85 457.882H715.571V553.373H701.026L645.247 473.024L646.377 513.403V553.373H634.656V457.882H649.06L704.839 538.231L703.85 497.852V457.882Z" fill="#E2E2E2"/>
<path d="M781.415 503.718H833.946V553.373H823.638V531.001C821.19 538.276 816.53 544.097 809.658 548.462C802.786 552.736 794.689 554.874 785.369 554.874C771.154 554.874 759.245 550.19 749.643 540.823C740.134 531.456 735.38 519.724 735.38 505.628C735.38 491.441 740.229 479.709 749.925 470.433C759.622 461.065 771.719 456.382 786.217 456.382C797.325 456.382 807.069 459.247 815.448 464.976C823.826 470.614 829.71 478.254 833.099 487.894H820.531C817.519 481.528 812.953 476.48 806.834 472.752C800.714 469.023 793.795 467.159 786.075 467.159C774.873 467.159 765.6 470.842 758.257 478.208C750.914 485.484 747.242 494.715 747.242 505.901C747.242 516.905 750.867 526.09 758.115 533.456C765.364 540.732 774.684 544.37 786.075 544.37C795.96 544.37 804.198 541.55 810.788 535.912C817.472 530.273 821.237 522.771 822.084 513.403H781.415V503.718Z" fill="#E2E2E2"/>
<path d="M857.937 553.373V457.882H869.658V553.373H857.937Z" fill="#E2E2E2"/>
<path d="M962.969 457.882H974.689V553.373H960.145L904.366 473.024L905.496 513.403V553.373H893.775V457.882H908.179L963.957 538.231L962.969 497.852V457.882Z" fill="#E2E2E2"/>
<path d="M1061.43 468.659H1010.46V498.943H1058.04V509.72H1010.46V542.596H1061.43V553.373H998.735V457.882H1061.43V468.659Z" fill="#E2E2E2"/>
<path d="M1142.8 468.659H1091.82V498.943H1139.41V509.72H1091.82V542.596H1142.8V553.373H1080.1V457.882H1142.8V468.659Z" fill="#E2E2E2"/>
<path d="M1223.86 553.373L1192.94 516.405H1173.73V553.373H1162.01V457.882H1201.13C1211.77 457.882 1220 460.611 1225.84 466.067C1231.68 471.433 1234.59 478.527 1234.59 487.348C1234.59 495.351 1232.15 501.899 1227.25 506.992C1222.45 512.085 1215.63 515.131 1206.78 516.132L1238.41 553.373H1223.86ZM1173.73 468.659V506.31H1200C1207.53 506.31 1213.18 504.582 1216.94 501.126C1220.8 497.579 1222.73 492.987 1222.73 487.348C1222.73 481.801 1220.8 477.299 1216.94 473.843C1213.08 470.387 1207.43 468.659 1200 468.659H1173.73Z" fill="#E2E2E2"/>
<path d="M1254.54 553.373V457.882H1266.26V553.373H1254.54Z" fill="#E2E2E2"/>
<path d="M1359.58 457.882H1371.3V553.373H1356.75L1300.97 473.024L1302.1 513.403V553.373H1290.38V457.882H1304.79L1360.56 538.231L1359.58 497.852V457.882Z" fill="#E2E2E2"/>
<path d="M1437.14 503.718H1489.67V553.373H1479.36V531.001C1476.92 538.276 1472.26 544.097 1465.38 548.462C1458.51 552.736 1450.42 554.874 1441.1 554.874C1426.88 554.874 1414.97 550.19 1405.37 540.823C1395.86 531.456 1391.11 519.724 1391.11 505.628C1391.11 491.441 1395.95 479.709 1405.65 470.433C1415.35 461.065 1427.44 456.382 1441.94 456.382C1453.05 456.382 1462.79 459.247 1471.17 464.976C1479.55 470.614 1485.44 478.254 1488.82 487.894H1476.26C1473.24 481.528 1468.68 476.48 1462.56 472.752C1456.44 469.023 1449.52 467.159 1441.8 467.159C1430.6 467.159 1421.33 470.842 1413.98 478.208C1406.64 485.484 1402.97 494.715 1402.97 505.901C1402.97 516.905 1406.59 526.09 1413.84 533.456C1421.09 540.732 1430.41 544.37 1441.8 544.37C1451.69 544.37 1459.92 541.55 1466.51 535.912C1473.2 530.273 1476.96 522.771 1477.81 513.403H1437.14V503.718Z" fill="#E2E2E2"/>
<path d="M288.075 368.987H314.192V529.512H480.287V235.163L297.633 114.886L95.7494 235.163L98.4401 529.512H190.648V555.385H111.235H73V220.824L297.633 87L507.929 220.824V555.385H288.075V368.987Z" fill="#E2E2E2"/>
<path d="M288.263 323.789V349.718H314.192V323.789H288.263Z" fill="#B5773E"/>
</svg>
