<svg width="145" height="47" viewBox="0 0 145 47" fill="none" xmlns="http://www.w3.org/2000/svg">
<path d="M71.7625 22.4444C71.8113 22.4444 71.8358 22.4907 71.8358 22.5833C71.8358 22.6759 71.8113 22.7222 71.7625 22.7222C71.2575 22.7222 70.8665 22.7145 70.5896 22.6991L68.9524 22.6759L67.2664 22.6991C66.9895 22.7145 66.6067 22.7222 66.118 22.7222C66.0691 22.7222 66.0447 22.6759 66.0447 22.5833C66.0447 22.4907 66.0691 22.4444 66.118 22.4444C66.7696 22.4444 67.242 22.4059 67.5352 22.3287C67.8284 22.2515 68.0239 22.1049 68.1216 21.8889C68.2357 21.6728 68.2927 21.3256 68.2927 20.8472V15.4074H58.5431V20.8472C58.5431 21.3256 58.592 21.6728 58.6897 21.8889C58.8037 22.1049 59.0074 22.2515 59.3006 22.3287C59.5938 22.4059 60.0662 22.4444 60.7178 22.4444C60.7504 22.4444 60.7667 22.4907 60.7667 22.5833C60.7667 22.6759 60.7504 22.7222 60.7178 22.7222C60.2291 22.7222 59.8381 22.7145 59.5449 22.6991L57.8833 22.6759L56.2706 22.6991C55.9774 22.7145 55.5702 22.7222 55.0489 22.7222C55.0163 22.7222 55 22.6759 55 22.5833C55 22.4907 55.0163 22.4444 55.0489 22.4444C55.6842 22.4444 56.1484 22.4059 56.4417 22.3287C56.7512 22.2515 56.963 22.1049 57.077 21.8889C57.191 21.6574 57.248 21.3102 57.248 20.8472V10.1296C57.248 9.66667 57.191 9.32716 57.077 9.11111C56.9792 8.89506 56.7756 8.74846 56.4661 8.6713C56.1729 8.5787 55.7086 8.53241 55.0733 8.53241C55.0407 8.53241 55.0244 8.48611 55.0244 8.39352C55.0244 8.30093 55.0407 8.25463 55.0733 8.25463L56.2706 8.27778C56.9548 8.30864 57.4924 8.32407 57.8833 8.32407C58.3232 8.32407 58.8852 8.30864 59.5694 8.27778L60.7178 8.25463C60.7504 8.25463 60.7667 8.30093 60.7667 8.39352C60.7667 8.48611 60.7504 8.53241 60.7178 8.53241C60.0825 8.53241 59.6101 8.5787 59.3006 8.6713C59.0074 8.76389 58.8037 8.92593 58.6897 9.15741C58.592 9.37346 58.5431 9.71296 58.5431 10.1759V14.9676H68.2927V10.1759C68.2927 9.71296 68.2357 9.37346 68.1216 9.15741C68.0239 8.92593 67.8203 8.76389 67.5108 8.6713C67.2175 8.5787 66.7533 8.53241 66.118 8.53241C66.0691 8.53241 66.0447 8.48611 66.0447 8.39352C66.0447 8.30093 66.0691 8.25463 66.118 8.25463L67.2664 8.27778C67.9506 8.30864 68.5126 8.32407 68.9524 8.32407C69.3597 8.32407 69.9054 8.30864 70.5896 8.27778L71.7625 8.25463C71.8113 8.25463 71.8358 8.30093 71.8358 8.39352C71.8358 8.48611 71.8113 8.53241 71.7625 8.53241C71.1272 8.53241 70.6548 8.5787 70.3452 8.6713C70.052 8.74846 69.8484 8.89506 69.7344 9.11111C69.6203 9.32716 69.5633 9.66667 69.5633 10.1296V20.8472C69.5633 21.3102 69.6203 21.6574 69.7344 21.8889C69.8484 22.1049 70.052 22.2515 70.3452 22.3287C70.6548 22.4059 71.1272 22.4444 71.7625 22.4444Z" fill="#E2E2E2"/>
<path d="M77.378 20.8472C77.378 21.3256 77.4268 21.6728 77.5246 21.8889C77.6386 22.1049 77.8422 22.2515 78.1355 22.3287C78.4287 22.4059 78.9011 22.4444 79.5527 22.4444C79.5853 22.4444 79.6016 22.4907 79.6016 22.5833C79.6016 22.6759 79.5853 22.7222 79.5527 22.7222C79.064 22.7222 78.6812 22.7145 78.4042 22.6991L76.6938 22.6759L75.0566 22.6991C74.7634 22.7145 74.3643 22.7222 73.8593 22.7222C73.8104 22.7222 73.786 22.6759 73.786 22.5833C73.786 22.4907 73.8104 22.4444 73.8593 22.4444C74.4946 22.4444 74.9589 22.4059 75.2521 22.3287C75.5616 22.2515 75.7734 22.1049 75.8874 21.8889C76.0015 21.6574 76.0585 21.3102 76.0585 20.8472V10.1296C76.0585 9.66667 76.0015 9.32716 75.8874 9.11111C75.7734 8.89506 75.5616 8.74846 75.2521 8.6713C74.9589 8.5787 74.4946 8.53241 73.8593 8.53241C73.8104 8.53241 73.786 8.48611 73.786 8.39352C73.786 8.30093 73.8104 8.25463 73.8593 8.25463L75.0566 8.27778C75.7408 8.30864 76.2865 8.32407 76.6938 8.32407C77.1499 8.32407 77.7201 8.30864 78.4042 8.27778L79.5527 8.25463C79.5853 8.25463 79.6016 8.30093 79.6016 8.39352C79.6016 8.48611 79.5853 8.53241 79.5527 8.53241C78.9174 8.53241 78.445 8.5787 78.1355 8.6713C77.8422 8.76389 77.6386 8.92593 77.5246 9.15741C77.4268 9.37346 77.378 9.71296 77.378 10.1759V20.8472Z" fill="#E2E2E2"/>
<path d="M81.5338 16.4954C81.485 16.5108 81.4361 16.4259 81.3872 16.2407C81.3547 16.0556 81.3384 15.8858 81.3384 15.7315C81.3384 15.5926 81.3547 15.5231 81.3872 15.5231L88.8888 14.4352C88.9377 14.4198 88.9784 14.4969 89.011 14.6667C89.0599 14.8364 89.0843 14.9985 89.0843 15.1528C89.0843 15.3225 89.0599 15.4074 89.011 15.4074L81.5338 16.4954Z" fill="#E2E2E2"/>
<path d="M96.9337 22.8148C96.4613 22.8148 95.9318 22.7917 95.3454 22.7454C95.1173 22.7299 94.8323 22.7145 94.4902 22.6991C94.1644 22.6836 93.7978 22.6759 93.3906 22.6759L91.7779 22.6991C91.4847 22.7145 91.0774 22.7222 90.5561 22.7222C90.5235 22.7222 90.5072 22.6759 90.5072 22.5833C90.5072 22.4907 90.5235 22.4444 90.5561 22.4444C91.1914 22.4444 91.6557 22.4059 91.9489 22.3287C92.2584 22.2515 92.4702 22.1049 92.5842 21.8889C92.6983 21.6574 92.7553 21.3102 92.7553 20.8472V10.1296C92.7553 9.66667 92.6983 9.32716 92.5842 9.11111C92.4865 8.89506 92.2829 8.74846 91.9734 8.6713C91.6801 8.5787 91.2159 8.53241 90.5806 8.53241C90.548 8.53241 90.5317 8.48611 90.5317 8.39352C90.5317 8.30093 90.548 8.25463 90.5806 8.25463L91.7779 8.27778C92.4621 8.30864 92.9996 8.32407 93.3906 8.32407C93.9607 8.32407 94.539 8.30093 95.1255 8.25463C95.8422 8.22377 96.3309 8.20833 96.5916 8.20833C98.302 8.20833 99.817 8.51698 101.137 9.13426C102.456 9.75154 103.474 10.5926 104.191 11.6574C104.924 12.7222 105.29 13.9182 105.29 15.2454C105.29 16.7423 104.908 18.0694 104.142 19.2269C103.393 20.3688 102.383 21.2562 101.112 21.8889C99.8415 22.5062 98.4487 22.8148 96.9337 22.8148ZM96.6893 22.5139C98.0577 22.5139 99.2713 22.2515 100.33 21.7269C101.389 21.2022 102.212 20.4306 102.798 19.412C103.401 18.3935 103.702 17.1744 103.702 15.7546C103.702 14.3966 103.417 13.1698 102.847 12.0741C102.293 10.9784 101.487 10.1142 100.428 9.48148C99.3853 8.83333 98.1799 8.50926 96.8115 8.50926C96.0947 8.50926 95.5409 8.54784 95.1499 8.625C94.7752 8.70216 94.4983 8.8642 94.3191 9.11111C94.1399 9.34259 94.0503 9.69753 94.0503 10.1759V20.5926C94.0503 21.0556 94.1236 21.4259 94.2703 21.7037C94.4169 21.9815 94.6775 22.1898 95.0522 22.3287C95.4268 22.4522 95.9726 22.5139 96.6893 22.5139Z" fill="#E2E2E2"/>
<path d="M115.443 23C113.928 23 112.576 22.6682 111.386 22.0046C110.214 21.3256 109.301 20.4151 108.65 19.2731C108.014 18.1157 107.697 16.858 107.697 15.5C107.697 13.9105 108.12 12.5525 108.967 11.4259C109.814 10.284 110.898 9.42747 112.217 8.85648C113.553 8.28549 114.913 8 116.298 8C117.845 8 119.206 8.34722 120.379 9.04167C121.551 9.72068 122.447 10.6235 123.066 11.75C123.702 12.8765 124.019 14.0725 124.019 15.338C124.019 16.7423 123.628 18.0309 122.847 19.2037C122.065 20.3765 121.014 21.3025 119.694 21.9815C118.391 22.6605 116.974 23 115.443 23ZM116.322 22.537C117.479 22.537 118.522 22.2824 119.45 21.7731C120.379 21.2639 121.112 20.5154 121.649 19.5278C122.187 18.5401 122.456 17.3596 122.456 15.9861C122.456 14.5355 122.154 13.2469 121.551 12.1204C120.965 10.9784 120.126 10.091 119.035 9.45833C117.96 8.82562 116.705 8.50926 115.272 8.50926C113.382 8.50926 111.908 9.06481 110.849 10.1759C109.79 11.287 109.261 12.7994 109.261 14.713C109.261 16.1481 109.554 17.4676 110.14 18.6713C110.743 19.8596 111.582 20.8009 112.657 21.4954C113.732 22.1898 114.954 22.537 116.322 22.537Z" fill="#E2E2E2"/>
<path d="M144.927 22.4444C144.976 22.4444 145 22.4907 145 22.5833C145 22.6759 144.976 22.7222 144.927 22.7222C144.422 22.7222 144.023 22.7145 143.729 22.6991L142.092 22.6759L140.577 22.6991C140.333 22.7145 139.991 22.7222 139.551 22.7222C139.518 22.7222 139.502 22.6759 139.502 22.5833C139.502 22.4907 139.518 22.4444 139.551 22.4444C140.121 22.4444 140.537 22.4059 140.797 22.3287C141.074 22.2361 141.253 22.0818 141.335 21.8657C141.432 21.6497 141.465 21.3102 141.432 20.8472L141.017 10.0833L135.299 22.5602C135.267 22.6219 135.202 22.6528 135.104 22.6528C135.022 22.6528 134.949 22.6219 134.884 22.5602L128.922 10.1759L128.897 10.1296L128.702 20.3148C128.686 21.1173 128.824 21.6728 129.117 21.9815C129.41 22.2901 129.956 22.4444 130.754 22.4444C130.787 22.4444 130.803 22.4907 130.803 22.5833C130.803 22.6759 130.787 22.7222 130.754 22.7222C130.298 22.7222 129.948 22.7145 129.704 22.6991L128.384 22.6759L127.187 22.6991C126.975 22.7145 126.657 22.7222 126.234 22.7222C126.201 22.7222 126.185 22.6759 126.185 22.5833C126.185 22.4907 126.201 22.4444 126.234 22.4444C126.918 22.4444 127.399 22.2901 127.676 21.9815C127.969 21.6574 128.123 21.1019 128.14 20.3148L128.384 9.34259C127.879 8.80247 127.219 8.53241 126.405 8.53241C126.372 8.53241 126.356 8.48611 126.356 8.39352C126.356 8.30093 126.372 8.25463 126.405 8.25463L127.236 8.27778C127.399 8.29321 127.61 8.30093 127.871 8.30093C128.132 8.30093 128.352 8.29321 128.531 8.27778C128.71 8.26235 128.848 8.25463 128.946 8.25463C129.174 8.25463 129.353 8.33179 129.484 8.48611C129.614 8.625 129.81 8.94907 130.07 9.45833L135.568 20.7083L141.042 8.83333C141.123 8.66358 141.229 8.52469 141.359 8.41667C141.506 8.30864 141.644 8.25463 141.775 8.25463C141.84 8.25463 141.946 8.26235 142.092 8.27778C142.239 8.29321 142.442 8.30093 142.703 8.30093L143.803 8.27778C143.966 8.26235 144.218 8.25463 144.56 8.25463C144.593 8.25463 144.609 8.30093 144.609 8.39352C144.609 8.48611 144.593 8.53241 144.56 8.53241C143.713 8.53241 143.11 8.64043 142.752 8.85648C142.41 9.0571 142.247 9.46605 142.263 10.0833L142.728 20.8472C142.744 21.3256 142.801 21.6728 142.899 21.8889C143.013 22.1049 143.216 22.2515 143.509 22.3287C143.819 22.4059 144.291 22.4444 144.927 22.4444Z" fill="#E2E2E2"/>
<path d="M62.8482 46.7299C62.3447 46.7299 61.7806 46.7037 61.1556 46.6515C60.9126 46.634 60.6088 46.6166 60.2443 46.5992C59.8971 46.5818 59.5065 46.573 59.0726 46.573L57.354 46.5992C57.0415 46.6166 56.6076 46.6253 56.0521 46.6253C56.0174 46.6253 56 46.573 56 46.4685C56 46.3639 56.0174 46.3116 56.0521 46.3116C56.7291 46.3116 57.2238 46.2681 57.5363 46.1809C57.8661 46.0938 58.0918 45.9282 58.2133 45.6843C58.3348 45.4229 58.3956 45.0308 58.3956 44.5079V32.4049C58.3956 31.8821 58.3348 31.4987 58.2133 31.2547C58.1091 31.0108 57.8921 30.8452 57.5623 30.7581C57.2499 30.6535 56.7551 30.6012 56.0781 30.6012C56.0434 30.6012 56.026 30.5489 56.026 30.4444C56.026 30.3398 56.0434 30.2875 56.0781 30.2875L57.354 30.3137C58.0831 30.3485 58.6559 30.366 59.0726 30.366C59.6801 30.366 60.2964 30.3398 60.9213 30.2875C61.6851 30.2527 62.2059 30.2353 62.4836 30.2353C64.3063 30.2353 65.9207 30.5838 67.3268 31.2809C68.7329 31.978 69.8178 32.9277 70.5816 34.1302C71.3628 35.3327 71.7534 36.6832 71.7534 38.182C71.7534 39.8724 71.3454 41.3711 70.5295 42.6781C69.731 43.9677 68.6548 44.9698 67.3008 45.6843C65.9468 46.3813 64.4626 46.7299 62.8482 46.7299ZM62.5878 46.3901C64.0459 46.3901 65.3392 46.0938 66.4675 45.5013C67.5959 44.9088 68.4725 44.0374 69.0974 42.8872C69.7397 41.7371 70.0609 40.3603 70.0609 38.757C70.0609 37.2235 69.7571 35.838 69.1495 34.6007C68.5593 33.3634 67.7 32.3875 66.5717 31.673C65.4607 30.9411 64.1761 30.5751 62.718 30.5751C61.9542 30.5751 61.364 30.6187 60.9473 30.7058C60.5481 30.7929 60.253 30.9759 60.062 31.2547C59.8711 31.5161 59.7756 31.917 59.7756 32.4572V44.2204C59.7756 44.7432 59.8537 45.1615 60.0099 45.4751C60.1662 45.7888 60.4439 46.0241 60.8432 46.1809C61.2424 46.3203 61.824 46.3901 62.5878 46.3901Z" fill="#E2E2E2"/>
<path d="M85.2798 42.8088C85.2798 42.7565 85.3319 42.7391 85.436 42.7565C85.5402 42.7565 85.5923 42.7827 85.5923 42.835C85.4361 43.9329 85.3579 45.0656 85.3579 46.2332C85.3579 46.3726 85.3232 46.4772 85.2538 46.5469C85.2017 46.5992 85.0975 46.6253 84.9413 46.6253H74.1874C74.1526 46.6253 74.1353 46.573 74.1353 46.4685C74.1353 46.3639 74.1526 46.3116 74.1874 46.3116C74.8644 46.3116 75.3591 46.2681 75.6716 46.1809C76.0014 46.0938 76.2184 45.9282 76.3225 45.6843C76.444 45.4229 76.5048 45.0308 76.5048 44.5079V32.4049C76.5048 31.8821 76.444 31.4987 76.3225 31.2547C76.2184 31.0108 76.0014 30.8452 75.6716 30.7581C75.3591 30.6535 74.8644 30.6012 74.1874 30.6012C74.1526 30.6012 74.1353 30.5489 74.1353 30.4444C74.1353 30.3398 74.1526 30.2875 74.1874 30.2875H84.4987C84.6549 30.2875 84.733 30.366 84.733 30.5228L84.7851 33.6858C84.7851 33.7381 84.733 33.7642 84.6289 33.7642C84.5421 33.7642 84.4987 33.7381 84.4987 33.6858C84.4987 32.797 84.2643 32.0912 83.7956 31.5684C83.3269 31.0456 82.7107 30.7842 81.9469 30.7842H80.1502C79.4906 30.7842 79.0045 30.8278 78.692 30.9149C78.3796 31.0021 78.1626 31.1676 78.0411 31.4116C77.9369 31.6556 77.8848 32.039 77.8848 32.5618V37.8683H81.3219C82.1205 37.8683 82.676 37.7376 82.9884 37.4762C83.3009 37.1973 83.4571 36.7268 83.4571 36.0646C83.4571 36.0297 83.5092 36.0123 83.6133 36.0123C83.7175 36.0123 83.7696 36.0297 83.7696 36.0646L83.7435 38.1297C83.7435 38.6351 83.7522 39.0097 83.7696 39.2537L83.7956 40.4823C83.7956 40.5172 83.7435 40.5346 83.6394 40.5346C83.5352 40.5346 83.4832 40.5172 83.4832 40.4823C83.4832 39.6981 83.3182 39.1492 82.9884 38.8355C82.6586 38.5218 82.0771 38.3649 81.2438 38.3649H77.8848V44.4034C77.8848 44.9088 77.9369 45.2834 78.0411 45.5274C78.1626 45.754 78.3709 45.9108 78.666 45.998C78.9785 46.0851 79.4732 46.1287 80.1502 46.1287H82.5458C83.2401 46.1287 83.8303 45.8237 84.3164 45.2137C84.8198 44.6038 85.1409 43.8022 85.2798 42.8088Z" fill="#E2E2E2"/>
<path d="M90.5189 33.4505C90.5189 34.1476 90.6838 34.7488 91.0136 35.2542C91.3434 35.7596 91.7427 36.1866 92.2114 36.5351C92.6974 36.8662 93.3658 37.2845 94.2164 37.7899C95.119 38.3301 95.8134 38.7832 96.2994 39.1492C96.8029 39.4977 97.2282 39.9508 97.5753 40.5085C97.9399 41.0661 98.1221 41.7371 98.1221 42.5213C98.1221 43.3403 97.9225 44.0897 97.5233 44.7694C97.124 45.4316 96.5251 45.9631 95.7266 46.3639C94.9454 46.7473 93.982 46.939 92.8363 46.939C92.2287 46.939 91.6472 46.8693 91.0917 46.7299C90.5536 46.6079 89.9547 46.3813 89.2951 46.0502C89.2083 45.998 89.1475 45.937 89.1128 45.8672C89.0954 45.7975 89.0781 45.693 89.0607 45.5536L88.6701 42.1553V42.1292C88.6701 42.0595 88.7135 42.0246 88.8003 42.0246C88.8871 42.0072 88.9392 42.0333 88.9566 42.103C89.1301 43.3055 89.5902 44.3511 90.3366 45.2399C91.083 46.1287 92.1072 46.573 93.4092 46.573C94.3292 46.573 95.1017 46.3203 95.7266 45.815C96.3689 45.3096 96.69 44.5167 96.69 43.4362C96.69 42.652 96.5164 41.981 96.1692 41.4234C95.8221 40.8483 95.3968 40.3778 94.8934 40.0118C94.4073 39.6284 93.739 39.184 92.8884 38.6786C92.0551 38.1907 91.3955 37.7637 90.9094 37.3977C90.4408 37.0318 90.0328 36.5787 89.6856 36.0384C89.3558 35.4808 89.1909 34.8186 89.1909 34.0518C89.1909 33.1804 89.4079 32.4398 89.8419 31.8298C90.2932 31.2199 90.8747 30.7668 91.5865 30.4705C92.2982 30.1568 93.062 30 93.8778 30C94.8326 30 95.8221 30.2091 96.8463 30.6274C97.1066 30.7319 97.2368 30.8801 97.2368 31.0718L97.4712 33.8426C97.4712 33.9124 97.4191 33.9472 97.3149 33.9472C97.2282 33.9472 97.1761 33.9124 97.1587 33.8426C97.0893 32.9364 96.7508 32.1261 96.1432 31.4116C95.5356 30.6971 94.6677 30.3398 93.5393 30.3398C92.4978 30.3398 91.734 30.6448 91.2479 31.2547C90.7619 31.8647 90.5189 32.5966 90.5189 33.4505Z" fill="#E2E2E2"/>
<path d="M104.563 44.5079C104.563 45.0482 104.615 45.4403 104.719 45.6843C104.841 45.9282 105.058 46.0938 105.37 46.1809C105.682 46.2681 106.186 46.3116 106.88 46.3116C106.915 46.3116 106.932 46.3639 106.932 46.4685C106.932 46.573 106.915 46.6253 106.88 46.6253C106.36 46.6253 105.952 46.6166 105.656 46.5992L103.834 46.573L102.089 46.5992C101.777 46.6166 101.351 46.6253 100.813 46.6253C100.761 46.6253 100.735 46.573 100.735 46.4685C100.735 46.3639 100.761 46.3116 100.813 46.3116C101.49 46.3116 101.985 46.2681 102.297 46.1809C102.627 46.0938 102.853 45.9282 102.974 45.6843C103.096 45.4229 103.157 45.0308 103.157 44.5079V32.4049C103.157 31.8821 103.096 31.4987 102.974 31.2547C102.853 31.0108 102.627 30.8452 102.297 30.7581C101.985 30.6535 101.49 30.6012 100.813 30.6012C100.761 30.6012 100.735 30.5489 100.735 30.4444C100.735 30.3398 100.761 30.2875 100.813 30.2875L102.089 30.3137C102.818 30.3485 103.4 30.366 103.834 30.366C104.32 30.366 104.927 30.3485 105.656 30.3137L106.88 30.2875C106.915 30.2875 106.932 30.3398 106.932 30.4444C106.932 30.5489 106.915 30.6012 106.88 30.6012C106.203 30.6012 105.7 30.6535 105.37 30.7581C105.058 30.8626 104.841 31.0456 104.719 31.307C104.615 31.551 104.563 31.9344 104.563 32.4572V44.5079Z" fill="#E2E2E2"/>
<path d="M118.678 46.939C116.786 46.939 115.137 46.573 113.73 45.8411C112.342 45.1092 111.274 44.1158 110.528 42.8611C109.799 41.6064 109.434 40.2035 109.434 38.6525C109.434 36.9621 109.859 35.4634 110.71 34.1563C111.578 32.8493 112.758 31.8298 114.251 31.0979C115.761 30.366 117.463 30 119.355 30C120.205 30 121.004 30.0871 121.75 30.2614C122.514 30.4357 123.148 30.6797 123.651 30.9933C123.773 31.0805 123.842 31.1589 123.859 31.2286C123.894 31.2809 123.912 31.3506 123.912 31.4377C123.929 31.5074 123.938 31.5597 123.938 31.5946L124.25 34.3393C124.25 34.3916 124.198 34.4264 124.094 34.4439C124.007 34.4439 123.955 34.4177 123.938 34.3655C123.608 33.1281 122.957 32.1871 121.985 31.5423C121.013 30.8801 119.78 30.5489 118.287 30.5489C115.996 30.5489 114.217 31.185 112.949 32.4572C111.682 33.7294 111.048 35.4895 111.048 37.7376C111.048 39.4106 111.404 40.918 112.116 42.2599C112.828 43.5843 113.809 44.6212 115.058 45.3706C116.326 46.1199 117.74 46.4946 119.303 46.4946C120.24 46.4946 120.961 46.4162 121.464 46.2594C121.985 46.1025 122.358 45.7975 122.584 45.3444C122.827 44.8913 122.948 44.2204 122.948 43.3316C122.948 42.4254 122.887 41.7981 122.766 41.4495C122.644 41.0835 122.384 40.8396 121.985 40.7176C121.585 40.5956 120.891 40.5346 119.902 40.5346C119.797 40.5346 119.745 40.4649 119.745 40.3255C119.745 40.2732 119.754 40.2296 119.771 40.1948C119.806 40.1425 119.841 40.1164 119.876 40.1164C121.212 40.2035 122.288 40.2471 123.104 40.2471C123.886 40.2471 124.719 40.2209 125.604 40.1686C125.639 40.1686 125.665 40.1948 125.682 40.2471C125.717 40.2819 125.734 40.3168 125.734 40.3516C125.734 40.4736 125.691 40.5346 125.604 40.5346C125.153 40.5172 124.832 40.5782 124.641 40.7176C124.45 40.8396 124.328 41.101 124.276 41.5018C124.224 41.9026 124.198 42.5997 124.198 43.593C124.198 44.3772 124.224 44.9349 124.276 45.266C124.346 45.5971 124.38 45.8063 124.38 45.8934C124.38 45.9979 124.363 46.0677 124.328 46.1025C124.293 46.1374 124.215 46.1722 124.094 46.2071C122.063 46.695 120.257 46.939 118.678 46.939Z" fill="#E2E2E2"/>
<path d="M144.922 30.2875C144.974 30.2875 145 30.3398 145 30.4444C145 30.5489 144.974 30.6012 144.922 30.6012C144.175 30.6012 143.646 30.7842 143.334 31.1502C143.038 31.5161 142.891 32.1435 142.891 33.0323V46.9129C142.891 46.9477 142.847 46.9739 142.761 46.9913C142.674 47.0087 142.613 47 142.578 46.9651L130.809 32.4311L130.366 31.9344V43.9067C130.366 44.7955 130.514 45.4229 130.809 45.7888C131.104 46.1374 131.616 46.3116 132.345 46.3116C132.397 46.3116 132.423 46.3639 132.423 46.4685C132.423 46.573 132.397 46.6253 132.345 46.6253C131.929 46.6253 131.607 46.6166 131.382 46.5992L130.132 46.573L128.856 46.5992C128.63 46.6166 128.292 46.6253 127.841 46.6253C127.806 46.6253 127.788 46.573 127.788 46.4685C127.788 46.3639 127.806 46.3116 127.841 46.3116C128.587 46.3116 129.099 46.1374 129.377 45.7888C129.655 45.4403 129.793 44.8129 129.793 43.9067V31.3854C129.186 30.8626 128.561 30.6012 127.919 30.6012C127.867 30.6012 127.841 30.5489 127.841 30.4444C127.841 30.3398 127.867 30.2875 127.919 30.2875L128.856 30.3137C129.047 30.3311 129.316 30.3398 129.663 30.3398C129.958 30.3398 130.201 30.3311 130.392 30.3137C130.583 30.2963 130.731 30.2875 130.835 30.2875C130.957 30.2875 131.052 30.3224 131.121 30.3921C131.208 30.4444 131.304 30.5664 131.408 30.7581C131.599 31.0718 131.807 31.368 132.033 31.6468L142.318 44.4818V33.0323C142.318 32.1435 142.179 31.5161 141.901 31.1502C141.624 30.7842 141.12 30.6012 140.391 30.6012C140.356 30.6012 140.339 30.5489 140.339 30.4444C140.339 30.3398 140.356 30.2875 140.391 30.2875L141.381 30.3137C141.901 30.3485 142.318 30.366 142.63 30.366C142.926 30.366 143.351 30.3485 143.906 30.3137L144.922 30.2875Z" fill="#E2E2E2"/>
<path d="M21.2637 27.6939H25.044V42.2449H39.2198V14.551L22.2088 4.22449L3.78022 15.0204V42.2449H11.6314V46H3.78022H0V13.1429L22.2088 0L43 13.1429V46H21.2637V27.6939Z" fill="#E2E2E2"/>
<path d="M21 21V25H25V21H21Z" fill="#B5773E"/>
</svg>
