<svg width="257" height="80" viewBox="0 0 257 80" fill="none" xmlns="http://www.w3.org/2000/svg">
<path d="M37.3272 48.1633H41.7881V75.5809H70.157V25.3061L38.9599 4.76298L4.47811 25.3061L4.9377 75.5809H20.6867V80H7.12314H0.592529V22.8571L38.9599 0L74.8782 22.8571V80H37.3272V48.1633Z" fill="#E2E2E2"/>
<path d="M37.3596 40.4434V44.8721H41.7884V40.4434H37.3596Z" fill="#B5773E"/>
<path d="M120.131 56.655C120.222 56.655 120.268 56.7454 120.268 56.9263C120.268 57.1072 120.222 57.1976 120.131 57.1976C119.191 57.1976 118.463 57.1825 117.947 57.1524L114.898 57.1072L111.758 57.1524C111.243 57.1825 110.53 57.1976 109.62 57.1976C109.529 57.1976 109.483 57.1072 109.483 56.9263C109.483 56.7454 109.529 56.655 109.62 56.655C110.833 56.655 111.713 56.5796 112.259 56.4289C112.805 56.2782 113.169 55.9918 113.351 55.5697C113.563 55.1477 113.669 54.4694 113.669 53.5349V42.9087H95.5132V53.5349C95.5132 54.4694 95.6042 55.1477 95.7862 55.5697C95.9986 55.9918 96.3778 56.2782 96.9238 56.4289C97.4699 56.5796 98.3496 56.655 99.5631 56.655C99.6237 56.655 99.6541 56.7454 99.6541 56.9263C99.6541 57.1072 99.6237 57.1976 99.5631 57.1976C98.653 57.1976 97.9249 57.1825 97.3789 57.1524L94.2846 57.1072L91.2813 57.1524C90.7352 57.1825 89.9768 57.1976 89.006 57.1976C88.9454 57.1976 88.915 57.1072 88.915 56.9263C88.915 56.7454 88.9454 56.655 89.006 56.655C90.1892 56.655 91.0537 56.5796 91.5998 56.4289C92.1762 56.2782 92.5706 55.9918 92.7829 55.5697C92.9953 55.1176 93.1014 54.4393 93.1014 53.5349V32.599C93.1014 31.6947 92.9953 31.0315 92.7829 30.6094C92.6009 30.1874 92.2217 29.901 91.6453 29.7503C91.0993 29.5694 90.2347 29.479 89.0516 29.479C88.9909 29.479 88.9605 29.3885 88.9605 29.2077C88.9605 29.0268 88.9909 28.9364 89.0516 28.9364L91.2813 28.9816C92.5554 29.0419 93.5565 29.072 94.2846 29.072C95.1036 29.072 96.1502 29.0419 97.4244 28.9816L99.5631 28.9364C99.6237 28.9364 99.6541 29.0268 99.6541 29.2077C99.6541 29.3885 99.6237 29.479 99.5631 29.479C98.38 29.479 97.5002 29.5694 96.9238 29.7503C96.3778 29.9312 95.9986 30.2477 95.7862 30.6999C95.6042 31.1219 95.5132 31.7851 95.5132 32.6895V42.0496H113.669V32.6895C113.669 31.7851 113.563 31.1219 113.351 30.6999C113.169 30.2477 112.79 29.9312 112.213 29.7503C111.667 29.5694 110.803 29.479 109.62 29.479C109.529 29.479 109.483 29.3885 109.483 29.2077C109.483 29.0268 109.529 28.9364 109.62 28.9364L111.758 28.9816C113.032 29.0419 114.079 29.072 114.898 29.072C115.656 29.072 116.673 29.0419 117.947 28.9816L120.131 28.9364C120.222 28.9364 120.268 29.0268 120.268 29.2077C120.268 29.3885 120.222 29.479 120.131 29.479C118.948 29.479 118.068 29.5694 117.492 29.7503C116.946 29.901 116.567 30.1874 116.354 30.6094C116.142 31.0315 116.036 31.6947 116.036 32.599V53.5349C116.036 54.4393 116.142 55.1176 116.354 55.5697C116.567 55.9918 116.946 56.2782 117.492 56.4289C118.068 56.5796 118.948 56.655 120.131 56.655Z" fill="white"/>
<path d="M130.589 53.5349C130.589 54.4694 130.68 55.1477 130.862 55.5697C131.074 55.9918 131.453 56.2782 131.999 56.4289C132.545 56.5796 133.425 56.655 134.638 56.655C134.699 56.655 134.729 56.7454 134.729 56.9263C134.729 57.1072 134.699 57.1976 134.638 57.1976C133.728 57.1976 133.015 57.1825 132.5 57.1524L129.314 57.1072L126.266 57.1524C125.72 57.1825 124.976 57.1976 124.036 57.1976C123.945 57.1976 123.899 57.1072 123.899 56.9263C123.899 56.7454 123.945 56.655 124.036 56.655C125.219 56.655 126.084 56.5796 126.63 56.4289C127.206 56.2782 127.6 55.9918 127.813 55.5697C128.025 55.1176 128.131 54.4393 128.131 53.5349V32.599C128.131 31.6947 128.025 31.0315 127.813 30.6094C127.6 30.1874 127.206 29.901 126.63 29.7503C126.084 29.5694 125.219 29.479 124.036 29.479C123.945 29.479 123.899 29.3885 123.899 29.2077C123.899 29.0268 123.945 28.9364 124.036 28.9364L126.266 28.9816C127.54 29.0419 128.556 29.072 129.314 29.072C130.164 29.072 131.226 29.0419 132.5 28.9816L134.638 28.9364C134.699 28.9364 134.729 29.0268 134.729 29.2077C134.729 29.3885 134.699 29.479 134.638 29.479C133.455 29.479 132.576 29.5694 131.999 29.7503C131.453 29.9312 131.074 30.2477 130.862 30.6999C130.68 31.1219 130.589 31.7851 130.589 32.6895V53.5349Z" fill="white"/>
<path d="M138.328 45.034C138.237 45.0641 138.146 44.8983 138.055 44.5366C137.994 44.1748 137.964 43.8432 137.964 43.5418C137.964 43.2705 137.994 43.1348 138.055 43.1348L152.025 41.0096C152.116 40.9794 152.192 41.1301 152.252 41.4617C152.343 41.7933 152.389 42.1099 152.389 42.4113C152.389 42.7429 152.343 42.9087 152.252 42.9087L138.328 45.034Z" fill="white"/>
<path d="M167.006 57.3785C166.127 57.3785 165.141 57.3332 164.049 57.2428C163.624 57.2127 163.093 57.1825 162.456 57.1524C161.849 57.1222 161.167 57.1072 160.408 57.1072L157.405 57.1524C156.859 57.1825 156.1 57.1976 155.13 57.1976C155.069 57.1976 155.039 57.1072 155.039 56.9263C155.039 56.7454 155.069 56.655 155.13 56.655C156.313 56.655 157.177 56.5796 157.723 56.4289C158.3 56.2782 158.694 55.9918 158.907 55.5697C159.119 55.1176 159.225 54.4393 159.225 53.5349V32.599C159.225 31.6947 159.119 31.0315 158.907 30.6094C158.724 30.1874 158.345 29.901 157.769 29.7503C157.223 29.5694 156.358 29.479 155.175 29.479C155.114 29.479 155.084 29.3885 155.084 29.2077C155.084 29.0268 155.114 28.9364 155.175 28.9364L157.405 28.9816C158.679 29.0419 159.68 29.072 160.408 29.072C161.47 29.072 162.547 29.0268 163.639 28.9364C164.974 28.8761 165.884 28.8459 166.369 28.8459C169.555 28.8459 172.376 29.4488 174.833 30.6546C177.29 31.8605 179.186 33.5034 180.521 35.5834C181.886 37.6634 182.569 39.9997 182.569 42.5922C182.569 45.5163 181.856 48.1088 180.43 50.3697C179.035 52.6004 177.154 54.3338 174.788 55.5697C172.421 56.7756 169.828 57.3785 167.006 57.3785ZM166.551 56.7906C169.1 56.7906 171.36 56.2782 173.331 55.2532C175.303 54.2283 176.835 52.721 177.927 50.7314C179.05 48.7418 179.611 46.3603 179.611 43.587C179.611 40.9342 179.08 38.5376 178.018 36.3973C176.987 34.257 175.485 32.5689 173.513 31.3329C171.572 30.0668 169.327 29.4338 166.779 29.4338C165.444 29.4338 164.413 29.5091 163.684 29.6599C162.987 29.8106 162.471 30.1271 162.137 30.6094C161.804 31.0616 161.637 31.7549 161.637 32.6895V53.0375C161.637 53.9419 161.773 54.6654 162.046 55.208C162.319 55.7506 162.805 56.1576 163.502 56.4289C164.2 56.67 165.216 56.7906 166.551 56.7906Z" fill="white"/>
<path d="M201.475 57.7402C198.654 57.7402 196.136 57.0921 193.921 55.7958C191.737 54.4694 190.038 52.6909 188.825 50.4601C187.641 48.1992 187.05 45.7424 187.05 43.0896C187.05 39.9846 187.839 37.3318 189.416 35.1312C190.994 32.9005 193.011 31.2274 195.468 30.112C197.956 28.9967 200.489 28.439 203.067 28.439C205.949 28.439 208.483 29.1172 210.667 30.4738C212.851 31.8002 214.519 33.5637 215.672 35.7643C216.855 37.9649 217.447 40.3011 217.447 42.7731C217.447 45.5163 216.719 48.0334 215.263 50.3245C213.807 52.6155 211.85 54.4242 209.393 55.7506C206.966 57.077 204.326 57.7402 201.475 57.7402ZM203.113 56.8358C205.267 56.8358 207.208 56.3384 208.938 55.3437C210.667 54.3489 212.032 52.8868 213.033 50.9575C214.034 49.0282 214.535 46.7221 214.535 44.0392C214.535 41.2055 213.973 38.6884 212.851 36.4878C211.759 34.257 210.197 32.5237 208.164 31.2877C206.162 30.0517 203.826 29.4338 201.156 29.4338C197.637 29.4338 194.892 30.519 192.92 32.6895C190.948 34.8599 189.962 37.8142 189.962 41.5522C189.962 44.3557 190.508 46.9331 191.6 49.2844C192.723 51.6056 194.285 53.4445 196.287 54.801C198.29 56.1576 200.565 56.8358 203.113 56.8358Z" fill="white"/>
<path d="M256.382 56.655C256.473 56.655 256.518 56.7454 256.518 56.9263C256.518 57.1072 256.473 57.1976 256.382 57.1976C255.441 57.1976 254.698 57.1825 254.152 57.1524L251.103 57.1072L248.282 57.1524C247.827 57.1825 247.19 57.1976 246.371 57.1976C246.31 57.1976 246.28 57.1072 246.28 56.9263C246.28 56.7454 246.31 56.655 246.371 56.655C247.432 56.655 248.206 56.5796 248.691 56.4289C249.207 56.248 249.541 55.9466 249.692 55.5245C249.874 55.1025 249.935 54.4393 249.874 53.5349L249.101 32.5086L238.453 56.8811C238.392 57.0016 238.271 57.0619 238.089 57.0619C237.937 57.0619 237.801 57.0016 237.679 56.8811L226.576 32.6895L226.531 32.599L226.167 52.4949C226.136 54.0625 226.394 55.1477 226.94 55.7506C227.486 56.3535 228.503 56.655 229.989 56.655C230.05 56.655 230.08 56.7454 230.08 56.9263C230.08 57.1072 230.05 57.1976 229.989 57.1976C229.14 57.1976 228.487 57.1825 228.032 57.1524L225.575 57.1072L223.345 57.1524C222.951 57.1825 222.359 57.1976 221.571 57.1976C221.51 57.1976 221.48 57.1072 221.48 56.9263C221.48 56.7454 221.51 56.655 221.571 56.655C222.845 56.655 223.74 56.3535 224.255 55.7506C224.802 55.1176 225.09 54.0323 225.12 52.4949L225.575 31.0616C224.635 30.0065 223.406 29.479 221.889 29.479C221.829 29.479 221.798 29.3885 221.798 29.2077C221.798 29.0268 221.829 28.9364 221.889 28.9364L223.436 28.9816C223.74 29.0117 224.134 29.0268 224.62 29.0268C225.105 29.0268 225.514 29.0117 225.848 28.9816C226.182 28.9514 226.44 28.9364 226.622 28.9364C227.046 28.9364 227.38 29.0871 227.623 29.3885C227.865 29.6599 228.23 30.2929 228.715 31.2877L238.953 53.2636L249.146 30.0668C249.298 29.7352 249.495 29.4639 249.738 29.2529C250.011 29.0419 250.269 28.9364 250.512 28.9364C250.633 28.9364 250.83 28.9514 251.103 28.9816C251.376 29.0117 251.755 29.0268 252.241 29.0268L254.288 28.9816C254.592 28.9514 255.062 28.9364 255.699 28.9364C255.76 28.9364 255.79 29.0268 255.79 29.2077C255.79 29.3885 255.76 29.479 255.699 29.479C254.122 29.479 252.999 29.69 252.332 30.112C251.695 30.5039 251.391 31.3028 251.422 32.5086L252.286 53.5349C252.317 54.4694 252.423 55.1477 252.605 55.5697C252.817 55.9918 253.196 56.2782 253.742 56.4289C254.319 56.5796 255.198 56.655 256.382 56.655Z" fill="white"/>
<path d="M92.6069 75.7355C92.3355 75.7355 92.0314 75.7216 91.6945 75.6936C91.5634 75.6843 91.3997 75.675 91.2032 75.6657C91.016 75.6564 90.8054 75.6517 90.5715 75.6517L89.645 75.6657C89.4765 75.675 89.2426 75.6797 88.9431 75.6797C88.9244 75.6797 88.915 75.6517 88.915 75.5959C88.915 75.54 88.9244 75.5121 88.9431 75.5121C89.3081 75.5121 89.5748 75.4888 89.7433 75.4422C89.9211 75.3957 90.0427 75.3072 90.1082 75.1769C90.1737 75.0372 90.2065 74.8277 90.2065 74.5483V68.0817C90.2065 67.8024 90.1737 67.5975 90.1082 67.4672C90.0521 67.3368 89.9351 67.2484 89.7573 67.2018C89.5888 67.1459 89.3221 67.118 88.9572 67.118C88.9384 67.118 88.9291 67.0901 88.9291 67.0342C88.9291 66.9783 88.9384 66.9504 88.9572 66.9504L89.645 66.9644C90.038 66.983 90.3469 66.9923 90.5715 66.9923C90.899 66.9923 91.2312 66.9783 91.5681 66.9504C91.9799 66.9318 92.2606 66.9225 92.4104 66.9225C93.393 66.9225 94.2633 67.1087 95.0214 67.4811C95.7794 67.8536 96.3643 68.361 96.776 69.0035C97.1972 69.646 97.4077 70.3676 97.4077 71.1684C97.4077 72.0716 97.1878 72.8723 96.748 73.5707C96.3175 74.2597 95.7373 74.7951 95.0073 75.1769C94.2774 75.5493 93.4772 75.7355 92.6069 75.7355ZM92.4665 75.554C93.2526 75.554 93.9498 75.3957 94.5581 75.0791C95.1664 74.7625 95.639 74.2969 95.9759 73.6824C96.3222 73.0679 96.4953 72.3323 96.4953 71.4756C96.4953 70.6563 96.3315 69.916 96.004 69.2549C95.6858 68.5938 95.2226 68.0724 94.6143 67.6906C94.0153 67.2996 93.3228 67.104 92.5367 67.104C92.1249 67.104 91.8068 67.1273 91.5822 67.1739C91.3669 67.2204 91.2078 67.3182 91.1049 67.4672C91.0019 67.6068 90.9505 67.821 90.9505 68.1096V74.3947C90.9505 74.674 90.9926 74.8975 91.0768 75.0651C91.161 75.2327 91.3108 75.3584 91.526 75.4422C91.7413 75.5167 92.0548 75.554 92.4665 75.554Z" fill="white"/>
<path d="M103.128 74.9255C103.156 74.9255 103.179 74.9441 103.198 74.9813C103.226 75.0093 103.231 75.0372 103.212 75.0651C102.594 75.5865 101.925 75.8473 101.205 75.8473C100.662 75.8473 100.194 75.7216 99.8008 75.4702C99.4077 75.2188 99.113 74.8929 98.9164 74.4925C98.7199 74.0828 98.6216 73.6405 98.6216 73.1656C98.6216 72.607 98.7527 72.0995 99.0147 71.6432C99.2767 71.187 99.6323 70.8285 100.082 70.5678C100.54 70.2978 101.045 70.1628 101.598 70.1628C102.084 70.1628 102.463 70.2885 102.735 70.5399C103.006 70.782 103.142 71.1172 103.142 71.5455C103.142 71.6572 103.128 71.7364 103.1 71.7829C103.081 71.8295 103.039 71.8527 102.973 71.8527L99.492 71.8667C99.4452 72.1274 99.4218 72.3835 99.4218 72.6349C99.4218 73.4543 99.6183 74.12 100.011 74.6321C100.414 75.1443 100.961 75.4003 101.654 75.4003C102.206 75.4003 102.693 75.242 103.114 74.9255H103.128ZM101.12 70.4421C100.709 70.4421 100.367 70.5538 100.096 70.7773C99.8335 70.9915 99.6464 71.3034 99.5341 71.7131L102.299 71.6432C102.299 71.2615 102.192 70.9682 101.977 70.7633C101.761 70.5492 101.476 70.4421 101.12 70.4421Z" fill="white"/>
<path d="M105.139 71.1823C105.139 71.5269 105.247 71.7969 105.462 71.9924C105.677 72.1786 106.005 72.3788 106.444 72.593C106.763 72.7513 107.015 72.891 107.202 73.012C107.39 73.133 107.549 73.2913 107.68 73.4869C107.811 73.6731 107.876 73.9012 107.876 74.1712C107.876 74.6368 107.698 75.0325 107.343 75.3584C106.997 75.675 106.519 75.8333 105.911 75.8333C105.415 75.8333 104.975 75.689 104.591 75.4003C104.535 75.3631 104.507 75.3072 104.507 75.2327L104.479 74.2271C104.479 74.1992 104.503 74.1852 104.549 74.1852C104.605 74.1759 104.638 74.1852 104.648 74.2131C104.825 74.6787 105.05 75.0232 105.321 75.2467C105.602 75.4608 105.934 75.5679 106.318 75.5679C106.636 75.5679 106.88 75.4981 107.048 75.3584C107.216 75.2188 107.301 75.0139 107.301 74.7439C107.301 74.4739 107.24 74.2504 107.118 74.0735C107.006 73.8873 106.861 73.7383 106.683 73.6265C106.515 73.5148 106.281 73.3891 105.981 73.2494C105.672 73.1005 105.424 72.9701 105.237 72.8584C105.059 72.7373 104.905 72.579 104.774 72.3835C104.652 72.188 104.591 71.9459 104.591 71.6572C104.591 71.1637 104.779 70.782 105.153 70.5119C105.527 70.2419 105.967 70.1069 106.472 70.1069C106.819 70.1069 107.151 70.1767 107.469 70.3164C107.525 70.3443 107.558 70.3676 107.567 70.3862C107.586 70.4049 107.595 70.4328 107.595 70.47C107.595 70.6469 107.591 70.7866 107.581 70.889L107.567 71.4337C107.567 71.4524 107.539 71.4617 107.483 71.4617C107.427 71.4617 107.399 71.4524 107.399 71.4337C107.399 71.1358 107.245 70.889 106.936 70.6935C106.627 70.4887 106.299 70.3862 105.953 70.3862C105.7 70.3862 105.499 70.4561 105.349 70.5957C105.209 70.7261 105.139 70.9216 105.139 71.1823Z" fill="white"/>
<path d="M109.335 75.6797C109.316 75.6797 109.306 75.6517 109.306 75.5959C109.306 75.54 109.316 75.5121 109.335 75.5121C109.606 75.5121 109.802 75.4888 109.924 75.4422C110.055 75.3957 110.144 75.3072 110.191 75.1769C110.238 75.0372 110.261 74.8277 110.261 74.5483V71.9086C110.261 71.5641 110.224 71.3174 110.149 71.1684C110.083 71.0194 109.966 70.9449 109.798 70.9449C109.62 70.9449 109.395 71.0147 109.124 71.1544H109.11C109.073 71.1544 109.044 71.1311 109.026 71.0846C109.007 71.038 109.016 71.0054 109.054 70.9868L110.794 70.1767L110.851 70.1628C110.869 70.1628 110.888 70.1721 110.907 70.1907C110.935 70.2093 110.949 70.2326 110.949 70.2605C110.949 70.3164 110.944 70.5026 110.935 70.8192C110.925 71.1265 110.921 71.485 110.921 71.8947V74.5483C110.921 74.8277 110.94 75.0372 110.977 75.1769C111.024 75.3072 111.108 75.3957 111.23 75.4422C111.361 75.4888 111.562 75.5121 111.833 75.5121C111.861 75.5121 111.875 75.54 111.875 75.5959C111.875 75.6517 111.861 75.6797 111.833 75.6797C111.618 75.6797 111.45 75.675 111.328 75.6657L110.584 75.6517L109.854 75.6657C109.723 75.675 109.55 75.6797 109.335 75.6797ZM110.472 68.4728C110.294 68.4728 110.153 68.4262 110.05 68.3331C109.957 68.24 109.91 68.1096 109.91 67.942C109.91 67.7744 109.957 67.6441 110.05 67.551C110.153 67.4579 110.294 67.4113 110.472 67.4113C110.64 67.4113 110.771 67.4579 110.865 67.551C110.958 67.6441 111.005 67.7744 111.005 67.942C111.005 68.1096 110.958 68.24 110.865 68.3331C110.771 68.4262 110.64 68.4728 110.472 68.4728Z" fill="white"/>
<path d="M115.741 75.3165C116.312 75.4003 116.757 75.4841 117.075 75.5679C117.402 75.6517 117.683 75.8007 117.917 76.0149C118.151 76.2383 118.268 76.5456 118.268 76.9367C118.268 77.3464 118.109 77.7607 117.791 78.1797C117.482 78.5987 117.061 78.9432 116.527 79.2133C115.994 79.4833 115.418 79.6183 114.801 79.6183C114.146 79.6183 113.617 79.4554 113.214 79.1295C112.812 78.8036 112.611 78.3985 112.611 77.9144C112.611 77.1695 113.154 76.4385 114.239 75.7216C113.593 75.5353 113.271 75.2234 113.271 74.7858C113.271 74.2923 113.598 73.8128 114.253 73.3472C113.907 73.2168 113.636 73.0167 113.439 72.7466C113.252 72.4673 113.158 72.1554 113.158 71.8109C113.158 71.3453 113.35 70.9589 113.734 70.6516C114.127 70.3443 114.642 70.1907 115.278 70.1907C115.877 70.1907 116.34 70.3304 116.668 70.6097C117.182 70.3211 117.683 70.1767 118.17 70.1767C118.188 70.1767 118.202 70.2093 118.212 70.2745C118.23 70.3397 118.24 70.4049 118.24 70.47C118.24 70.5818 118.226 70.6888 118.198 70.7913C118.179 70.8844 118.151 70.9216 118.113 70.903C118.095 70.8937 118.001 70.8611 117.833 70.8052C117.674 70.7401 117.468 70.7075 117.215 70.7075C117.075 70.7075 116.939 70.7214 116.808 70.7494C117.051 71.0194 117.173 71.3453 117.173 71.727C117.173 72.0343 117.093 72.323 116.934 72.593C116.775 72.863 116.541 73.0818 116.232 73.2494C115.924 73.4077 115.554 73.4869 115.123 73.4869C114.843 73.4869 114.604 73.4543 114.408 73.3891C114.23 73.5101 114.089 73.6591 113.986 73.836C113.884 74.0036 113.832 74.1806 113.832 74.3668C113.832 74.6554 113.968 74.8603 114.239 74.9813C114.511 75.1024 114.894 75.2001 115.39 75.2746L115.741 75.3165ZM114.955 70.3862C114.646 70.3862 114.394 70.4793 114.197 70.6656C114.01 70.8518 113.916 71.1451 113.916 71.5455C113.916 72.0948 114.066 72.5232 114.365 72.8304C114.665 73.1377 115.011 73.2913 115.404 73.2913C115.704 73.2913 115.947 73.1889 116.134 72.9841C116.331 72.7699 116.429 72.444 116.429 72.0064C116.429 71.5222 116.279 71.1311 115.98 70.8332C115.69 70.5352 115.348 70.3862 114.955 70.3862ZM115.306 79.2133C115.802 79.2133 116.228 79.1202 116.583 78.9339C116.939 78.757 117.206 78.5242 117.384 78.2356C117.561 77.9563 117.65 77.6583 117.65 77.3417C117.65 76.9693 117.529 76.6853 117.285 76.4897C117.042 76.2942 116.761 76.1592 116.443 76.0847C116.134 76.0195 115.68 75.9497 115.081 75.8752C114.819 75.838 114.623 75.8054 114.492 75.7774C114.117 76.0102 113.823 76.257 113.607 76.5177C113.402 76.7877 113.299 77.1182 113.299 77.5093C113.299 78.0214 113.476 78.4311 113.832 78.7384C114.188 79.055 114.679 79.2133 115.306 79.2133Z" fill="white"/>
<path d="M125.311 75.5121C125.339 75.5121 125.353 75.54 125.353 75.5959C125.353 75.6517 125.339 75.6797 125.311 75.6797C125.096 75.6797 124.927 75.675 124.806 75.6657L124.076 75.6517L123.332 75.6657C123.21 75.675 123.042 75.6797 122.826 75.6797C122.798 75.6797 122.784 75.6517 122.784 75.5959C122.784 75.54 122.798 75.5121 122.826 75.5121C123.098 75.5121 123.294 75.4888 123.416 75.4422C123.538 75.3957 123.622 75.3072 123.669 75.1769C123.715 75.0372 123.739 74.8277 123.739 74.5483V72.2159C123.739 71.6479 123.631 71.2336 123.416 70.9728C123.201 70.7121 122.864 70.5818 122.405 70.5818C122.106 70.5818 121.797 70.6702 121.479 70.8471C121.17 71.0147 120.885 71.2475 120.622 71.5455V74.5483C120.622 74.8277 120.641 75.0372 120.679 75.1769C120.725 75.3072 120.81 75.3957 120.931 75.4422C121.062 75.4888 121.264 75.5121 121.535 75.5121C121.563 75.5121 121.577 75.54 121.577 75.5959C121.577 75.6517 121.563 75.6797 121.535 75.6797C121.32 75.6797 121.151 75.675 121.03 75.6657L120.3 75.6517L119.556 75.6657C119.434 75.675 119.266 75.6797 119.05 75.6797C119.022 75.6797 119.008 75.6517 119.008 75.5959C119.008 75.54 119.022 75.5121 119.05 75.5121C119.322 75.5121 119.518 75.4888 119.64 75.4422C119.761 75.3957 119.846 75.3072 119.893 75.1769C119.939 75.0372 119.963 74.8277 119.963 74.5483V71.755C119.963 71.4291 119.925 71.1963 119.85 71.0566C119.776 70.917 119.645 70.8471 119.457 70.8471C119.308 70.8471 119.046 70.917 118.671 71.0566H118.643C118.606 71.0566 118.578 71.038 118.559 71.0008C118.55 70.9542 118.564 70.9216 118.601 70.903L120.159 70.1767C120.178 70.1674 120.201 70.1628 120.229 70.1628C120.304 70.1628 120.389 70.2698 120.482 70.484C120.576 70.6888 120.622 70.9542 120.622 71.2801V71.336C120.997 70.9077 121.357 70.5957 121.703 70.4002C122.05 70.2047 122.41 70.1069 122.784 70.1069C123.308 70.1069 123.706 70.2466 123.977 70.5259C124.258 70.8052 124.399 71.2289 124.399 71.7969V74.5483C124.399 74.8277 124.417 75.0372 124.455 75.1769C124.501 75.3072 124.586 75.3957 124.707 75.4422C124.838 75.4888 125.04 75.5121 125.311 75.5121Z" fill="white"/>
<path d="M135.315 75.5121C135.352 75.5214 135.366 75.554 135.357 75.6098C135.357 75.6564 135.343 75.6797 135.315 75.6797H133.995C133.527 75.6797 132.835 75.3165 131.918 74.5902C131.16 75.4283 130.205 75.8473 129.054 75.8473C128.493 75.8473 128.02 75.7495 127.636 75.554C127.262 75.3584 126.981 75.1024 126.794 74.7858C126.616 74.4599 126.527 74.1107 126.527 73.7383C126.527 73.1889 126.696 72.7094 127.033 72.2997C127.37 71.89 127.852 71.4617 128.479 71.0147C128.31 70.754 128.174 70.5166 128.071 70.3024C127.809 69.7065 127.678 69.1991 127.678 68.78C127.678 68.4076 127.772 68.0584 127.959 67.7325C128.156 67.4066 128.422 67.1459 128.759 66.9504C129.096 66.7549 129.48 66.6571 129.91 66.6571C130.331 66.6571 130.701 66.7595 131.019 66.9644C131.338 67.1692 131.497 67.5277 131.497 68.0398C131.497 68.4029 131.403 68.7335 131.216 69.0315C131.038 69.3201 130.813 69.5715 130.542 69.7857C130.28 69.9998 129.915 70.2652 129.447 70.5818L129.152 70.7773C129.845 71.8574 130.856 72.9003 132.184 73.9059C132.587 73.2541 132.788 72.5651 132.788 71.8388C132.788 71.5501 132.723 71.336 132.592 71.1963C132.47 71.0473 132.213 70.9728 131.819 70.9728C131.791 70.9728 131.773 70.9449 131.763 70.889C131.763 70.8332 131.782 70.8052 131.819 70.8052L134.655 70.7913C134.692 70.7913 134.711 70.8192 134.711 70.8751C134.711 70.9309 134.692 70.9589 134.655 70.9589C134.327 70.9589 134.079 70.9868 133.911 71.0427C133.752 71.0985 133.64 71.1777 133.574 71.2801C133.509 71.3825 133.448 71.5315 133.392 71.727C133.139 72.6209 132.797 73.3891 132.367 74.0316C132.919 74.432 133.452 74.7625 133.967 75.0232C134.482 75.2746 134.931 75.4376 135.315 75.5121ZM128.352 68.3471C128.352 69.0454 128.586 69.7996 129.054 70.6097C129.625 70.2093 130.06 69.8322 130.36 69.4784C130.668 69.1246 130.823 68.7149 130.823 68.2493C130.823 67.8303 130.71 67.5044 130.486 67.2716C130.261 67.0388 129.952 66.9225 129.559 66.9225C129.176 66.9225 128.876 67.0388 128.661 67.2716C128.455 67.5044 128.352 67.8629 128.352 68.3471ZM129.573 75.4981C129.995 75.4981 130.392 75.4096 130.767 75.2327C131.141 75.0465 131.473 74.7904 131.763 74.4645L131.609 74.3388C131.029 73.8826 130.472 73.3798 129.938 72.8304C129.414 72.2811 128.965 71.7317 128.591 71.1823C128.179 71.4896 127.856 71.8155 127.622 72.16C127.398 72.4952 127.285 72.8863 127.285 73.3332C127.285 73.7336 127.384 74.1014 127.58 74.4366C127.786 74.7625 128.062 75.0232 128.408 75.2188C128.755 75.405 129.143 75.4981 129.573 75.4981Z" fill="white"/>
<path d="M139.91 70.7494C140.64 70.7959 141.23 71.038 141.679 71.4756C142.128 71.9133 142.353 72.4533 142.353 73.0958C142.353 73.5986 142.236 74.0502 142.002 74.4506C141.768 74.851 141.445 75.1675 141.033 75.4003C140.622 75.6238 140.168 75.7355 139.672 75.7355C139.354 75.7355 139.017 75.7216 138.661 75.6936C138.53 75.6843 138.376 75.675 138.198 75.6657C138.02 75.6564 137.819 75.6517 137.594 75.6517L136.668 75.6657C136.499 75.675 136.265 75.6797 135.966 75.6797C135.947 75.6797 135.938 75.6517 135.938 75.5959C135.938 75.54 135.947 75.5121 135.966 75.5121C136.34 75.5121 136.612 75.4888 136.78 75.4422C136.958 75.3957 137.08 75.3072 137.145 75.1769C137.211 75.0372 137.243 74.8277 137.243 74.5483V68.0817C137.243 67.8024 137.211 67.5975 137.145 67.4672C137.089 67.3368 136.972 67.2484 136.794 67.2018C136.626 67.1459 136.359 67.118 135.994 67.118C135.966 67.118 135.952 67.0901 135.952 67.0342C135.952 66.9783 135.966 66.9504 135.994 66.9504L136.668 66.9644C137.042 66.983 137.351 66.9923 137.594 66.9923C137.763 66.9923 137.922 66.9876 138.072 66.9783C138.221 66.969 138.352 66.9597 138.465 66.9504C138.755 66.9225 139.012 66.9085 139.237 66.9085C140.013 66.9085 140.584 67.0854 140.949 67.4392C141.324 67.7837 141.511 68.226 141.511 68.7661C141.511 69.2223 141.366 69.6227 141.076 69.9672C140.785 70.3024 140.397 70.5631 139.91 70.7494ZM138.914 67.0901C138.652 67.0901 138.46 67.1087 138.338 67.1459C138.217 67.1832 138.123 67.2716 138.057 67.4113C138.001 67.551 137.973 67.7837 137.973 68.1096V70.7633L138.633 70.7773C139.372 70.7773 139.91 70.605 140.247 70.2605C140.584 69.9067 140.753 69.4411 140.753 68.8638C140.753 68.3424 140.603 67.9188 140.303 67.5929C140.013 67.2577 139.55 67.0901 138.914 67.0901ZM139.475 75.5121C140.168 75.5121 140.682 75.3351 141.019 74.9813C141.366 74.6182 141.539 74.1061 141.539 73.445C141.539 72.7373 141.319 72.1647 140.879 71.727C140.449 71.2801 139.864 71.052 139.124 71.0427C138.778 71.0334 138.394 71.0427 137.973 71.0706V74.5483C137.973 74.7998 138.011 74.9953 138.086 75.135C138.17 75.2653 138.32 75.3631 138.535 75.4283C138.75 75.4841 139.064 75.5121 139.475 75.5121Z" fill="white"/>
<path d="M149.847 74.9115C149.884 74.9115 149.907 74.9348 149.917 74.9813C149.935 75.0186 149.926 75.0465 149.889 75.0651L148.316 75.7914L148.26 75.8054C148.176 75.8054 148.087 75.7029 147.994 75.4981C147.909 75.2839 147.867 75.0139 147.867 74.688V74.5623C147.484 74.9906 147.105 75.3026 146.73 75.4981C146.356 75.6843 145.972 75.7774 145.579 75.7774C145.121 75.7774 144.76 75.6331 144.498 75.3445C144.246 75.0558 144.119 74.6321 144.119 74.0735V71.9086C144.119 71.5269 144.087 71.2568 144.021 71.0985C143.965 70.9309 143.862 70.8471 143.712 70.8471C143.572 70.8471 143.403 70.8937 143.207 70.9868H143.179C143.141 70.9868 143.113 70.9635 143.095 70.917C143.085 70.8704 143.099 70.8425 143.137 70.8332L144.611 70.1767L144.667 70.1628C144.685 70.1628 144.709 70.1721 144.737 70.1907C144.765 70.2093 144.779 70.2326 144.779 70.2605V73.6545C144.779 74.2131 144.877 74.6275 145.074 74.8975C145.27 75.1675 145.565 75.3026 145.958 75.3026C146.286 75.3026 146.618 75.2188 146.955 75.0512C147.292 74.8742 147.596 74.6321 147.867 74.3249V71.9086C147.867 71.5269 147.835 71.2568 147.769 71.0985C147.713 70.9309 147.605 70.8471 147.446 70.8471C147.306 70.8471 147.137 70.8937 146.941 70.9868H146.913C146.875 70.9868 146.852 70.9635 146.843 70.917C146.833 70.8704 146.847 70.8425 146.885 70.8332L148.359 70.1767L148.401 70.1628C148.429 70.1628 148.452 70.1721 148.471 70.1907C148.499 70.2093 148.513 70.2326 148.513 70.2605V74.2131C148.513 74.5297 148.55 74.7625 148.625 74.9115C148.71 75.0512 148.845 75.121 149.032 75.121C149.126 75.121 149.238 75.1024 149.369 75.0651C149.51 75.0186 149.659 74.9674 149.819 74.9115H149.847Z" fill="white"/>
<path d="M150.734 75.6797C150.716 75.6797 150.706 75.6517 150.706 75.5959C150.706 75.54 150.716 75.5121 150.734 75.5121C151.006 75.5121 151.202 75.4888 151.324 75.4422C151.455 75.3957 151.544 75.3072 151.591 75.1769C151.637 75.0372 151.661 74.8277 151.661 74.5483V71.9086C151.661 71.5641 151.623 71.3174 151.548 71.1684C151.483 71.0194 151.366 70.9449 151.197 70.9449C151.02 70.9449 150.795 71.0147 150.524 71.1544H150.51C150.472 71.1544 150.444 71.1311 150.425 71.0846C150.407 71.038 150.416 71.0054 150.453 70.9868L152.194 70.1767L152.25 70.1628C152.269 70.1628 152.288 70.1721 152.306 70.1907C152.335 70.2093 152.349 70.2326 152.349 70.2605C152.349 70.3164 152.344 70.5026 152.334 70.8192C152.325 71.1265 152.32 71.485 152.32 71.8947V74.5483C152.32 74.8277 152.339 75.0372 152.377 75.1769C152.423 75.3072 152.508 75.3957 152.629 75.4422C152.76 75.4888 152.962 75.5121 153.233 75.5121C153.261 75.5121 153.275 75.54 153.275 75.5959C153.275 75.6517 153.261 75.6797 153.233 75.6797C153.018 75.6797 152.849 75.675 152.728 75.6657L151.984 75.6517L151.254 75.6657C151.123 75.675 150.949 75.6797 150.734 75.6797ZM151.871 68.4728C151.693 68.4728 151.553 68.4262 151.45 68.3331C151.357 68.24 151.31 68.1096 151.31 67.942C151.31 67.7744 151.357 67.6441 151.45 67.551C151.553 67.4579 151.693 67.4113 151.871 67.4113C152.04 67.4113 152.171 67.4579 152.264 67.551C152.358 67.6441 152.405 67.7744 152.405 67.942C152.405 68.1096 152.358 68.24 152.264 68.3331C152.171 68.4262 152.04 68.4728 151.871 68.4728Z" fill="white"/>
<path d="M154.375 75.6797C154.347 75.6797 154.333 75.6517 154.333 75.5959C154.333 75.54 154.347 75.5121 154.375 75.5121C154.647 75.5121 154.843 75.4888 154.965 75.4422C155.087 75.3957 155.171 75.3072 155.218 75.1769C155.264 75.0372 155.288 74.8277 155.288 74.5483V67.2996C155.288 66.955 155.255 66.7083 155.19 66.5593C155.124 66.4103 155.007 66.3359 154.839 66.3359C154.689 66.3359 154.464 66.4057 154.165 66.5454H154.137C154.099 66.5454 154.071 66.5221 154.053 66.4755C154.043 66.429 154.057 66.401 154.095 66.3917L155.821 65.5677C155.84 65.5584 155.863 65.5537 155.891 65.5537C155.91 65.5537 155.929 65.563 155.948 65.5816C155.976 65.6003 155.99 65.6235 155.99 65.6515V74.5483C155.99 74.8277 156.008 75.0325 156.046 75.1629C156.093 75.2932 156.177 75.3864 156.299 75.4422C156.43 75.4888 156.631 75.5121 156.902 75.5121C156.93 75.5121 156.944 75.54 156.944 75.5959C156.944 75.6517 156.93 75.6797 156.902 75.6797C156.696 75.6797 156.528 75.675 156.397 75.6657L155.639 75.6517L154.881 75.6657C154.759 75.675 154.591 75.6797 154.375 75.6797Z" fill="white"/>
<path d="M164.509 74.9115C164.546 74.9115 164.569 74.9348 164.579 74.9813C164.597 75.0279 164.588 75.0605 164.551 75.0791L163.105 75.7635C163.067 75.7821 163.03 75.7914 162.992 75.7914C162.861 75.7914 162.749 75.689 162.656 75.4841C162.571 75.27 162.525 74.972 162.515 74.5902C162.16 74.972 161.785 75.2793 161.392 75.5121C161.009 75.7448 160.578 75.8612 160.101 75.8612C159.708 75.8612 159.343 75.7495 159.006 75.526C158.678 75.3026 158.412 74.9906 158.206 74.5902C158.009 74.1806 157.911 73.7196 157.911 73.2075C157.911 72.5557 158.075 71.9971 158.402 71.5315C158.73 71.0566 159.142 70.7028 159.638 70.47C160.134 70.2279 160.625 70.1069 161.111 70.1069C161.607 70.1069 162.075 70.2512 162.515 70.5399V67.3135C162.515 66.969 162.478 66.7223 162.403 66.5733C162.337 66.4243 162.216 66.3498 162.038 66.3498C161.963 66.3498 161.865 66.3731 161.743 66.4197C161.631 66.4569 161.505 66.5035 161.364 66.5593H161.336C161.299 66.5593 161.275 66.5407 161.266 66.5035C161.257 66.4569 161.266 66.4243 161.294 66.4057L163.007 65.5677C163.025 65.5584 163.049 65.5537 163.077 65.5537C163.095 65.5537 163.114 65.563 163.133 65.5816C163.161 65.6003 163.175 65.6235 163.175 65.6515V74.1712C163.175 74.5158 163.212 74.7625 163.287 74.9115C163.371 75.0605 163.512 75.135 163.708 75.135C163.998 75.135 164.256 75.0651 164.48 74.9255L164.509 74.9115ZM160.592 75.4003C160.948 75.4003 161.28 75.3119 161.589 75.135C161.898 74.9487 162.206 74.6927 162.515 74.3668V71.4058C162.272 71.0799 162.005 70.8285 161.715 70.6516C161.434 70.4654 161.093 70.3723 160.69 70.3723C160.082 70.3723 159.595 70.5864 159.23 71.0147C158.865 71.4431 158.683 72.039 158.683 72.8025C158.683 73.3146 158.767 73.7662 158.936 74.1573C159.104 74.5483 159.333 74.8556 159.623 75.0791C159.914 75.2932 160.236 75.4003 160.592 75.4003Z" fill="white"/>
<path d="M165.389 75.6797C165.37 75.6797 165.361 75.6517 165.361 75.5959C165.361 75.54 165.37 75.5121 165.389 75.5121C165.66 75.5121 165.857 75.4888 165.978 75.4422C166.109 75.3957 166.198 75.3072 166.245 75.1769C166.292 75.0372 166.315 74.8277 166.315 74.5483V71.9086C166.315 71.5641 166.278 71.3174 166.203 71.1684C166.137 71.0194 166.02 70.9449 165.852 70.9449C165.674 70.9449 165.449 71.0147 165.178 71.1544H165.164C165.127 71.1544 165.099 71.1311 165.08 71.0846C165.061 71.038 165.07 71.0054 165.108 70.9868L166.849 70.1767L166.905 70.1628C166.923 70.1628 166.942 70.1721 166.961 70.1907C166.989 70.2093 167.003 70.2326 167.003 70.2605C167.003 70.3164 166.998 70.5026 166.989 70.8192C166.98 71.1265 166.975 71.485 166.975 71.8947V74.5483C166.975 74.8277 166.994 75.0372 167.031 75.1769C167.078 75.3072 167.162 75.3957 167.284 75.4422C167.415 75.4888 167.616 75.5121 167.887 75.5121C167.915 75.5121 167.929 75.54 167.929 75.5959C167.929 75.6517 167.915 75.6797 167.887 75.6797C167.672 75.6797 167.504 75.675 167.382 75.6657L166.638 75.6517L165.908 75.6657C165.777 75.675 165.604 75.6797 165.389 75.6797ZM166.526 68.4728C166.348 68.4728 166.207 68.4262 166.105 68.3331C166.011 68.24 165.964 68.1096 165.964 67.942C165.964 67.7744 166.011 67.6441 166.105 67.551C166.207 67.4579 166.348 67.4113 166.526 67.4113C166.694 67.4113 166.825 67.4579 166.919 67.551C167.012 67.6441 167.059 67.7744 167.059 67.942C167.059 68.1096 167.012 68.24 166.919 68.3331C166.825 68.4262 166.694 68.4728 166.526 68.4728Z" fill="white"/>
<path d="M175.361 75.5121C175.389 75.5121 175.403 75.54 175.403 75.5959C175.403 75.6517 175.389 75.6797 175.361 75.6797C175.145 75.6797 174.977 75.675 174.855 75.6657L174.125 75.6517L173.381 75.6657C173.26 75.675 173.091 75.6797 172.876 75.6797C172.848 75.6797 172.834 75.6517 172.834 75.5959C172.834 75.54 172.848 75.5121 172.876 75.5121C173.147 75.5121 173.344 75.4888 173.466 75.4422C173.587 75.3957 173.672 75.3072 173.718 75.1769C173.765 75.0372 173.789 74.8277 173.789 74.5483V72.2159C173.789 71.6479 173.681 71.2336 173.466 70.9728C173.25 70.7121 172.914 70.5818 172.455 70.5818C172.155 70.5818 171.847 70.6702 171.528 70.8471C171.22 71.0147 170.934 71.2475 170.672 71.5455V74.5483C170.672 74.8277 170.691 75.0372 170.728 75.1769C170.775 75.3072 170.859 75.3957 170.981 75.4422C171.112 75.4888 171.313 75.5121 171.585 75.5121C171.613 75.5121 171.627 75.54 171.627 75.5959C171.627 75.6517 171.613 75.6797 171.585 75.6797C171.369 75.6797 171.201 75.675 171.079 75.6657L170.349 75.6517L169.605 75.6657C169.484 75.675 169.315 75.6797 169.1 75.6797C169.072 75.6797 169.058 75.6517 169.058 75.5959C169.058 75.54 169.072 75.5121 169.1 75.5121C169.371 75.5121 169.568 75.4888 169.69 75.4422C169.811 75.3957 169.895 75.3072 169.942 75.1769C169.989 75.0372 170.012 74.8277 170.012 74.5483V71.755C170.012 71.4291 169.975 71.1963 169.9 71.0566C169.825 70.917 169.694 70.8471 169.507 70.8471C169.357 70.8471 169.095 70.917 168.721 71.0566H168.693C168.655 71.0566 168.627 71.038 168.609 71.0008C168.599 70.9542 168.613 70.9216 168.651 70.903L170.209 70.1767C170.228 70.1674 170.251 70.1628 170.279 70.1628C170.354 70.1628 170.438 70.2698 170.532 70.484C170.625 70.6888 170.672 70.9542 170.672 71.2801V71.336C171.047 70.9077 171.407 70.5957 171.753 70.4002C172.099 70.2047 172.46 70.1069 172.834 70.1069C173.358 70.1069 173.756 70.2466 174.027 70.5259C174.308 70.8052 174.448 71.2289 174.448 71.7969V74.5483C174.448 74.8277 174.467 75.0372 174.504 75.1769C174.551 75.3072 174.635 75.3957 174.757 75.4422C174.888 75.4888 175.089 75.5121 175.361 75.5121Z" fill="white"/>
<path d="M179.02 75.3165C179.59 75.4003 180.035 75.4841 180.353 75.5679C180.681 75.6517 180.961 75.8007 181.195 76.0149C181.429 76.2383 181.546 76.5456 181.546 76.9367C181.546 77.3464 181.387 77.7607 181.069 78.1797C180.76 78.5987 180.339 78.9432 179.806 79.2133C179.272 79.4833 178.697 79.6183 178.079 79.6183C177.424 79.6183 176.895 79.4554 176.493 79.1295C176.09 78.8036 175.889 78.3985 175.889 77.9144C175.889 77.1695 176.432 76.4385 177.518 75.7216C176.872 75.5353 176.549 75.2234 176.549 74.7858C176.549 74.2923 176.877 73.8128 177.532 73.3472C177.185 73.2168 176.914 73.0167 176.717 72.7466C176.53 72.4673 176.437 72.1554 176.437 71.8109C176.437 71.3453 176.629 70.9589 177.012 70.6516C177.405 70.3443 177.92 70.1907 178.556 70.1907C179.155 70.1907 179.619 70.3304 179.946 70.6097C180.461 70.3211 180.961 70.1767 181.448 70.1767C181.467 70.1767 181.481 70.2093 181.49 70.2745C181.509 70.3397 181.518 70.4049 181.518 70.47C181.518 70.5818 181.504 70.6888 181.476 70.7913C181.457 70.8844 181.429 70.9216 181.392 70.903C181.373 70.8937 181.28 70.8611 181.111 70.8052C180.952 70.7401 180.746 70.7075 180.494 70.7075C180.353 70.7075 180.217 70.7214 180.086 70.7494C180.33 71.0194 180.451 71.3453 180.451 71.727C180.451 72.0343 180.372 72.323 180.213 72.593C180.054 72.863 179.82 73.0818 179.511 73.2494C179.202 73.4077 178.832 73.4869 178.402 73.4869C178.121 73.4869 177.883 73.4543 177.686 73.3891C177.508 73.5101 177.368 73.6591 177.265 73.836C177.162 74.0036 177.11 74.1806 177.11 74.3668C177.11 74.6554 177.246 74.8603 177.518 74.9813C177.789 75.1024 178.173 75.2001 178.669 75.2746L179.02 75.3165ZM178.233 70.3862C177.925 70.3862 177.672 70.4793 177.475 70.6656C177.288 70.8518 177.195 71.1451 177.195 71.5455C177.195 72.0948 177.344 72.5232 177.644 72.8304C177.943 73.1377 178.29 73.2913 178.683 73.2913C178.982 73.2913 179.225 73.1889 179.413 72.9841C179.609 72.7699 179.707 72.444 179.707 72.0064C179.707 71.5222 179.558 71.1311 179.258 70.8332C178.968 70.5352 178.627 70.3862 178.233 70.3862ZM178.584 79.2133C179.08 79.2133 179.506 79.1202 179.862 78.9339C180.217 78.757 180.484 78.5242 180.662 78.2356C180.84 77.9563 180.929 77.6583 180.929 77.3417C180.929 76.9693 180.807 76.6853 180.564 76.4897C180.32 76.2942 180.04 76.1592 179.721 76.0847C179.413 76.0195 178.959 75.9497 178.36 75.8752C178.098 75.838 177.901 75.8054 177.77 75.7774C177.396 76.0102 177.101 76.257 176.886 76.5177C176.68 76.7877 176.577 77.1182 176.577 77.5093C176.577 78.0214 176.755 78.4311 177.11 78.7384C177.466 79.055 177.957 79.2133 178.584 79.2133Z" fill="white"/>
<path d="M191.369 75.5121C191.406 75.5214 191.42 75.554 191.411 75.6098C191.411 75.6564 191.397 75.6797 191.369 75.6797H190.049C189.581 75.6797 188.889 75.3165 187.972 74.5902C187.214 75.4283 186.259 75.8473 185.108 75.8473C184.547 75.8473 184.074 75.7495 183.69 75.554C183.316 75.3584 183.035 75.1024 182.848 74.7858C182.67 74.4599 182.581 74.1107 182.581 73.7383C182.581 73.1889 182.75 72.7094 183.087 72.2997C183.424 71.89 183.906 71.4617 184.533 71.0147C184.364 70.754 184.228 70.5166 184.125 70.3024C183.863 69.7065 183.732 69.1991 183.732 68.78C183.732 68.4076 183.826 68.0584 184.013 67.7325C184.21 67.4066 184.476 67.1459 184.813 66.9504C185.15 66.7549 185.534 66.6571 185.964 66.6571C186.386 66.6571 186.755 66.7595 187.073 66.9644C187.392 67.1692 187.551 67.5277 187.551 68.0398C187.551 68.4029 187.457 68.7335 187.27 69.0315C187.092 69.3201 186.867 69.5715 186.596 69.7857C186.334 69.9998 185.969 70.2652 185.501 70.5818L185.206 70.7773C185.899 71.8574 186.91 72.9003 188.238 73.9059C188.641 73.2541 188.842 72.5651 188.842 71.8388C188.842 71.5501 188.777 71.336 188.646 71.1963C188.524 71.0473 188.267 70.9728 187.874 70.9728C187.845 70.9728 187.827 70.9449 187.817 70.889C187.817 70.8332 187.836 70.8052 187.874 70.8052L190.709 70.7913C190.747 70.7913 190.765 70.8192 190.765 70.8751C190.765 70.9309 190.747 70.9589 190.709 70.9589C190.382 70.9589 190.134 70.9868 189.965 71.0427C189.806 71.0985 189.694 71.1777 189.628 71.2801C189.563 71.3825 189.502 71.5315 189.446 71.727C189.193 72.6209 188.851 73.3891 188.421 74.0316C188.973 74.432 189.507 74.7625 190.021 75.0232C190.536 75.2746 190.985 75.4376 191.369 75.5121ZM184.406 68.3471C184.406 69.0454 184.64 69.7996 185.108 70.6097C185.679 70.2093 186.114 69.8322 186.414 69.4784C186.722 69.1246 186.877 68.7149 186.877 68.2493C186.877 67.8303 186.765 67.5044 186.54 67.2716C186.315 67.0388 186.007 66.9225 185.613 66.9225C185.23 66.9225 184.93 67.0388 184.715 67.2716C184.509 67.5044 184.406 67.8629 184.406 68.3471ZM185.628 75.4981C186.049 75.4981 186.446 75.4096 186.821 75.2327C187.195 75.0465 187.527 74.7904 187.817 74.4645L187.663 74.3388C187.083 73.8826 186.526 73.3798 185.992 72.8304C185.468 72.2811 185.019 71.7317 184.645 71.1823C184.233 71.4896 183.91 71.8155 183.676 72.16C183.452 72.4952 183.339 72.8863 183.339 73.3332C183.339 73.7336 183.438 74.1014 183.634 74.4366C183.84 74.7625 184.116 75.0232 184.462 75.2188C184.809 75.405 185.197 75.4981 185.628 75.4981Z" fill="white"/>
<path d="M198 73.6405C198 73.6126 198.028 73.6033 198.084 73.6126C198.14 73.6126 198.168 73.6265 198.168 73.6545C198.084 74.2411 198.042 74.8463 198.042 75.4702C198.042 75.5446 198.023 75.6005 197.986 75.6378C197.958 75.6657 197.902 75.6797 197.817 75.6797H192.02C192.001 75.6797 191.992 75.6517 191.992 75.5959C191.992 75.54 192.001 75.5121 192.02 75.5121C192.385 75.5121 192.652 75.4888 192.82 75.4422C192.998 75.3957 193.115 75.3072 193.171 75.1769C193.237 75.0372 193.269 74.8277 193.269 74.5483V68.0817C193.269 67.8024 193.237 67.5975 193.171 67.4672C193.115 67.3368 192.998 67.2484 192.82 67.2018C192.652 67.1459 192.385 67.118 192.02 67.118C192.001 67.118 191.992 67.0901 191.992 67.0342C191.992 66.9783 192.001 66.9504 192.02 66.9504H197.579C197.663 66.9504 197.705 66.9923 197.705 67.0761L197.733 68.7661C197.733 68.794 197.705 68.808 197.649 68.808C197.602 68.808 197.579 68.794 197.579 68.7661C197.579 68.2912 197.452 67.9141 197.2 67.6348C196.947 67.3554 196.615 67.2158 196.203 67.2158H195.235C194.879 67.2158 194.617 67.239 194.448 67.2856C194.28 67.3322 194.163 67.4206 194.097 67.551C194.041 67.6813 194.013 67.8862 194.013 68.1655V71.0008H195.866C196.297 71.0008 196.596 70.9309 196.765 70.7913C196.933 70.6423 197.017 70.3909 197.017 70.0371C197.017 70.0184 197.045 70.0091 197.102 70.0091C197.158 70.0091 197.186 70.0184 197.186 70.0371L197.172 71.1404C197.172 71.4105 197.176 71.6107 197.186 71.741L197.2 72.3975C197.2 72.4161 197.172 72.4254 197.116 72.4254C197.059 72.4254 197.031 72.4161 197.031 72.3975C197.031 71.9785 196.942 71.6851 196.765 71.5175C196.587 71.3499 196.273 71.2661 195.824 71.2661H194.013V74.4925C194.013 74.7625 194.041 74.9627 194.097 75.0931C194.163 75.2141 194.275 75.2979 194.434 75.3445C194.603 75.391 194.87 75.4143 195.235 75.4143H196.526C196.9 75.4143 197.219 75.2513 197.481 74.9255C197.752 74.5996 197.925 74.1712 198 73.6405Z" fill="white"/>
<path d="M205.794 75.5121C205.822 75.5121 205.836 75.54 205.836 75.5959C205.836 75.6517 205.822 75.6797 205.794 75.6797C205.578 75.6797 205.41 75.675 205.288 75.6657L204.558 75.6517L203.814 75.6657C203.693 75.675 203.524 75.6797 203.309 75.6797C203.281 75.6797 203.267 75.6517 203.267 75.5959C203.267 75.54 203.281 75.5121 203.309 75.5121C203.58 75.5121 203.777 75.4888 203.899 75.4422C204.02 75.3957 204.104 75.3072 204.151 75.1769C204.198 75.0372 204.221 74.8277 204.221 74.5483V72.2159C204.221 71.6479 204.114 71.2336 203.899 70.9728C203.683 70.7121 203.346 70.5818 202.888 70.5818C202.588 70.5818 202.28 70.6702 201.961 70.8471C201.653 71.0147 201.367 71.2475 201.105 71.5455V74.5483C201.105 74.8277 201.124 75.0372 201.161 75.1769C201.208 75.3072 201.292 75.3957 201.414 75.4422C201.545 75.4888 201.746 75.5121 202.018 75.5121C202.046 75.5121 202.06 75.54 202.06 75.5959C202.06 75.6517 202.046 75.6797 202.018 75.6797C201.802 75.6797 201.634 75.675 201.512 75.6657L200.782 75.6517L200.038 75.6657C199.917 75.675 199.748 75.6797 199.533 75.6797C199.505 75.6797 199.491 75.6517 199.491 75.5959C199.491 75.54 199.505 75.5121 199.533 75.5121C199.804 75.5121 200.001 75.4888 200.122 75.4422C200.244 75.3957 200.328 75.3072 200.375 75.1769C200.422 75.0372 200.445 74.8277 200.445 74.5483V71.755C200.445 71.4291 200.408 71.1963 200.333 71.0566C200.258 70.917 200.127 70.8471 199.94 70.8471C199.79 70.8471 199.528 70.917 199.154 71.0566H199.126C199.088 71.0566 199.06 71.038 199.042 71.0008C199.032 70.9542 199.046 70.9216 199.084 70.903L200.642 70.1767C200.661 70.1674 200.684 70.1628 200.712 70.1628C200.787 70.1628 200.871 70.2698 200.965 70.484C201.058 70.6888 201.105 70.9542 201.105 71.2801V71.336C201.479 70.9077 201.84 70.5957 202.186 70.4002C202.532 70.2047 202.893 70.1069 203.267 70.1069C203.791 70.1069 204.189 70.2466 204.46 70.5259C204.741 70.8052 204.881 71.2289 204.881 71.7969V74.5483C204.881 74.8277 204.9 75.0372 204.937 75.1769C204.984 75.3072 205.068 75.3957 205.19 75.4422C205.321 75.4888 205.522 75.5121 205.794 75.5121Z" fill="white"/>
<path d="M209.452 75.3165C210.023 75.4003 210.468 75.4841 210.786 75.5679C211.114 75.6517 211.394 75.8007 211.628 76.0149C211.862 76.2383 211.979 76.5456 211.979 76.9367C211.979 77.3464 211.82 77.7607 211.502 78.1797C211.193 78.5987 210.772 78.9432 210.239 79.2133C209.705 79.4833 209.13 79.6183 208.512 79.6183C207.857 79.6183 207.328 79.4554 206.926 79.1295C206.523 78.8036 206.322 78.3985 206.322 77.9144C206.322 77.1695 206.865 76.4385 207.95 75.7216C207.305 75.5353 206.982 75.2234 206.982 74.7858C206.982 74.2923 207.309 73.8128 207.964 73.3472C207.618 73.2168 207.347 73.0167 207.15 72.7466C206.963 72.4673 206.87 72.1554 206.87 71.8109C206.87 71.3453 207.061 70.9589 207.445 70.6516C207.838 70.3443 208.353 70.1907 208.989 70.1907C209.588 70.1907 210.051 70.3304 210.379 70.6097C210.894 70.3211 211.394 70.1767 211.881 70.1767C211.9 70.1767 211.914 70.2093 211.923 70.2745C211.942 70.3397 211.951 70.4049 211.951 70.47C211.951 70.5818 211.937 70.6888 211.909 70.7913C211.89 70.8844 211.862 70.9216 211.825 70.903C211.806 70.8937 211.712 70.8611 211.544 70.8052C211.385 70.7401 211.179 70.7075 210.926 70.7075C210.786 70.7075 210.65 70.7214 210.519 70.7494C210.763 71.0194 210.884 71.3453 210.884 71.727C210.884 72.0343 210.805 72.323 210.646 72.593C210.487 72.863 210.253 73.0818 209.944 73.2494C209.635 73.4077 209.265 73.4869 208.835 73.4869C208.554 73.4869 208.315 73.4543 208.119 73.3891C207.941 73.5101 207.801 73.6591 207.698 73.836C207.595 74.0036 207.543 74.1806 207.543 74.3668C207.543 74.6554 207.679 74.8603 207.95 74.9813C208.222 75.1024 208.606 75.2001 209.102 75.2746L209.452 75.3165ZM208.666 70.3862C208.358 70.3862 208.105 70.4793 207.908 70.6656C207.721 70.8518 207.628 71.1451 207.628 71.5455C207.628 72.0948 207.777 72.5232 208.077 72.8304C208.376 73.1377 208.722 73.2913 209.116 73.2913C209.415 73.2913 209.658 73.1889 209.845 72.9841C210.042 72.7699 210.14 72.444 210.14 72.0064C210.14 71.5222 209.991 71.1311 209.691 70.8332C209.401 70.5352 209.059 70.3862 208.666 70.3862ZM209.017 79.2133C209.513 79.2133 209.939 79.1202 210.295 78.9339C210.65 78.757 210.917 78.5242 211.095 78.2356C211.273 77.9563 211.362 77.6583 211.362 77.3417C211.362 76.9693 211.24 76.6853 210.997 76.4897C210.753 76.2942 210.473 76.1592 210.154 76.0847C209.845 76.0195 209.392 75.9497 208.793 75.8752C208.531 75.838 208.334 75.8054 208.203 75.7774C207.829 76.0102 207.534 76.257 207.319 76.5177C207.113 76.7877 207.01 77.1182 207.01 77.5093C207.01 78.0214 207.188 78.4311 207.543 78.7384C207.899 79.055 208.39 79.2133 209.017 79.2133Z" fill="white"/>
<path d="M212.916 75.6797C212.897 75.6797 212.888 75.6517 212.888 75.5959C212.888 75.54 212.897 75.5121 212.916 75.5121C213.187 75.5121 213.384 75.4888 213.506 75.4422C213.637 75.3957 213.725 75.3072 213.772 75.1769C213.819 75.0372 213.842 74.8277 213.842 74.5483V71.9086C213.842 71.5641 213.805 71.3174 213.73 71.1684C213.665 71.0194 213.548 70.9449 213.379 70.9449C213.201 70.9449 212.977 71.0147 212.705 71.1544H212.691C212.654 71.1544 212.626 71.1311 212.607 71.0846C212.588 71.038 212.598 71.0054 212.635 70.9868L214.376 70.1767L214.432 70.1628C214.451 70.1628 214.469 70.1721 214.488 70.1907C214.516 70.2093 214.53 70.2326 214.53 70.2605C214.53 70.3164 214.526 70.5026 214.516 70.8192C214.507 71.1265 214.502 71.485 214.502 71.8947V74.5483C214.502 74.8277 214.521 75.0372 214.558 75.1769C214.605 75.3072 214.689 75.3957 214.811 75.4422C214.942 75.4888 215.143 75.5121 215.415 75.5121C215.443 75.5121 215.457 75.54 215.457 75.5959C215.457 75.6517 215.443 75.6797 215.415 75.6797C215.199 75.6797 215.031 75.675 214.909 75.6657L214.165 75.6517L213.435 75.6657C213.304 75.675 213.131 75.6797 212.916 75.6797ZM214.053 68.4728C213.875 68.4728 213.735 68.4262 213.632 68.3331C213.538 68.24 213.492 68.1096 213.492 67.942C213.492 67.7744 213.538 67.6441 213.632 67.551C213.735 67.4579 213.875 67.4113 214.053 67.4113C214.221 67.4113 214.352 67.4579 214.446 67.551C214.54 67.6441 214.586 67.7744 214.586 67.942C214.586 68.1096 214.54 68.24 214.446 68.3331C214.352 68.4262 214.221 68.4728 214.053 68.4728Z" fill="white"/>
<path d="M222.888 75.5121C222.916 75.5121 222.93 75.54 222.93 75.5959C222.93 75.6517 222.916 75.6797 222.888 75.6797C222.673 75.6797 222.504 75.675 222.383 75.6657L221.653 75.6517L220.909 75.6657C220.787 75.675 220.619 75.6797 220.403 75.6797C220.375 75.6797 220.361 75.6517 220.361 75.5959C220.361 75.54 220.375 75.5121 220.403 75.5121C220.675 75.5121 220.871 75.4888 220.993 75.4422C221.115 75.3957 221.199 75.3072 221.246 75.1769C221.292 75.0372 221.316 74.8277 221.316 74.5483V72.2159C221.316 71.6479 221.208 71.2336 220.993 70.9728C220.778 70.7121 220.441 70.5818 219.982 70.5818C219.683 70.5818 219.374 70.6702 219.056 70.8471C218.747 71.0147 218.462 71.2475 218.2 71.5455V74.5483C218.2 74.8277 218.218 75.0372 218.256 75.1769C218.303 75.3072 218.387 75.3957 218.508 75.4422C218.639 75.4888 218.841 75.5121 219.112 75.5121C219.14 75.5121 219.154 75.54 219.154 75.5959C219.154 75.6517 219.14 75.6797 219.112 75.6797C218.897 75.6797 218.728 75.675 218.607 75.6657L217.877 75.6517L217.133 75.6657C217.011 75.675 216.843 75.6797 216.627 75.6797C216.599 75.6797 216.585 75.6517 216.585 75.5959C216.585 75.54 216.599 75.5121 216.627 75.5121C216.899 75.5121 217.095 75.4888 217.217 75.4422C217.339 75.3957 217.423 75.3072 217.47 75.1769C217.516 75.0372 217.54 74.8277 217.54 74.5483V71.755C217.54 71.4291 217.502 71.1963 217.428 71.0566C217.353 70.917 217.222 70.8471 217.034 70.8471C216.885 70.8471 216.623 70.917 216.248 71.0566H216.22C216.183 71.0566 216.155 71.038 216.136 71.0008C216.127 70.9542 216.141 70.9216 216.178 70.903L217.736 70.1767C217.755 70.1674 217.778 70.1628 217.807 70.1628C217.881 70.1628 217.966 70.2698 218.059 70.484C218.153 70.6888 218.2 70.9542 218.2 71.2801V71.336C218.574 70.9077 218.934 70.5957 219.28 70.4002C219.627 70.2047 219.987 70.1069 220.361 70.1069C220.885 70.1069 221.283 70.2466 221.555 70.5259C221.835 70.8052 221.976 71.2289 221.976 71.7969V74.5483C221.976 74.8277 221.994 75.0372 222.032 75.1769C222.079 75.3072 222.163 75.3957 222.284 75.4422C222.415 75.4888 222.617 75.5121 222.888 75.5121Z" fill="white"/>
<path d="M228.231 74.9255C228.26 74.9255 228.283 74.9441 228.302 74.9813C228.33 75.0093 228.334 75.0372 228.316 75.0651C227.698 75.5865 227.029 75.8473 226.308 75.8473C225.766 75.8473 225.298 75.7216 224.905 75.4702C224.511 75.2188 224.217 74.8929 224.02 74.4925C223.824 74.0828 223.725 73.6405 223.725 73.1656C223.725 72.607 223.856 72.0995 224.118 71.6432C224.38 71.187 224.736 70.8285 225.185 70.5678C225.644 70.2978 226.149 70.1628 226.701 70.1628C227.188 70.1628 227.567 70.2885 227.838 70.5399C228.11 70.782 228.245 71.1172 228.245 71.5455C228.245 71.6572 228.231 71.7364 228.203 71.7829C228.185 71.8295 228.143 71.8527 228.077 71.8527L224.596 71.8667C224.549 72.1274 224.526 72.3835 224.526 72.6349C224.526 73.4543 224.722 74.12 225.115 74.6321C225.518 75.1443 226.065 75.4003 226.758 75.4003C227.31 75.4003 227.796 75.242 228.217 74.9255H228.231ZM226.224 70.4421C225.812 70.4421 225.471 70.5538 225.199 70.7773C224.937 70.9915 224.75 71.3034 224.638 71.7131L227.403 71.6432C227.403 71.2615 227.296 70.9682 227.08 70.7633C226.865 70.5492 226.58 70.4421 226.224 70.4421Z" fill="white"/>
<path d="M233.838 74.9255C233.866 74.9255 233.89 74.9441 233.908 74.9813C233.936 75.0093 233.941 75.0372 233.922 75.0651C233.305 75.5865 232.636 75.8473 231.915 75.8473C231.372 75.8473 230.904 75.7216 230.511 75.4702C230.118 75.2188 229.823 74.8929 229.627 74.4925C229.43 74.0828 229.332 73.6405 229.332 73.1656C229.332 72.607 229.463 72.0995 229.725 71.6432C229.987 71.187 230.343 70.8285 230.792 70.5678C231.251 70.2978 231.756 70.1628 232.308 70.1628C232.795 70.1628 233.174 70.2885 233.445 70.5399C233.717 70.782 233.852 71.1172 233.852 71.5455C233.852 71.6572 233.838 71.7364 233.81 71.7829C233.791 71.8295 233.749 71.8527 233.684 71.8527L230.202 71.8667C230.156 72.1274 230.132 72.3835 230.132 72.6349C230.132 73.4543 230.329 74.12 230.722 74.6321C231.124 75.1443 231.672 75.4003 232.364 75.4003C232.916 75.4003 233.403 75.242 233.824 74.9255H233.838ZM231.831 70.4421C231.419 70.4421 231.078 70.5538 230.806 70.7773C230.544 70.9915 230.357 71.3034 230.245 71.7131L233.01 71.6432C233.01 71.2615 232.902 70.9682 232.687 70.7633C232.472 70.5492 232.186 70.4421 231.831 70.4421Z" fill="white"/>
<path d="M238.278 70.1628C238.484 70.1628 238.676 70.2186 238.853 70.3304C239.041 70.4328 239.134 70.5538 239.134 70.6935C239.134 70.7866 239.097 70.8704 239.022 70.9449C238.956 71.0194 238.858 71.0566 238.727 71.0566C238.634 71.0566 238.549 71.0334 238.474 70.9868C238.4 70.9309 238.353 70.8984 238.334 70.889C238.156 70.7494 237.978 70.6795 237.801 70.6795C237.67 70.6795 237.529 70.7354 237.38 70.8471C237.239 70.9589 237.019 71.1963 236.72 71.5594V74.5483C236.72 74.8277 236.753 75.0372 236.818 75.1769C236.884 75.3072 237.01 75.3957 237.197 75.4422C237.394 75.4888 237.702 75.5121 238.123 75.5121C238.152 75.5121 238.166 75.54 238.166 75.5959C238.166 75.6517 238.152 75.6797 238.123 75.6797C237.824 75.6797 237.585 75.675 237.408 75.6657L236.397 75.6517L235.653 75.6657C235.531 75.675 235.363 75.6797 235.148 75.6797C235.119 75.6797 235.105 75.6517 235.105 75.5959C235.105 75.54 235.119 75.5121 235.148 75.5121C235.419 75.5121 235.615 75.4888 235.737 75.4422C235.859 75.3957 235.943 75.3072 235.99 75.1769C236.037 75.0372 236.06 74.8277 236.06 74.5483V71.755C236.06 71.4291 236.023 71.1963 235.948 71.0566C235.873 70.917 235.742 70.8471 235.555 70.8471C235.405 70.8471 235.143 70.917 234.769 71.0566H234.74C234.703 71.0566 234.675 71.038 234.656 71.0008C234.647 70.9542 234.661 70.9216 234.698 70.903L236.257 70.1767C236.275 70.1674 236.299 70.1628 236.327 70.1628C236.402 70.1628 236.486 70.2698 236.579 70.484C236.673 70.6888 236.72 70.9542 236.72 71.2801V71.3639C237.103 70.8984 237.408 70.5818 237.632 70.4142C237.857 70.2466 238.072 70.1628 238.278 70.1628Z" fill="white"/>
<path d="M240.36 75.6797C240.342 75.6797 240.332 75.6517 240.332 75.5959C240.332 75.54 240.342 75.5121 240.36 75.5121C240.632 75.5121 240.828 75.4888 240.95 75.4422C241.081 75.3957 241.17 75.3072 241.217 75.1769C241.263 75.0372 241.287 74.8277 241.287 74.5483V71.9086C241.287 71.5641 241.249 71.3174 241.175 71.1684C241.109 71.0194 240.992 70.9449 240.824 70.9449C240.646 70.9449 240.421 71.0147 240.15 71.1544H240.136C240.098 71.1544 240.07 71.1311 240.052 71.0846C240.033 71.038 240.042 71.0054 240.08 70.9868L241.82 70.1767L241.876 70.1628C241.895 70.1628 241.914 70.1721 241.933 70.1907C241.961 70.2093 241.975 70.2326 241.975 70.2605C241.975 70.3164 241.97 70.5026 241.961 70.8192C241.951 71.1265 241.947 71.485 241.947 71.8947V74.5483C241.947 74.8277 241.965 75.0372 242.003 75.1769C242.05 75.3072 242.134 75.3957 242.255 75.4422C242.386 75.4888 242.588 75.5121 242.859 75.5121C242.887 75.5121 242.901 75.54 242.901 75.5959C242.901 75.6517 242.887 75.6797 242.859 75.6797C242.644 75.6797 242.475 75.675 242.354 75.6657L241.61 75.6517L240.88 75.6657C240.749 75.675 240.576 75.6797 240.36 75.6797ZM241.497 68.4728C241.32 68.4728 241.179 68.4262 241.076 68.3331C240.983 68.24 240.936 68.1096 240.936 67.942C240.936 67.7744 240.983 67.6441 241.076 67.551C241.179 67.4579 241.32 67.4113 241.497 67.4113C241.666 67.4113 241.797 67.4579 241.89 67.551C241.984 67.6441 242.031 67.7744 242.031 67.942C242.031 68.1096 241.984 68.24 241.89 68.3331C241.797 68.4262 241.666 68.4728 241.497 68.4728Z" fill="white"/>
<path d="M250.332 75.5121C250.361 75.5121 250.375 75.54 250.375 75.5959C250.375 75.6517 250.361 75.6797 250.332 75.6797C250.117 75.6797 249.949 75.675 249.827 75.6657L249.097 75.6517L248.353 75.6657C248.232 75.675 248.063 75.6797 247.848 75.6797C247.82 75.6797 247.806 75.6517 247.806 75.5959C247.806 75.54 247.82 75.5121 247.848 75.5121C248.119 75.5121 248.316 75.4888 248.437 75.4422C248.559 75.3957 248.643 75.3072 248.69 75.1769C248.737 75.0372 248.76 74.8277 248.76 74.5483V72.2159C248.76 71.6479 248.653 71.2336 248.437 70.9728C248.222 70.7121 247.885 70.5818 247.427 70.5818C247.127 70.5818 246.818 70.6702 246.5 70.8471C246.191 71.0147 245.906 71.2475 245.644 71.5455V74.5483C245.644 74.8277 245.663 75.0372 245.7 75.1769C245.747 75.3072 245.831 75.3957 245.953 75.4422C246.084 75.4888 246.285 75.5121 246.556 75.5121C246.584 75.5121 246.599 75.54 246.599 75.5959C246.599 75.6517 246.584 75.6797 246.556 75.6797C246.341 75.6797 246.173 75.675 246.051 75.6657L245.321 75.6517L244.577 75.6657C244.455 75.675 244.287 75.6797 244.072 75.6797C244.044 75.6797 244.03 75.6517 244.03 75.5959C244.03 75.54 244.044 75.5121 244.072 75.5121C244.343 75.5121 244.54 75.4888 244.661 75.4422C244.783 75.3957 244.867 75.3072 244.914 75.1769C244.961 75.0372 244.984 74.8277 244.984 74.5483V71.755C244.984 71.4291 244.947 71.1963 244.872 71.0566C244.797 70.917 244.666 70.8471 244.479 70.8471C244.329 70.8471 244.067 70.917 243.693 71.0566H243.665C243.627 71.0566 243.599 71.038 243.58 71.0008C243.571 70.9542 243.585 70.9216 243.623 70.903L245.181 70.1767C245.199 70.1674 245.223 70.1628 245.251 70.1628C245.326 70.1628 245.41 70.2698 245.504 70.484C245.597 70.6888 245.644 70.9542 245.644 71.2801V71.336C246.018 70.9077 246.379 70.5957 246.725 70.4002C247.071 70.2047 247.431 70.1069 247.806 70.1069C248.33 70.1069 248.728 70.2466 248.999 70.5259C249.28 70.8052 249.42 71.2289 249.42 71.7969V74.5483C249.42 74.8277 249.439 75.0372 249.476 75.1769C249.523 75.3072 249.607 75.3957 249.729 75.4422C249.86 75.4888 250.061 75.5121 250.332 75.5121Z" fill="white"/>
<path d="M253.991 75.3165C254.562 75.4003 255.007 75.4841 255.325 75.5679C255.652 75.6517 255.933 75.8007 256.167 76.0149C256.401 76.2383 256.518 76.5456 256.518 76.9367C256.518 77.3464 256.359 77.7607 256.041 78.1797C255.732 78.5987 255.311 78.9432 254.777 79.2133C254.244 79.4833 253.669 79.6183 253.051 79.6183C252.396 79.6183 251.867 79.4554 251.465 79.1295C251.062 78.8036 250.861 78.3985 250.861 77.9144C250.861 77.1695 251.404 76.4385 252.489 75.7216C251.844 75.5353 251.521 75.2234 251.521 74.7858C251.521 74.2923 251.848 73.8128 252.503 73.3472C252.157 73.2168 251.886 73.0167 251.689 72.7466C251.502 72.4673 251.408 72.1554 251.408 71.8109C251.408 71.3453 251.6 70.9589 251.984 70.6516C252.377 70.3443 252.892 70.1907 253.528 70.1907C254.127 70.1907 254.59 70.3304 254.918 70.6097C255.433 70.3211 255.933 70.1767 256.42 70.1767C256.439 70.1767 256.453 70.2093 256.462 70.2745C256.481 70.3397 256.49 70.4049 256.49 70.47C256.49 70.5818 256.476 70.6888 256.448 70.7913C256.429 70.8844 256.401 70.9216 256.364 70.903C256.345 70.8937 256.251 70.8611 256.083 70.8052C255.924 70.7401 255.718 70.7075 255.465 70.7075C255.325 70.7075 255.189 70.7214 255.058 70.7494C255.302 71.0194 255.423 71.3453 255.423 71.727C255.423 72.0343 255.344 72.323 255.185 72.593C255.025 72.863 254.791 73.0818 254.483 73.2494C254.174 73.4077 253.804 73.4869 253.374 73.4869C253.093 73.4869 252.854 73.4543 252.658 73.3891C252.48 73.5101 252.34 73.6591 252.237 73.836C252.134 74.0036 252.082 74.1806 252.082 74.3668C252.082 74.6554 252.218 74.8603 252.489 74.9813C252.761 75.1024 253.144 75.2001 253.64 75.2746L253.991 75.3165ZM253.205 70.3862C252.896 70.3862 252.644 70.4793 252.447 70.6656C252.26 70.8518 252.166 71.1451 252.166 71.5455C252.166 72.0948 252.316 72.5232 252.616 72.8304C252.915 73.1377 253.261 73.2913 253.654 73.2913C253.954 73.2913 254.197 73.1889 254.384 72.9841C254.581 72.7699 254.679 72.444 254.679 72.0064C254.679 71.5222 254.529 71.1311 254.23 70.8332C253.94 70.5352 253.598 70.3862 253.205 70.3862ZM253.556 79.2133C254.052 79.2133 254.478 79.1202 254.834 78.9339C255.189 78.757 255.456 78.5242 255.634 78.2356C255.812 77.9563 255.9 77.6583 255.9 77.3417C255.9 76.9693 255.779 76.6853 255.535 76.4897C255.292 76.2942 255.011 76.1592 254.693 76.0847C254.384 76.0195 253.931 75.9497 253.332 75.8752C253.07 75.838 252.873 75.8054 252.742 75.7774C252.368 76.0102 252.073 76.257 251.858 76.5177C251.652 76.7877 251.549 77.1182 251.549 77.5093C251.549 78.0214 251.727 78.4311 252.082 78.7384C252.438 79.055 252.929 79.2133 253.556 79.2133Z" fill="white"/>
</svg>
