<svg width="3953" height="256" viewBox="0 0 3953 256" fill="none" xmlns="http://www.w3.org/2000/svg">
<path d="M135.2 177.08C135.52 177.08 135.68 177.4 135.68 178.04C135.68 178.68 135.52 179 135.2 179C131.893 179 129.333 178.947 127.52 178.84L116.8 178.68L105.76 178.84C103.947 178.947 101.44 179 98.24 179C97.92 179 97.76 178.68 97.76 178.04C97.76 177.4 97.92 177.08 98.24 177.08C102.507 177.08 105.6 176.813 107.52 176.28C109.44 175.747 110.72 174.733 111.36 173.24C112.107 171.747 112.48 169.347 112.48 166.04V128.44H48.64V166.04C48.64 169.347 48.96 171.747 49.6 173.24C50.3467 174.733 51.68 175.747 53.6 176.28C55.52 176.813 58.6133 177.08 62.88 177.08C63.0933 177.08 63.2 177.4 63.2 178.04C63.2 178.68 63.0933 179 62.88 179C59.68 179 57.12 178.947 55.2 178.84L44.32 178.68L33.76 178.84C31.84 178.947 29.1733 179 25.76 179C25.5467 179 25.44 178.68 25.44 178.04C25.44 177.4 25.5467 177.08 25.76 177.08C29.92 177.08 32.96 176.813 34.88 176.28C36.9067 175.747 38.2933 174.733 39.04 173.24C39.7867 171.64 40.16 169.24 40.16 166.04V91.96C40.16 88.76 39.7867 86.4133 39.04 84.92C38.4 83.4267 37.0667 82.4133 35.04 81.88C33.12 81.24 30.08 80.92 25.92 80.92C25.7067 80.92 25.6 80.6 25.6 79.96C25.6 79.32 25.7067 79 25.92 79L33.76 79.16C38.24 79.3733 41.76 79.48 44.32 79.48C47.2 79.48 50.88 79.3733 55.36 79.16L62.88 79C63.0933 79 63.2 79.32 63.2 79.96C63.2 80.6 63.0933 80.92 62.88 80.92C58.72 80.92 55.6267 81.24 53.6 81.88C51.68 82.52 50.3467 83.64 49.6 85.24C48.96 86.7333 48.64 89.08 48.64 92.28V125.4H112.48V92.28C112.48 89.08 112.107 86.7333 111.36 85.24C110.72 83.64 109.387 82.52 107.36 81.88C105.44 81.24 102.4 80.92 98.24 80.92C97.92 80.92 97.76 80.6 97.76 79.96C97.76 79.32 97.92 79 98.24 79L105.76 79.16C110.24 79.3733 113.92 79.48 116.8 79.48C119.467 79.48 123.04 79.3733 127.52 79.16L135.2 79C135.52 79 135.68 79.32 135.68 79.96C135.68 80.6 135.52 80.92 135.2 80.92C131.04 80.92 127.947 81.24 125.92 81.88C124 82.4133 122.667 83.4267 121.92 84.92C121.173 86.4133 120.8 88.76 120.8 91.96V166.04C120.8 169.24 121.173 171.64 121.92 173.24C122.667 174.733 124 175.747 125.92 176.28C127.947 176.813 131.04 177.08 135.2 177.08ZM171.97 166.04C171.97 169.347 172.29 171.747 172.93 173.24C173.677 174.733 175.01 175.747 176.93 176.28C178.85 176.813 181.943 177.08 186.21 177.08C186.423 177.08 186.53 177.4 186.53 178.04C186.53 178.68 186.423 179 186.21 179C183.01 179 180.503 178.947 178.69 178.84L167.49 178.68L156.77 178.84C154.85 178.947 152.237 179 148.93 179C148.61 179 148.45 178.68 148.45 178.04C148.45 177.4 148.61 177.08 148.93 177.08C153.09 177.08 156.13 176.813 158.05 176.28C160.077 175.747 161.463 174.733 162.21 173.24C162.957 171.64 163.33 169.24 163.33 166.04V91.96C163.33 88.76 162.957 86.4133 162.21 84.92C161.463 83.4267 160.077 82.4133 158.05 81.88C156.13 81.24 153.09 80.92 148.93 80.92C148.61 80.92 148.45 80.6 148.45 79.96C148.45 79.32 148.61 79 148.93 79L156.77 79.16C161.25 79.3733 164.823 79.48 167.49 79.48C170.477 79.48 174.21 79.3733 178.69 79.16L186.21 79C186.423 79 186.53 79.32 186.53 79.96C186.53 80.6 186.423 80.92 186.21 80.92C182.05 80.92 178.957 81.24 176.93 81.88C175.01 82.52 173.677 83.64 172.93 85.24C172.29 86.7333 171.97 89.08 171.97 92.28V166.04ZM199.183 135.96C198.863 136.067 198.543 135.48 198.223 134.2C198.009 132.92 197.903 131.747 197.903 130.68C197.903 129.72 198.009 129.24 198.223 129.24L247.343 121.72C247.663 121.613 247.929 122.147 248.143 123.32C248.463 124.493 248.623 125.613 248.623 126.68C248.623 127.853 248.463 128.44 248.143 128.44L199.183 135.96ZM300.02 179.64C296.927 179.64 293.46 179.48 289.62 179.16C288.127 179.053 286.26 178.947 284.02 178.84C281.887 178.733 279.487 178.68 276.82 178.68L266.26 178.84C264.34 178.947 261.673 179 258.26 179C258.047 179 257.94 178.68 257.94 178.04C257.94 177.4 258.047 177.08 258.26 177.08C262.42 177.08 265.46 176.813 267.38 176.28C269.407 175.747 270.793 174.733 271.54 173.24C272.287 171.64 272.66 169.24 272.66 166.04V91.96C272.66 88.76 272.287 86.4133 271.54 84.92C270.9 83.4267 269.567 82.4133 267.54 81.88C265.62 81.24 262.58 80.92 258.42 80.92C258.207 80.92 258.1 80.6 258.1 79.96C258.1 79.32 258.207 79 258.42 79L266.26 79.16C270.74 79.3733 274.26 79.48 276.82 79.48C280.553 79.48 284.34 79.32 288.18 79C292.873 78.7867 296.073 78.68 297.78 78.68C308.98 78.68 318.9 80.8133 327.54 85.08C336.18 89.3467 342.847 95.16 347.54 102.52C352.34 109.88 354.74 118.147 354.74 127.32C354.74 137.667 352.233 146.84 347.22 154.84C342.313 162.733 335.7 168.867 327.38 173.24C319.06 177.507 309.94 179.64 300.02 179.64ZM298.42 177.56C307.38 177.56 315.327 175.747 322.26 172.12C329.193 168.493 334.58 163.16 338.42 156.12C342.367 149.08 344.34 140.653 344.34 130.84C344.34 121.453 342.473 112.973 338.74 105.4C335.113 97.8267 329.833 91.8533 322.9 87.48C316.073 83 308.18 80.76 299.22 80.76C294.527 80.76 290.9 81.0267 288.34 81.56C285.887 82.0933 284.073 83.2133 282.9 84.92C281.727 86.52 281.14 88.9733 281.14 92.28V164.28C281.14 167.48 281.62 170.04 282.58 171.96C283.54 173.88 285.247 175.32 287.7 176.28C290.153 177.133 293.727 177.56 298.42 177.56ZM421.216 180.92C411.296 180.92 402.443 178.627 394.656 174.04C386.976 169.347 381.003 163.053 376.736 155.16C372.576 147.16 370.496 138.467 370.496 129.08C370.496 118.093 373.27 108.707 378.816 100.92C384.363 93.0267 391.456 87.1067 400.096 83.16C408.843 79.2133 417.75 77.24 426.816 77.24C436.95 77.24 445.856 79.64 453.536 84.44C461.216 89.1333 467.083 95.3733 471.136 103.16C475.296 110.947 477.376 119.213 477.376 127.96C477.376 137.667 474.816 146.573 469.696 154.68C464.576 162.787 457.696 169.187 449.056 173.88C440.523 178.573 431.243 180.92 421.216 180.92ZM426.976 177.72C434.55 177.72 441.376 175.96 447.456 172.44C453.536 168.92 458.336 163.747 461.856 156.92C465.376 150.093 467.136 141.933 467.136 132.44C467.136 122.413 465.163 113.507 461.216 105.72C457.376 97.8267 451.883 91.6933 444.736 87.32C437.696 82.9467 429.483 80.76 420.096 80.76C407.723 80.76 398.07 84.6 391.136 92.28C384.203 99.96 380.736 110.413 380.736 123.64C380.736 133.56 382.656 142.68 386.496 151C390.443 159.213 395.936 165.72 402.976 170.52C410.016 175.32 418.016 177.72 426.976 177.72ZM614.276 177.08C614.596 177.08 614.756 177.4 614.756 178.04C614.756 178.68 614.596 179 614.276 179C610.97 179 608.356 178.947 606.436 178.84L595.716 178.68L585.796 178.84C584.196 178.947 581.956 179 579.076 179C578.863 179 578.756 178.68 578.756 178.04C578.756 177.4 578.863 177.08 579.076 177.08C582.81 177.08 585.53 176.813 587.236 176.28C589.05 175.64 590.223 174.573 590.756 173.08C591.396 171.587 591.61 169.24 591.396 166.04L588.676 91.64L551.236 177.88C551.023 178.307 550.596 178.52 549.956 178.52C549.423 178.52 548.943 178.307 548.516 177.88L509.476 92.28L509.316 91.96L508.036 162.36C507.93 167.907 508.836 171.747 510.756 173.88C512.676 176.013 516.25 177.08 521.476 177.08C521.69 177.08 521.796 177.4 521.796 178.04C521.796 178.68 521.69 179 521.476 179C518.49 179 516.196 178.947 514.596 178.84L505.956 178.68L498.116 178.84C496.73 178.947 494.65 179 491.876 179C491.663 179 491.556 178.68 491.556 178.04C491.556 177.4 491.663 177.08 491.876 177.08C496.356 177.08 499.503 176.013 501.316 173.88C503.236 171.64 504.25 167.8 504.356 162.36L505.956 86.52C502.65 82.7867 498.33 80.92 492.996 80.92C492.783 80.92 492.676 80.6 492.676 79.96C492.676 79.32 492.783 79 492.996 79L498.436 79.16C499.503 79.2667 500.89 79.32 502.596 79.32C504.303 79.32 505.743 79.2667 506.916 79.16C508.09 79.0533 508.996 79 509.636 79C511.13 79 512.303 79.5333 513.156 80.6C514.01 81.56 515.29 83.8 516.996 87.32L552.996 165.08L588.836 83C589.37 81.8267 590.063 80.8667 590.916 80.12C591.876 79.3733 592.783 79 593.636 79C594.063 79 594.756 79.0533 595.716 79.16C596.676 79.2667 598.01 79.32 599.716 79.32L606.916 79.16C607.983 79.0533 609.636 79 611.876 79C612.09 79 612.196 79.32 612.196 79.96C612.196 80.6 612.09 80.92 611.876 80.92C606.33 80.92 602.383 81.6667 600.036 83.16C597.796 84.5467 596.73 87.3733 596.836 91.64L599.876 166.04C599.983 169.347 600.356 171.747 600.996 173.24C601.743 174.733 603.076 175.747 604.996 176.28C607.023 176.813 610.116 177.08 614.276 177.08ZM702.989 179.64C699.895 179.64 696.429 179.48 692.589 179.16C691.095 179.053 689.229 178.947 686.989 178.84C684.855 178.733 682.455 178.68 679.789 178.68L669.229 178.84C667.309 178.947 664.642 179 661.229 179C661.015 179 660.909 178.68 660.909 178.04C660.909 177.4 661.015 177.08 661.229 177.08C665.389 177.08 668.429 176.813 670.349 176.28C672.375 175.747 673.762 174.733 674.509 173.24C675.255 171.64 675.629 169.24 675.629 166.04V91.96C675.629 88.76 675.255 86.4133 674.509 84.92C673.869 83.4267 672.535 82.4133 670.509 81.88C668.589 81.24 665.549 80.92 661.389 80.92C661.175 80.92 661.069 80.6 661.069 79.96C661.069 79.32 661.175 79 661.389 79L669.229 79.16C673.709 79.3733 677.229 79.48 679.789 79.48C683.522 79.48 687.309 79.32 691.149 79C695.842 78.7867 699.042 78.68 700.749 78.68C711.949 78.68 721.869 80.8133 730.509 85.08C739.149 89.3467 745.815 95.16 750.509 102.52C755.309 109.88 757.709 118.147 757.709 127.32C757.709 137.667 755.202 146.84 750.189 154.84C745.282 162.733 738.669 168.867 730.349 173.24C722.029 177.507 712.909 179.64 702.989 179.64ZM701.389 177.56C710.349 177.56 718.295 175.747 725.229 172.12C732.162 168.493 737.549 163.16 741.389 156.12C745.335 149.08 747.309 140.653 747.309 130.84C747.309 121.453 745.442 112.973 741.709 105.4C738.082 97.8267 732.802 91.8533 725.869 87.48C719.042 83 711.149 80.76 702.189 80.76C697.495 80.76 693.869 81.0267 691.309 81.56C688.855 82.0933 687.042 83.2133 685.869 84.92C684.695 86.52 684.109 88.9733 684.109 92.28V164.28C684.109 167.48 684.589 170.04 685.549 171.96C686.509 173.88 688.215 175.32 690.669 176.28C693.122 177.133 696.695 177.56 701.389 177.56ZM840.825 155.64C840.825 155.32 841.145 155.213 841.785 155.32C842.425 155.32 842.745 155.48 842.745 155.8C841.785 162.52 841.305 169.453 841.305 176.6C841.305 177.453 841.092 178.093 840.665 178.52C840.345 178.84 839.705 179 838.745 179H772.665C772.452 179 772.345 178.68 772.345 178.04C772.345 177.4 772.452 177.08 772.665 177.08C776.825 177.08 779.865 176.813 781.785 176.28C783.812 175.747 785.145 174.733 785.785 173.24C786.532 171.64 786.905 169.24 786.905 166.04V91.96C786.905 88.76 786.532 86.4133 785.785 84.92C785.145 83.4267 783.812 82.4133 781.785 81.88C779.865 81.24 776.825 80.92 772.665 80.92C772.452 80.92 772.345 80.6 772.345 79.96C772.345 79.32 772.452 79 772.665 79H836.025C836.985 79 837.465 79.48 837.465 80.44L837.785 99.8C837.785 100.12 837.465 100.28 836.825 100.28C836.292 100.28 836.025 100.12 836.025 99.8C836.025 94.36 834.585 90.04 831.705 86.84C828.825 83.64 825.038 82.04 820.345 82.04H809.305C805.252 82.04 802.265 82.3067 800.345 82.84C798.425 83.3733 797.092 84.3867 796.345 85.88C795.705 87.3733 795.385 89.72 795.385 92.92V125.4H816.505C821.412 125.4 824.825 124.6 826.745 123C828.665 121.293 829.625 118.413 829.625 114.36C829.625 114.147 829.945 114.04 830.585 114.04C831.225 114.04 831.545 114.147 831.545 114.36L831.385 127C831.385 130.093 831.438 132.387 831.545 133.88L831.705 141.4C831.705 141.613 831.385 141.72 830.745 141.72C830.105 141.72 829.785 141.613 829.785 141.4C829.785 136.6 828.772 133.24 826.745 131.32C824.718 129.4 821.145 128.44 816.025 128.44H795.385V165.4C795.385 168.493 795.705 170.787 796.345 172.28C797.092 173.667 798.372 174.627 800.185 175.16C802.105 175.693 805.145 175.96 809.305 175.96H824.025C828.292 175.96 831.918 174.093 834.905 170.36C837.998 166.627 839.972 161.72 840.825 155.64ZM873.018 98.36C873.018 102.627 874.031 106.307 876.058 109.4C878.084 112.493 880.538 115.107 883.418 117.24C886.404 119.267 890.511 121.827 895.738 124.92C901.284 128.227 905.551 131 908.538 133.24C911.631 135.373 914.244 138.147 916.378 141.56C918.618 144.973 919.738 149.08 919.738 153.88C919.738 158.893 918.511 163.48 916.058 167.64C913.604 171.693 909.924 174.947 905.018 177.4C900.218 179.747 894.298 180.92 887.258 180.92C883.524 180.92 879.951 180.493 876.538 179.64C873.231 178.893 869.551 177.507 865.498 175.48C864.964 175.16 864.591 174.787 864.378 174.36C864.271 173.933 864.164 173.293 864.058 172.44L861.658 151.64V151.48C861.658 151.053 861.924 150.84 862.458 150.84C862.991 150.733 863.311 150.893 863.418 151.32C864.484 158.68 867.311 165.08 871.898 170.52C876.484 175.96 882.778 178.68 890.778 178.68C896.431 178.68 901.178 177.133 905.018 174.04C908.964 170.947 910.938 166.093 910.938 159.48C910.938 154.68 909.871 150.573 907.738 147.16C905.604 143.64 902.991 140.76 899.898 138.52C896.911 136.173 892.804 133.453 887.578 130.36C882.458 127.373 878.404 124.76 875.418 122.52C872.538 120.28 870.031 117.507 867.898 114.2C865.871 110.787 864.858 106.733 864.858 102.04C864.858 96.7067 866.191 92.1733 868.858 88.44C871.631 84.7067 875.204 81.9333 879.578 80.12C883.951 78.2 888.644 77.24 893.658 77.24C899.524 77.24 905.604 78.52 911.898 81.08C913.498 81.72 914.298 82.6267 914.298 83.8L915.738 100.76C915.738 101.187 915.418 101.4 914.778 101.4C914.244 101.4 913.924 101.187 913.818 100.76C913.391 95.2133 911.311 90.2533 907.578 85.88C903.844 81.5067 898.511 79.32 891.578 79.32C885.178 79.32 880.484 81.1867 877.498 84.92C874.511 88.6533 873.018 93.1333 873.018 98.36ZM959.314 166.04C959.314 169.347 959.634 171.747 960.274 173.24C961.02 174.733 962.354 175.747 964.274 176.28C966.194 176.813 969.287 177.08 973.554 177.08C973.767 177.08 973.874 177.4 973.874 178.04C973.874 178.68 973.767 179 973.554 179C970.354 179 967.847 178.947 966.034 178.84L954.834 178.68L944.114 178.84C942.194 178.947 939.58 179 936.274 179C935.954 179 935.794 178.68 935.794 178.04C935.794 177.4 935.954 177.08 936.274 177.08C940.434 177.08 943.474 176.813 945.394 176.28C947.42 175.747 948.807 174.733 949.554 173.24C950.3 171.64 950.674 169.24 950.674 166.04V91.96C950.674 88.76 950.3 86.4133 949.554 84.92C948.807 83.4267 947.42 82.4133 945.394 81.88C943.474 81.24 940.434 80.92 936.274 80.92C935.954 80.92 935.794 80.6 935.794 79.96C935.794 79.32 935.954 79 936.274 79L944.114 79.16C948.594 79.3733 952.167 79.48 954.834 79.48C957.82 79.48 961.554 79.3733 966.034 79.16L973.554 79C973.767 79 973.874 79.32 973.874 79.96C973.874 80.6 973.767 80.92 973.554 80.92C969.394 80.92 966.3 81.24 964.274 81.88C962.354 82.52 961.02 83.64 960.274 85.24C959.634 86.7333 959.314 89.08 959.314 92.28V166.04ZM1046.05 180.92C1034.42 180.92 1024.29 178.68 1015.65 174.2C1007.11 169.72 1000.55 163.64 995.966 155.96C991.486 148.28 989.246 139.693 989.246 130.2C989.246 119.853 991.86 110.68 997.086 102.68C1002.42 94.68 1009.67 88.44 1018.85 83.96C1028.13 79.48 1038.58 77.24 1050.21 77.24C1055.43 77.24 1060.34 77.7733 1064.93 78.84C1069.62 79.9067 1073.51 81.4 1076.61 83.32C1077.35 83.8533 1077.78 84.3333 1077.89 84.76C1078.1 85.08 1078.21 85.5067 1078.21 86.04C1078.31 86.4667 1078.37 86.7867 1078.37 87L1080.29 103.8C1080.29 104.12 1079.97 104.333 1079.33 104.44C1078.79 104.44 1078.47 104.28 1078.37 103.96C1076.34 96.3867 1072.34 90.6267 1066.37 86.68C1060.39 82.6267 1052.82 80.6 1043.65 80.6C1029.57 80.6 1018.63 84.4933 1010.85 92.28C1003.06 100.067 999.166 110.84 999.166 124.6C999.166 134.84 1001.35 144.067 1005.73 152.28C1010.1 160.387 1016.13 166.733 1023.81 171.32C1031.59 175.907 1040.29 178.2 1049.89 178.2C1055.65 178.2 1060.07 177.72 1063.17 176.76C1066.37 175.8 1068.66 173.933 1070.05 171.16C1071.54 168.387 1072.29 164.28 1072.29 158.84C1072.29 153.293 1071.91 149.453 1071.17 147.32C1070.42 145.08 1068.82 143.587 1066.37 142.84C1063.91 142.093 1059.65 141.72 1053.57 141.72C1052.93 141.72 1052.61 141.293 1052.61 140.44C1052.61 140.12 1052.66 139.853 1052.77 139.64C1052.98 139.32 1053.19 139.16 1053.41 139.16C1061.62 139.693 1068.23 139.96 1073.25 139.96C1078.05 139.96 1083.17 139.8 1088.61 139.48C1088.82 139.48 1088.98 139.64 1089.09 139.96C1089.3 140.173 1089.41 140.387 1089.41 140.6C1089.41 141.347 1089.14 141.72 1088.61 141.72C1085.83 141.613 1083.86 141.987 1082.69 142.84C1081.51 143.587 1080.77 145.187 1080.45 147.64C1080.13 150.093 1079.97 154.36 1079.97 160.44C1079.97 165.24 1080.13 168.653 1080.45 170.68C1080.87 172.707 1081.09 173.987 1081.09 174.52C1081.09 175.16 1080.98 175.587 1080.77 175.8C1080.55 176.013 1080.07 176.227 1079.33 176.44C1066.85 179.427 1055.75 180.92 1046.05 180.92ZM1207.31 79C1207.63 79 1207.79 79.32 1207.79 79.96C1207.79 80.6 1207.63 80.92 1207.31 80.92C1202.72 80.92 1199.47 82.04 1197.55 84.28C1195.74 86.52 1194.83 90.36 1194.83 95.8V180.76C1194.83 180.973 1194.56 181.133 1194.03 181.24C1193.5 181.347 1193.12 181.293 1192.91 181.08L1120.59 92.12L1117.87 89.08V162.36C1117.87 167.8 1118.78 171.64 1120.59 173.88C1122.4 176.013 1125.55 177.08 1130.03 177.08C1130.35 177.08 1130.51 177.4 1130.51 178.04C1130.51 178.68 1130.35 179 1130.03 179C1127.47 179 1125.5 178.947 1124.11 178.84L1116.43 178.68L1108.59 178.84C1107.2 178.947 1105.12 179 1102.35 179C1102.14 179 1102.03 178.68 1102.03 178.04C1102.03 177.4 1102.14 177.08 1102.35 177.08C1106.94 177.08 1110.08 176.013 1111.79 173.88C1113.5 171.747 1114.35 167.907 1114.35 162.36V85.72C1110.62 82.52 1106.78 80.92 1102.83 80.92C1102.51 80.92 1102.35 80.6 1102.35 79.96C1102.35 79.32 1102.51 79 1102.83 79L1108.59 79.16C1109.76 79.2667 1111.42 79.32 1113.55 79.32C1115.36 79.32 1116.86 79.2667 1118.03 79.16C1119.2 79.0533 1120.11 79 1120.75 79C1121.5 79 1122.08 79.2133 1122.51 79.64C1123.04 79.96 1123.63 80.7067 1124.27 81.88C1125.44 83.8 1126.72 85.6133 1128.11 87.32L1191.31 165.88V95.8C1191.31 90.36 1190.46 86.52 1188.75 84.28C1187.04 82.04 1183.95 80.92 1179.47 80.92C1179.26 80.92 1179.15 80.6 1179.15 79.96C1179.15 79.32 1179.26 79 1179.47 79L1185.55 79.16C1188.75 79.3733 1191.31 79.48 1193.23 79.48C1195.04 79.48 1197.66 79.3733 1201.07 79.16L1207.31 79Z" fill="#E2E2E2"/>
<circle cx="1276.5" cy="127.5" r="18.5" fill="#E2E2E2"/>
<path d="M1452.2 177.08C1452.52 177.08 1452.68 177.4 1452.68 178.04C1452.68 178.68 1452.52 179 1452.2 179C1448.89 179 1446.33 178.947 1444.52 178.84L1433.8 178.68L1422.76 178.84C1420.95 178.947 1418.44 179 1415.24 179C1414.92 179 1414.76 178.68 1414.76 178.04C1414.76 177.4 1414.92 177.08 1415.24 177.08C1419.51 177.08 1422.6 176.813 1424.52 176.28C1426.44 175.747 1427.72 174.733 1428.36 173.24C1429.11 171.747 1429.48 169.347 1429.48 166.04V128.44H1365.64V166.04C1365.64 169.347 1365.96 171.747 1366.6 173.24C1367.35 174.733 1368.68 175.747 1370.6 176.28C1372.52 176.813 1375.61 177.08 1379.88 177.08C1380.09 177.08 1380.2 177.4 1380.2 178.04C1380.2 178.68 1380.09 179 1379.88 179C1376.68 179 1374.12 178.947 1372.2 178.84L1361.32 178.68L1350.76 178.84C1348.84 178.947 1346.17 179 1342.76 179C1342.55 179 1342.44 178.68 1342.44 178.04C1342.44 177.4 1342.55 177.08 1342.76 177.08C1346.92 177.08 1349.96 176.813 1351.88 176.28C1353.91 175.747 1355.29 174.733 1356.04 173.24C1356.79 171.64 1357.16 169.24 1357.16 166.04V91.96C1357.16 88.76 1356.79 86.4133 1356.04 84.92C1355.4 83.4267 1354.07 82.4133 1352.04 81.88C1350.12 81.24 1347.08 80.92 1342.92 80.92C1342.71 80.92 1342.6 80.6 1342.6 79.96C1342.6 79.32 1342.71 79 1342.92 79L1350.76 79.16C1355.24 79.3733 1358.76 79.48 1361.32 79.48C1364.2 79.48 1367.88 79.3733 1372.36 79.16L1379.88 79C1380.09 79 1380.2 79.32 1380.2 79.96C1380.2 80.6 1380.09 80.92 1379.88 80.92C1375.72 80.92 1372.63 81.24 1370.6 81.88C1368.68 82.52 1367.35 83.64 1366.6 85.24C1365.96 86.7333 1365.64 89.08 1365.64 92.28V125.4H1429.48V92.28C1429.48 89.08 1429.11 86.7333 1428.36 85.24C1427.72 83.64 1426.39 82.52 1424.36 81.88C1422.44 81.24 1419.4 80.92 1415.24 80.92C1414.92 80.92 1414.76 80.6 1414.76 79.96C1414.76 79.32 1414.92 79 1415.24 79L1422.76 79.16C1427.24 79.3733 1430.92 79.48 1433.8 79.48C1436.47 79.48 1440.04 79.3733 1444.52 79.16L1452.2 79C1452.52 79 1452.68 79.32 1452.68 79.96C1452.68 80.6 1452.52 80.92 1452.2 80.92C1448.04 80.92 1444.95 81.24 1442.92 81.88C1441 82.4133 1439.67 83.4267 1438.92 84.92C1438.17 86.4133 1437.8 88.76 1437.8 91.96V166.04C1437.8 169.24 1438.17 171.64 1438.92 173.24C1439.67 174.733 1441 175.747 1442.92 176.28C1444.95 176.813 1448.04 177.08 1452.2 177.08ZM1488.97 166.04C1488.97 169.347 1489.29 171.747 1489.93 173.24C1490.68 174.733 1492.01 175.747 1493.93 176.28C1495.85 176.813 1498.94 177.08 1503.21 177.08C1503.42 177.08 1503.53 177.4 1503.53 178.04C1503.53 178.68 1503.42 179 1503.21 179C1500.01 179 1497.5 178.947 1495.69 178.84L1484.49 178.68L1473.77 178.84C1471.85 178.947 1469.24 179 1465.93 179C1465.61 179 1465.45 178.68 1465.45 178.04C1465.45 177.4 1465.61 177.08 1465.93 177.08C1470.09 177.08 1473.13 176.813 1475.05 176.28C1477.08 175.747 1478.46 174.733 1479.21 173.24C1479.96 171.64 1480.33 169.24 1480.33 166.04V91.96C1480.33 88.76 1479.96 86.4133 1479.21 84.92C1478.46 83.4267 1477.08 82.4133 1475.05 81.88C1473.13 81.24 1470.09 80.92 1465.93 80.92C1465.61 80.92 1465.45 80.6 1465.45 79.96C1465.45 79.32 1465.61 79 1465.93 79L1473.77 79.16C1478.25 79.3733 1481.82 79.48 1484.49 79.48C1487.48 79.48 1491.21 79.3733 1495.69 79.16L1503.21 79C1503.42 79 1503.53 79.32 1503.53 79.96C1503.53 80.6 1503.42 80.92 1503.21 80.92C1499.05 80.92 1495.96 81.24 1493.93 81.88C1492.01 82.52 1490.68 83.64 1489.93 85.24C1489.29 86.7333 1488.97 89.08 1488.97 92.28V166.04ZM1516.18 135.96C1515.86 136.067 1515.54 135.48 1515.22 134.2C1515.01 132.92 1514.9 131.747 1514.9 130.68C1514.9 129.72 1515.01 129.24 1515.22 129.24L1564.34 121.72C1564.66 121.613 1564.93 122.147 1565.14 123.32C1565.46 124.493 1565.62 125.613 1565.62 126.68C1565.62 127.853 1565.46 128.44 1565.14 128.44L1516.18 135.96ZM1617.02 179.64C1613.93 179.64 1610.46 179.48 1606.62 179.16C1605.13 179.053 1603.26 178.947 1601.02 178.84C1598.89 178.733 1596.49 178.68 1593.82 178.68L1583.26 178.84C1581.34 178.947 1578.67 179 1575.26 179C1575.05 179 1574.94 178.68 1574.94 178.04C1574.94 177.4 1575.05 177.08 1575.26 177.08C1579.42 177.08 1582.46 176.813 1584.38 176.28C1586.41 175.747 1587.79 174.733 1588.54 173.24C1589.29 171.64 1589.66 169.24 1589.66 166.04V91.96C1589.66 88.76 1589.29 86.4133 1588.54 84.92C1587.9 83.4267 1586.57 82.4133 1584.54 81.88C1582.62 81.24 1579.58 80.92 1575.42 80.92C1575.21 80.92 1575.1 80.6 1575.1 79.96C1575.1 79.32 1575.21 79 1575.42 79L1583.26 79.16C1587.74 79.3733 1591.26 79.48 1593.82 79.48C1597.55 79.48 1601.34 79.32 1605.18 79C1609.87 78.7867 1613.07 78.68 1614.78 78.68C1625.98 78.68 1635.9 80.8133 1644.54 85.08C1653.18 89.3467 1659.85 95.16 1664.54 102.52C1669.34 109.88 1671.74 118.147 1671.74 127.32C1671.74 137.667 1669.23 146.84 1664.22 154.84C1659.31 162.733 1652.7 168.867 1644.38 173.24C1636.06 177.507 1626.94 179.64 1617.02 179.64ZM1615.42 177.56C1624.38 177.56 1632.33 175.747 1639.26 172.12C1646.19 168.493 1651.58 163.16 1655.42 156.12C1659.37 149.08 1661.34 140.653 1661.34 130.84C1661.34 121.453 1659.47 112.973 1655.74 105.4C1652.11 97.8267 1646.83 91.8533 1639.9 87.48C1633.07 83 1625.18 80.76 1616.22 80.76C1611.53 80.76 1607.9 81.0267 1605.34 81.56C1602.89 82.0933 1601.07 83.2133 1599.9 84.92C1598.73 86.52 1598.14 88.9733 1598.14 92.28V164.28C1598.14 167.48 1598.62 170.04 1599.58 171.96C1600.54 173.88 1602.25 175.32 1604.7 176.28C1607.15 177.133 1610.73 177.56 1615.42 177.56ZM1738.22 180.92C1728.3 180.92 1719.44 178.627 1711.66 174.04C1703.98 169.347 1698 163.053 1693.74 155.16C1689.58 147.16 1687.5 138.467 1687.5 129.08C1687.5 118.093 1690.27 108.707 1695.82 100.92C1701.36 93.0267 1708.46 87.1067 1717.1 83.16C1725.84 79.2133 1734.75 77.24 1743.82 77.24C1753.95 77.24 1762.86 79.64 1770.54 84.44C1778.22 89.1333 1784.08 95.3733 1788.14 103.16C1792.3 110.947 1794.38 119.213 1794.38 127.96C1794.38 137.667 1791.82 146.573 1786.7 154.68C1781.58 162.787 1774.7 169.187 1766.06 173.88C1757.52 178.573 1748.24 180.92 1738.22 180.92ZM1743.98 177.72C1751.55 177.72 1758.38 175.96 1764.46 172.44C1770.54 168.92 1775.34 163.747 1778.86 156.92C1782.38 150.093 1784.14 141.933 1784.14 132.44C1784.14 122.413 1782.16 113.507 1778.22 105.72C1774.38 97.8267 1768.88 91.6933 1761.74 87.32C1754.7 82.9467 1746.48 80.76 1737.1 80.76C1724.72 80.76 1715.07 84.6 1708.14 92.28C1701.2 99.96 1697.74 110.413 1697.74 123.64C1697.74 133.56 1699.66 142.68 1703.5 151C1707.44 159.213 1712.94 165.72 1719.98 170.52C1727.02 175.32 1735.02 177.72 1743.98 177.72ZM1931.28 177.08C1931.6 177.08 1931.76 177.4 1931.76 178.04C1931.76 178.68 1931.6 179 1931.28 179C1927.97 179 1925.36 178.947 1923.44 178.84L1912.72 178.68L1902.8 178.84C1901.2 178.947 1898.96 179 1896.08 179C1895.86 179 1895.76 178.68 1895.76 178.04C1895.76 177.4 1895.86 177.08 1896.08 177.08C1899.81 177.08 1902.53 176.813 1904.24 176.28C1906.05 175.64 1907.22 174.573 1907.76 173.08C1908.4 171.587 1908.61 169.24 1908.4 166.04L1905.68 91.64L1868.24 177.88C1868.02 178.307 1867.6 178.52 1866.96 178.52C1866.42 178.52 1865.94 178.307 1865.52 177.88L1826.48 92.28L1826.32 91.96L1825.04 162.36C1824.93 167.907 1825.84 171.747 1827.76 173.88C1829.68 176.013 1833.25 177.08 1838.48 177.08C1838.69 177.08 1838.8 177.4 1838.8 178.04C1838.8 178.68 1838.69 179 1838.48 179C1835.49 179 1833.2 178.947 1831.6 178.84L1822.96 178.68L1815.12 178.84C1813.73 178.947 1811.65 179 1808.88 179C1808.66 179 1808.56 178.68 1808.56 178.04C1808.56 177.4 1808.66 177.08 1808.88 177.08C1813.36 177.08 1816.5 176.013 1818.32 173.88C1820.24 171.64 1821.25 167.8 1821.36 162.36L1822.96 86.52C1819.65 82.7867 1815.33 80.92 1810 80.92C1809.78 80.92 1809.68 80.6 1809.68 79.96C1809.68 79.32 1809.78 79 1810 79L1815.44 79.16C1816.5 79.2667 1817.89 79.32 1819.6 79.32C1821.3 79.32 1822.74 79.2667 1823.92 79.16C1825.09 79.0533 1826 79 1826.64 79C1828.13 79 1829.3 79.5333 1830.16 80.6C1831.01 81.56 1832.29 83.8 1834 87.32L1870 165.08L1905.84 83C1906.37 81.8267 1907.06 80.8667 1907.92 80.12C1908.88 79.3733 1909.78 79 1910.64 79C1911.06 79 1911.76 79.0533 1912.72 79.16C1913.68 79.2667 1915.01 79.32 1916.72 79.32L1923.92 79.16C1924.98 79.0533 1926.64 79 1928.88 79C1929.09 79 1929.2 79.32 1929.2 79.96C1929.2 80.6 1929.09 80.92 1928.88 80.92C1923.33 80.92 1919.38 81.6667 1917.04 83.16C1914.8 84.5467 1913.73 87.3733 1913.84 91.64L1916.88 166.04C1916.98 169.347 1917.36 171.747 1918 173.24C1918.74 174.733 1920.08 175.747 1922 176.28C1924.02 176.813 1927.12 177.08 1931.28 177.08ZM2019.99 179.64C2016.9 179.64 2013.43 179.48 2009.59 179.16C2008.1 179.053 2006.23 178.947 2003.99 178.84C2001.86 178.733 1999.46 178.68 1996.79 178.68L1986.23 178.84C1984.31 178.947 1981.64 179 1978.23 179C1978.02 179 1977.91 178.68 1977.91 178.04C1977.91 177.4 1978.02 177.08 1978.23 177.08C1982.39 177.08 1985.43 176.813 1987.35 176.28C1989.38 175.747 1990.76 174.733 1991.51 173.24C1992.26 171.64 1992.63 169.24 1992.63 166.04V91.96C1992.63 88.76 1992.26 86.4133 1991.51 84.92C1990.87 83.4267 1989.54 82.4133 1987.51 81.88C1985.59 81.24 1982.55 80.92 1978.39 80.92C1978.18 80.92 1978.07 80.6 1978.07 79.96C1978.07 79.32 1978.18 79 1978.39 79L1986.23 79.16C1990.71 79.3733 1994.23 79.48 1996.79 79.48C2000.52 79.48 2004.31 79.32 2008.15 79C2012.84 78.7867 2016.04 78.68 2017.75 78.68C2028.95 78.68 2038.87 80.8133 2047.51 85.08C2056.15 89.3467 2062.82 95.16 2067.51 102.52C2072.31 109.88 2074.71 118.147 2074.71 127.32C2074.71 137.667 2072.2 146.84 2067.19 154.84C2062.28 162.733 2055.67 168.867 2047.35 173.24C2039.03 177.507 2029.91 179.64 2019.99 179.64ZM2018.39 177.56C2027.35 177.56 2035.3 175.747 2042.23 172.12C2049.16 168.493 2054.55 163.16 2058.39 156.12C2062.34 149.08 2064.31 140.653 2064.31 130.84C2064.31 121.453 2062.44 112.973 2058.71 105.4C2055.08 97.8267 2049.8 91.8533 2042.87 87.48C2036.04 83 2028.15 80.76 2019.19 80.76C2014.5 80.76 2010.87 81.0267 2008.31 81.56C2005.86 82.0933 2004.04 83.2133 2002.87 84.92C2001.7 86.52 2001.11 88.9733 2001.11 92.28V164.28C2001.11 167.48 2001.59 170.04 2002.55 171.96C2003.51 173.88 2005.22 175.32 2007.67 176.28C2010.12 177.133 2013.7 177.56 2018.39 177.56ZM2157.83 155.64C2157.83 155.32 2158.15 155.213 2158.79 155.32C2159.43 155.32 2159.75 155.48 2159.75 155.8C2158.79 162.52 2158.31 169.453 2158.31 176.6C2158.31 177.453 2158.09 178.093 2157.67 178.52C2157.35 178.84 2156.71 179 2155.75 179H2089.67C2089.45 179 2089.35 178.68 2089.35 178.04C2089.35 177.4 2089.45 177.08 2089.67 177.08C2093.83 177.08 2096.87 176.813 2098.79 176.28C2100.81 175.747 2102.15 174.733 2102.79 173.24C2103.53 171.64 2103.91 169.24 2103.91 166.04V91.96C2103.91 88.76 2103.53 86.4133 2102.79 84.92C2102.15 83.4267 2100.81 82.4133 2098.79 81.88C2096.87 81.24 2093.83 80.92 2089.67 80.92C2089.45 80.92 2089.35 80.6 2089.35 79.96C2089.35 79.32 2089.45 79 2089.67 79H2153.03C2153.99 79 2154.47 79.48 2154.47 80.44L2154.79 99.8C2154.79 100.12 2154.47 100.28 2153.83 100.28C2153.29 100.28 2153.03 100.12 2153.03 99.8C2153.03 94.36 2151.59 90.04 2148.71 86.84C2145.83 83.64 2142.04 82.04 2137.35 82.04H2126.31C2122.25 82.04 2119.27 82.3067 2117.35 82.84C2115.43 83.3733 2114.09 84.3867 2113.35 85.88C2112.71 87.3733 2112.39 89.72 2112.39 92.92V125.4H2133.51C2138.41 125.4 2141.83 124.6 2143.75 123C2145.67 121.293 2146.63 118.413 2146.63 114.36C2146.63 114.147 2146.95 114.04 2147.59 114.04C2148.23 114.04 2148.55 114.147 2148.55 114.36L2148.39 127C2148.39 130.093 2148.44 132.387 2148.55 133.88L2148.71 141.4C2148.71 141.613 2148.39 141.72 2147.75 141.72C2147.11 141.72 2146.79 141.613 2146.79 141.4C2146.79 136.6 2145.77 133.24 2143.75 131.32C2141.72 129.4 2138.15 128.44 2133.03 128.44H2112.39V165.4C2112.39 168.493 2112.71 170.787 2113.35 172.28C2114.09 173.667 2115.37 174.627 2117.19 175.16C2119.11 175.693 2122.15 175.96 2126.31 175.96H2141.03C2145.29 175.96 2148.92 174.093 2151.91 170.36C2155 166.627 2156.97 161.72 2157.83 155.64ZM2190.02 98.36C2190.02 102.627 2191.03 106.307 2193.06 109.4C2195.08 112.493 2197.54 115.107 2200.42 117.24C2203.4 119.267 2207.51 121.827 2212.74 124.92C2218.28 128.227 2222.55 131 2225.54 133.24C2228.63 135.373 2231.24 138.147 2233.38 141.56C2235.62 144.973 2236.74 149.08 2236.74 153.88C2236.74 158.893 2235.51 163.48 2233.06 167.64C2230.6 171.693 2226.92 174.947 2222.02 177.4C2217.22 179.747 2211.3 180.92 2204.26 180.92C2200.52 180.92 2196.95 180.493 2193.54 179.64C2190.23 178.893 2186.55 177.507 2182.5 175.48C2181.96 175.16 2181.59 174.787 2181.38 174.36C2181.27 173.933 2181.16 173.293 2181.06 172.44L2178.66 151.64V151.48C2178.66 151.053 2178.92 150.84 2179.46 150.84C2179.99 150.733 2180.31 150.893 2180.42 151.32C2181.48 158.68 2184.31 165.08 2188.9 170.52C2193.48 175.96 2199.78 178.68 2207.78 178.68C2213.43 178.68 2218.18 177.133 2222.02 174.04C2225.96 170.947 2227.94 166.093 2227.94 159.48C2227.94 154.68 2226.87 150.573 2224.74 147.16C2222.6 143.64 2219.99 140.76 2216.9 138.52C2213.91 136.173 2209.8 133.453 2204.58 130.36C2199.46 127.373 2195.4 124.76 2192.42 122.52C2189.54 120.28 2187.03 117.507 2184.9 114.2C2182.87 110.787 2181.86 106.733 2181.86 102.04C2181.86 96.7067 2183.19 92.1733 2185.86 88.44C2188.63 84.7067 2192.2 81.9333 2196.58 80.12C2200.95 78.2 2205.64 77.24 2210.66 77.24C2216.52 77.24 2222.6 78.52 2228.9 81.08C2230.5 81.72 2231.3 82.6267 2231.3 83.8L2232.74 100.76C2232.74 101.187 2232.42 101.4 2231.78 101.4C2231.24 101.4 2230.92 101.187 2230.82 100.76C2230.39 95.2133 2228.31 90.2533 2224.58 85.88C2220.84 81.5067 2215.51 79.32 2208.58 79.32C2202.18 79.32 2197.48 81.1867 2194.5 84.92C2191.51 88.6533 2190.02 93.1333 2190.02 98.36ZM2276.31 166.04C2276.31 169.347 2276.63 171.747 2277.27 173.24C2278.02 174.733 2279.35 175.747 2281.27 176.28C2283.19 176.813 2286.29 177.08 2290.55 177.08C2290.77 177.08 2290.87 177.4 2290.87 178.04C2290.87 178.68 2290.77 179 2290.55 179C2287.35 179 2284.85 178.947 2283.03 178.84L2271.83 178.68L2261.11 178.84C2259.19 178.947 2256.58 179 2253.27 179C2252.95 179 2252.79 178.68 2252.79 178.04C2252.79 177.4 2252.95 177.08 2253.27 177.08C2257.43 177.08 2260.47 176.813 2262.39 176.28C2264.42 175.747 2265.81 174.733 2266.55 173.24C2267.3 171.64 2267.67 169.24 2267.67 166.04V91.96C2267.67 88.76 2267.3 86.4133 2266.55 84.92C2265.81 83.4267 2264.42 82.4133 2262.39 81.88C2260.47 81.24 2257.43 80.92 2253.27 80.92C2252.95 80.92 2252.79 80.6 2252.79 79.96C2252.79 79.32 2252.95 79 2253.27 79L2261.11 79.16C2265.59 79.3733 2269.17 79.48 2271.83 79.48C2274.82 79.48 2278.55 79.3733 2283.03 79.16L2290.55 79C2290.77 79 2290.87 79.32 2290.87 79.96C2290.87 80.6 2290.77 80.92 2290.55 80.92C2286.39 80.92 2283.3 81.24 2281.27 81.88C2279.35 82.52 2278.02 83.64 2277.27 85.24C2276.63 86.7333 2276.31 89.08 2276.31 92.28V166.04ZM2363.05 180.92C2351.42 180.92 2341.29 178.68 2332.65 174.2C2324.11 169.72 2317.55 163.64 2312.97 155.96C2308.49 148.28 2306.25 139.693 2306.25 130.2C2306.25 119.853 2308.86 110.68 2314.09 102.68C2319.42 94.68 2326.67 88.44 2335.85 83.96C2345.13 79.48 2355.58 77.24 2367.21 77.24C2372.43 77.24 2377.34 77.7733 2381.93 78.84C2386.62 79.9067 2390.51 81.4 2393.61 83.32C2394.35 83.8533 2394.78 84.3333 2394.89 84.76C2395.1 85.08 2395.21 85.5067 2395.21 86.04C2395.31 86.4667 2395.37 86.7867 2395.37 87L2397.29 103.8C2397.29 104.12 2396.97 104.333 2396.33 104.44C2395.79 104.44 2395.47 104.28 2395.37 103.96C2393.34 96.3867 2389.34 90.6267 2383.37 86.68C2377.39 82.6267 2369.82 80.6 2360.65 80.6C2346.57 80.6 2335.63 84.4933 2327.85 92.28C2320.06 100.067 2316.17 110.84 2316.17 124.6C2316.17 134.84 2318.35 144.067 2322.73 152.28C2327.1 160.387 2333.13 166.733 2340.81 171.32C2348.59 175.907 2357.29 178.2 2366.89 178.2C2372.65 178.2 2377.07 177.72 2380.17 176.76C2383.37 175.8 2385.66 173.933 2387.05 171.16C2388.54 168.387 2389.29 164.28 2389.29 158.84C2389.29 153.293 2388.91 149.453 2388.17 147.32C2387.42 145.08 2385.82 143.587 2383.37 142.84C2380.91 142.093 2376.65 141.72 2370.57 141.72C2369.93 141.72 2369.61 141.293 2369.61 140.44C2369.61 140.12 2369.66 139.853 2369.77 139.64C2369.98 139.32 2370.19 139.16 2370.41 139.16C2378.62 139.693 2385.23 139.96 2390.25 139.96C2395.05 139.96 2400.17 139.8 2405.61 139.48C2405.82 139.48 2405.98 139.64 2406.09 139.96C2406.3 140.173 2406.41 140.387 2406.41 140.6C2406.41 141.347 2406.14 141.72 2405.61 141.72C2402.83 141.613 2400.86 141.987 2399.69 142.84C2398.51 143.587 2397.77 145.187 2397.45 147.64C2397.13 150.093 2396.97 154.36 2396.97 160.44C2396.97 165.24 2397.13 168.653 2397.45 170.68C2397.87 172.707 2398.09 173.987 2398.09 174.52C2398.09 175.16 2397.98 175.587 2397.77 175.8C2397.55 176.013 2397.07 176.227 2396.33 176.44C2383.85 179.427 2372.75 180.92 2363.05 180.92ZM2524.31 79C2524.63 79 2524.79 79.32 2524.79 79.96C2524.79 80.6 2524.63 80.92 2524.31 80.92C2519.72 80.92 2516.47 82.04 2514.55 84.28C2512.74 86.52 2511.83 90.36 2511.83 95.8V180.76C2511.83 180.973 2511.56 181.133 2511.03 181.24C2510.5 181.347 2510.12 181.293 2509.91 181.08L2437.59 92.12L2434.87 89.08V162.36C2434.87 167.8 2435.78 171.64 2437.59 173.88C2439.4 176.013 2442.55 177.08 2447.03 177.08C2447.35 177.08 2447.51 177.4 2447.51 178.04C2447.51 178.68 2447.35 179 2447.03 179C2444.47 179 2442.5 178.947 2441.11 178.84L2433.43 178.68L2425.59 178.84C2424.2 178.947 2422.12 179 2419.35 179C2419.14 179 2419.03 178.68 2419.03 178.04C2419.03 177.4 2419.14 177.08 2419.35 177.08C2423.94 177.08 2427.08 176.013 2428.79 173.88C2430.5 171.747 2431.35 167.907 2431.35 162.36V85.72C2427.62 82.52 2423.78 80.92 2419.83 80.92C2419.51 80.92 2419.35 80.6 2419.35 79.96C2419.35 79.32 2419.51 79 2419.83 79L2425.59 79.16C2426.76 79.2667 2428.42 79.32 2430.55 79.32C2432.36 79.32 2433.86 79.2667 2435.03 79.16C2436.2 79.0533 2437.11 79 2437.75 79C2438.5 79 2439.08 79.2133 2439.51 79.64C2440.04 79.96 2440.63 80.7067 2441.27 81.88C2442.44 83.8 2443.72 85.6133 2445.11 87.32L2508.31 165.88V95.8C2508.31 90.36 2507.46 86.52 2505.75 84.28C2504.04 82.04 2500.95 80.92 2496.47 80.92C2496.26 80.92 2496.15 80.6 2496.15 79.96C2496.15 79.32 2496.26 79 2496.47 79L2502.55 79.16C2505.75 79.3733 2508.31 79.48 2510.23 79.48C2512.04 79.48 2514.66 79.3733 2518.07 79.16L2524.31 79Z" fill="#E2E2E2"/>
<circle cx="2593.5" cy="127.5" r="18.5" fill="#E2E2E2"/>
<path d="M2773.2 177.08C2773.52 177.08 2773.68 177.4 2773.68 178.04C2773.68 178.68 2773.52 179 2773.2 179C2769.89 179 2767.33 178.947 2765.52 178.84L2754.8 178.68L2743.76 178.84C2741.95 178.947 2739.44 179 2736.24 179C2735.92 179 2735.76 178.68 2735.76 178.04C2735.76 177.4 2735.92 177.08 2736.24 177.08C2740.51 177.08 2743.6 176.813 2745.52 176.28C2747.44 175.747 2748.72 174.733 2749.36 173.24C2750.11 171.747 2750.48 169.347 2750.48 166.04V128.44H2686.64V166.04C2686.64 169.347 2686.96 171.747 2687.6 173.24C2688.35 174.733 2689.68 175.747 2691.6 176.28C2693.52 176.813 2696.61 177.08 2700.88 177.08C2701.09 177.08 2701.2 177.4 2701.2 178.04C2701.2 178.68 2701.09 179 2700.88 179C2697.68 179 2695.12 178.947 2693.2 178.84L2682.32 178.68L2671.76 178.84C2669.84 178.947 2667.17 179 2663.76 179C2663.55 179 2663.44 178.68 2663.44 178.04C2663.44 177.4 2663.55 177.08 2663.76 177.08C2667.92 177.08 2670.96 176.813 2672.88 176.28C2674.91 175.747 2676.29 174.733 2677.04 173.24C2677.79 171.64 2678.16 169.24 2678.16 166.04V91.96C2678.16 88.76 2677.79 86.4133 2677.04 84.92C2676.4 83.4267 2675.07 82.4133 2673.04 81.88C2671.12 81.24 2668.08 80.92 2663.92 80.92C2663.71 80.92 2663.6 80.6 2663.6 79.96C2663.6 79.32 2663.71 79 2663.92 79L2671.76 79.16C2676.24 79.3733 2679.76 79.48 2682.32 79.48C2685.2 79.48 2688.88 79.3733 2693.36 79.16L2700.88 79C2701.09 79 2701.2 79.32 2701.2 79.96C2701.2 80.6 2701.09 80.92 2700.88 80.92C2696.72 80.92 2693.63 81.24 2691.6 81.88C2689.68 82.52 2688.35 83.64 2687.6 85.24C2686.96 86.7333 2686.64 89.08 2686.64 92.28V125.4H2750.48V92.28C2750.48 89.08 2750.11 86.7333 2749.36 85.24C2748.72 83.64 2747.39 82.52 2745.36 81.88C2743.44 81.24 2740.4 80.92 2736.24 80.92C2735.92 80.92 2735.76 80.6 2735.76 79.96C2735.76 79.32 2735.92 79 2736.24 79L2743.76 79.16C2748.24 79.3733 2751.92 79.48 2754.8 79.48C2757.47 79.48 2761.04 79.3733 2765.52 79.16L2773.2 79C2773.52 79 2773.68 79.32 2773.68 79.96C2773.68 80.6 2773.52 80.92 2773.2 80.92C2769.04 80.92 2765.95 81.24 2763.92 81.88C2762 82.4133 2760.67 83.4267 2759.92 84.92C2759.17 86.4133 2758.8 88.76 2758.8 91.96V166.04C2758.8 169.24 2759.17 171.64 2759.92 173.24C2760.67 174.733 2762 175.747 2763.92 176.28C2765.95 176.813 2769.04 177.08 2773.2 177.08ZM2809.97 166.04C2809.97 169.347 2810.29 171.747 2810.93 173.24C2811.68 174.733 2813.01 175.747 2814.93 176.28C2816.85 176.813 2819.94 177.08 2824.21 177.08C2824.42 177.08 2824.53 177.4 2824.53 178.04C2824.53 178.68 2824.42 179 2824.21 179C2821.01 179 2818.5 178.947 2816.69 178.84L2805.49 178.68L2794.77 178.84C2792.85 178.947 2790.24 179 2786.93 179C2786.61 179 2786.45 178.68 2786.45 178.04C2786.45 177.4 2786.61 177.08 2786.93 177.08C2791.09 177.08 2794.13 176.813 2796.05 176.28C2798.08 175.747 2799.46 174.733 2800.21 173.24C2800.96 171.64 2801.33 169.24 2801.33 166.04V91.96C2801.33 88.76 2800.96 86.4133 2800.21 84.92C2799.46 83.4267 2798.08 82.4133 2796.05 81.88C2794.13 81.24 2791.09 80.92 2786.93 80.92C2786.61 80.92 2786.45 80.6 2786.45 79.96C2786.45 79.32 2786.61 79 2786.93 79L2794.77 79.16C2799.25 79.3733 2802.82 79.48 2805.49 79.48C2808.48 79.48 2812.21 79.3733 2816.69 79.16L2824.21 79C2824.42 79 2824.53 79.32 2824.53 79.96C2824.53 80.6 2824.42 80.92 2824.21 80.92C2820.05 80.92 2816.96 81.24 2814.93 81.88C2813.01 82.52 2811.68 83.64 2810.93 85.24C2810.29 86.7333 2809.97 89.08 2809.97 92.28V166.04ZM2837.18 135.96C2836.86 136.067 2836.54 135.48 2836.22 134.2C2836.01 132.92 2835.9 131.747 2835.9 130.68C2835.9 129.72 2836.01 129.24 2836.22 129.24L2885.34 121.72C2885.66 121.613 2885.93 122.147 2886.14 123.32C2886.46 124.493 2886.62 125.613 2886.62 126.68C2886.62 127.853 2886.46 128.44 2886.14 128.44L2837.18 135.96ZM2938.02 179.64C2934.93 179.64 2931.46 179.48 2927.62 179.16C2926.13 179.053 2924.26 178.947 2922.02 178.84C2919.89 178.733 2917.49 178.68 2914.82 178.68L2904.26 178.84C2902.34 178.947 2899.67 179 2896.26 179C2896.05 179 2895.94 178.68 2895.94 178.04C2895.94 177.4 2896.05 177.08 2896.26 177.08C2900.42 177.08 2903.46 176.813 2905.38 176.28C2907.41 175.747 2908.79 174.733 2909.54 173.24C2910.29 171.64 2910.66 169.24 2910.66 166.04V91.96C2910.66 88.76 2910.29 86.4133 2909.54 84.92C2908.9 83.4267 2907.57 82.4133 2905.54 81.88C2903.62 81.24 2900.58 80.92 2896.42 80.92C2896.21 80.92 2896.1 80.6 2896.1 79.96C2896.1 79.32 2896.21 79 2896.42 79L2904.26 79.16C2908.74 79.3733 2912.26 79.48 2914.82 79.48C2918.55 79.48 2922.34 79.32 2926.18 79C2930.87 78.7867 2934.07 78.68 2935.78 78.68C2946.98 78.68 2956.9 80.8133 2965.54 85.08C2974.18 89.3467 2980.85 95.16 2985.54 102.52C2990.34 109.88 2992.74 118.147 2992.74 127.32C2992.74 137.667 2990.23 146.84 2985.22 154.84C2980.31 162.733 2973.7 168.867 2965.38 173.24C2957.06 177.507 2947.94 179.64 2938.02 179.64ZM2936.42 177.56C2945.38 177.56 2953.33 175.747 2960.26 172.12C2967.19 168.493 2972.58 163.16 2976.42 156.12C2980.37 149.08 2982.34 140.653 2982.34 130.84C2982.34 121.453 2980.47 112.973 2976.74 105.4C2973.11 97.8267 2967.83 91.8533 2960.9 87.48C2954.07 83 2946.18 80.76 2937.22 80.76C2932.53 80.76 2928.9 81.0267 2926.34 81.56C2923.89 82.0933 2922.07 83.2133 2920.9 84.92C2919.73 86.52 2919.14 88.9733 2919.14 92.28V164.28C2919.14 167.48 2919.62 170.04 2920.58 171.96C2921.54 173.88 2923.25 175.32 2925.7 176.28C2928.15 177.133 2931.73 177.56 2936.42 177.56ZM3059.22 180.92C3049.3 180.92 3040.44 178.627 3032.66 174.04C3024.98 169.347 3019 163.053 3014.74 155.16C3010.58 147.16 3008.5 138.467 3008.5 129.08C3008.5 118.093 3011.27 108.707 3016.82 100.92C3022.36 93.0267 3029.46 87.1067 3038.1 83.16C3046.84 79.2133 3055.75 77.24 3064.82 77.24C3074.95 77.24 3083.86 79.64 3091.54 84.44C3099.22 89.1333 3105.08 95.3733 3109.14 103.16C3113.3 110.947 3115.38 119.213 3115.38 127.96C3115.38 137.667 3112.82 146.573 3107.7 154.68C3102.58 162.787 3095.7 169.187 3087.06 173.88C3078.52 178.573 3069.24 180.92 3059.22 180.92ZM3064.98 177.72C3072.55 177.72 3079.38 175.96 3085.46 172.44C3091.54 168.92 3096.34 163.747 3099.86 156.92C3103.38 150.093 3105.14 141.933 3105.14 132.44C3105.14 122.413 3103.16 113.507 3099.22 105.72C3095.38 97.8267 3089.88 91.6933 3082.74 87.32C3075.7 82.9467 3067.48 80.76 3058.1 80.76C3045.72 80.76 3036.07 84.6 3029.14 92.28C3022.2 99.96 3018.74 110.413 3018.74 123.64C3018.74 133.56 3020.66 142.68 3024.5 151C3028.44 159.213 3033.94 165.72 3040.98 170.52C3048.02 175.32 3056.02 177.72 3064.98 177.72ZM3252.28 177.08C3252.6 177.08 3252.76 177.4 3252.76 178.04C3252.76 178.68 3252.6 179 3252.28 179C3248.97 179 3246.36 178.947 3244.44 178.84L3233.72 178.68L3223.8 178.84C3222.2 178.947 3219.96 179 3217.08 179C3216.86 179 3216.76 178.68 3216.76 178.04C3216.76 177.4 3216.86 177.08 3217.08 177.08C3220.81 177.08 3223.53 176.813 3225.24 176.28C3227.05 175.64 3228.22 174.573 3228.76 173.08C3229.4 171.587 3229.61 169.24 3229.4 166.04L3226.68 91.64L3189.24 177.88C3189.02 178.307 3188.6 178.52 3187.96 178.52C3187.42 178.52 3186.94 178.307 3186.52 177.88L3147.48 92.28L3147.32 91.96L3146.04 162.36C3145.93 167.907 3146.84 171.747 3148.76 173.88C3150.68 176.013 3154.25 177.08 3159.48 177.08C3159.69 177.08 3159.8 177.4 3159.8 178.04C3159.8 178.68 3159.69 179 3159.48 179C3156.49 179 3154.2 178.947 3152.6 178.84L3143.96 178.68L3136.12 178.84C3134.73 178.947 3132.65 179 3129.88 179C3129.66 179 3129.56 178.68 3129.56 178.04C3129.56 177.4 3129.66 177.08 3129.88 177.08C3134.36 177.08 3137.5 176.013 3139.32 173.88C3141.24 171.64 3142.25 167.8 3142.36 162.36L3143.96 86.52C3140.65 82.7867 3136.33 80.92 3131 80.92C3130.78 80.92 3130.68 80.6 3130.68 79.96C3130.68 79.32 3130.78 79 3131 79L3136.44 79.16C3137.5 79.2667 3138.89 79.32 3140.6 79.32C3142.3 79.32 3143.74 79.2667 3144.92 79.16C3146.09 79.0533 3147 79 3147.64 79C3149.13 79 3150.3 79.5333 3151.16 80.6C3152.01 81.56 3153.29 83.8 3155 87.32L3191 165.08L3226.84 83C3227.37 81.8267 3228.06 80.8667 3228.92 80.12C3229.88 79.3733 3230.78 79 3231.64 79C3232.06 79 3232.76 79.0533 3233.72 79.16C3234.68 79.2667 3236.01 79.32 3237.72 79.32L3244.92 79.16C3245.98 79.0533 3247.64 79 3249.88 79C3250.09 79 3250.2 79.32 3250.2 79.96C3250.2 80.6 3250.09 80.92 3249.88 80.92C3244.33 80.92 3240.38 81.6667 3238.04 83.16C3235.8 84.5467 3234.73 87.3733 3234.84 91.64L3237.88 166.04C3237.98 169.347 3238.36 171.747 3239 173.24C3239.74 174.733 3241.08 175.747 3243 176.28C3245.02 176.813 3248.12 177.08 3252.28 177.08ZM3340.99 179.64C3337.9 179.64 3334.43 179.48 3330.59 179.16C3329.1 179.053 3327.23 178.947 3324.99 178.84C3322.86 178.733 3320.46 178.68 3317.79 178.68L3307.23 178.84C3305.31 178.947 3302.64 179 3299.23 179C3299.02 179 3298.91 178.68 3298.91 178.04C3298.91 177.4 3299.02 177.08 3299.23 177.08C3303.39 177.08 3306.43 176.813 3308.35 176.28C3310.38 175.747 3311.76 174.733 3312.51 173.24C3313.26 171.64 3313.63 169.24 3313.63 166.04V91.96C3313.63 88.76 3313.26 86.4133 3312.51 84.92C3311.87 83.4267 3310.54 82.4133 3308.51 81.88C3306.59 81.24 3303.55 80.92 3299.39 80.92C3299.18 80.92 3299.07 80.6 3299.07 79.96C3299.07 79.32 3299.18 79 3299.39 79L3307.23 79.16C3311.71 79.3733 3315.23 79.48 3317.79 79.48C3321.52 79.48 3325.31 79.32 3329.15 79C3333.84 78.7867 3337.04 78.68 3338.75 78.68C3349.95 78.68 3359.87 80.8133 3368.51 85.08C3377.15 89.3467 3383.82 95.16 3388.51 102.52C3393.31 109.88 3395.71 118.147 3395.71 127.32C3395.71 137.667 3393.2 146.84 3388.19 154.84C3383.28 162.733 3376.67 168.867 3368.35 173.24C3360.03 177.507 3350.91 179.64 3340.99 179.64ZM3339.39 177.56C3348.35 177.56 3356.3 175.747 3363.23 172.12C3370.16 168.493 3375.55 163.16 3379.39 156.12C3383.34 149.08 3385.31 140.653 3385.31 130.84C3385.31 121.453 3383.44 112.973 3379.71 105.4C3376.08 97.8267 3370.8 91.8533 3363.87 87.48C3357.04 83 3349.15 80.76 3340.19 80.76C3335.5 80.76 3331.87 81.0267 3329.31 81.56C3326.86 82.0933 3325.04 83.2133 3323.87 84.92C3322.7 86.52 3322.11 88.9733 3322.11 92.28V164.28C3322.11 167.48 3322.59 170.04 3323.55 171.96C3324.51 173.88 3326.22 175.32 3328.67 176.28C3331.12 177.133 3334.7 177.56 3339.39 177.56ZM3478.83 155.64C3478.83 155.32 3479.15 155.213 3479.79 155.32C3480.43 155.32 3480.75 155.48 3480.75 155.8C3479.79 162.52 3479.31 169.453 3479.31 176.6C3479.31 177.453 3479.09 178.093 3478.67 178.52C3478.35 178.84 3477.71 179 3476.75 179H3410.67C3410.45 179 3410.35 178.68 3410.35 178.04C3410.35 177.4 3410.45 177.08 3410.67 177.08C3414.83 177.08 3417.87 176.813 3419.79 176.28C3421.81 175.747 3423.15 174.733 3423.79 173.24C3424.53 171.64 3424.91 169.24 3424.91 166.04V91.96C3424.91 88.76 3424.53 86.4133 3423.79 84.92C3423.15 83.4267 3421.81 82.4133 3419.79 81.88C3417.87 81.24 3414.83 80.92 3410.67 80.92C3410.45 80.92 3410.35 80.6 3410.35 79.96C3410.35 79.32 3410.45 79 3410.67 79H3474.03C3474.99 79 3475.47 79.48 3475.47 80.44L3475.79 99.8C3475.79 100.12 3475.47 100.28 3474.83 100.28C3474.29 100.28 3474.03 100.12 3474.03 99.8C3474.03 94.36 3472.59 90.04 3469.71 86.84C3466.83 83.64 3463.04 82.04 3458.35 82.04H3447.31C3443.25 82.04 3440.27 82.3067 3438.35 82.84C3436.43 83.3733 3435.09 84.3867 3434.35 85.88C3433.71 87.3733 3433.39 89.72 3433.39 92.92V125.4H3454.51C3459.41 125.4 3462.83 124.6 3464.75 123C3466.67 121.293 3467.63 118.413 3467.63 114.36C3467.63 114.147 3467.95 114.04 3468.59 114.04C3469.23 114.04 3469.55 114.147 3469.55 114.36L3469.39 127C3469.39 130.093 3469.44 132.387 3469.55 133.88L3469.71 141.4C3469.71 141.613 3469.39 141.72 3468.75 141.72C3468.11 141.72 3467.79 141.613 3467.79 141.4C3467.79 136.6 3466.77 133.24 3464.75 131.32C3462.72 129.4 3459.15 128.44 3454.03 128.44H3433.39V165.4C3433.39 168.493 3433.71 170.787 3434.35 172.28C3435.09 173.667 3436.37 174.627 3438.19 175.16C3440.11 175.693 3443.15 175.96 3447.31 175.96H3462.03C3466.29 175.96 3469.92 174.093 3472.91 170.36C3476 166.627 3477.97 161.72 3478.83 155.64ZM3511.02 98.36C3511.02 102.627 3512.03 106.307 3514.06 109.4C3516.08 112.493 3518.54 115.107 3521.42 117.24C3524.4 119.267 3528.51 121.827 3533.74 124.92C3539.28 128.227 3543.55 131 3546.54 133.24C3549.63 135.373 3552.24 138.147 3554.38 141.56C3556.62 144.973 3557.74 149.08 3557.74 153.88C3557.74 158.893 3556.51 163.48 3554.06 167.64C3551.6 171.693 3547.92 174.947 3543.02 177.4C3538.22 179.747 3532.3 180.92 3525.26 180.92C3521.52 180.92 3517.95 180.493 3514.54 179.64C3511.23 178.893 3507.55 177.507 3503.5 175.48C3502.96 175.16 3502.59 174.787 3502.38 174.36C3502.27 173.933 3502.16 173.293 3502.06 172.44L3499.66 151.64V151.48C3499.66 151.053 3499.92 150.84 3500.46 150.84C3500.99 150.733 3501.31 150.893 3501.42 151.32C3502.48 158.68 3505.31 165.08 3509.9 170.52C3514.48 175.96 3520.78 178.68 3528.78 178.68C3534.43 178.68 3539.18 177.133 3543.02 174.04C3546.96 170.947 3548.94 166.093 3548.94 159.48C3548.94 154.68 3547.87 150.573 3545.74 147.16C3543.6 143.64 3540.99 140.76 3537.9 138.52C3534.91 136.173 3530.8 133.453 3525.58 130.36C3520.46 127.373 3516.4 124.76 3513.42 122.52C3510.54 120.28 3508.03 117.507 3505.9 114.2C3503.87 110.787 3502.86 106.733 3502.86 102.04C3502.86 96.7067 3504.19 92.1733 3506.86 88.44C3509.63 84.7067 3513.2 81.9333 3517.58 80.12C3521.95 78.2 3526.64 77.24 3531.66 77.24C3537.52 77.24 3543.6 78.52 3549.9 81.08C3551.5 81.72 3552.3 82.6267 3552.3 83.8L3553.74 100.76C3553.74 101.187 3553.42 101.4 3552.78 101.4C3552.24 101.4 3551.92 101.187 3551.82 100.76C3551.39 95.2133 3549.31 90.2533 3545.58 85.88C3541.84 81.5067 3536.51 79.32 3529.58 79.32C3523.18 79.32 3518.48 81.1867 3515.5 84.92C3512.51 88.6533 3511.02 93.1333 3511.02 98.36ZM3597.31 166.04C3597.31 169.347 3597.63 171.747 3598.27 173.24C3599.02 174.733 3600.35 175.747 3602.27 176.28C3604.19 176.813 3607.29 177.08 3611.55 177.08C3611.77 177.08 3611.87 177.4 3611.87 178.04C3611.87 178.68 3611.77 179 3611.55 179C3608.35 179 3605.85 178.947 3604.03 178.84L3592.83 178.68L3582.11 178.84C3580.19 178.947 3577.58 179 3574.27 179C3573.95 179 3573.79 178.68 3573.79 178.04C3573.79 177.4 3573.95 177.08 3574.27 177.08C3578.43 177.08 3581.47 176.813 3583.39 176.28C3585.42 175.747 3586.81 174.733 3587.55 173.24C3588.3 171.64 3588.67 169.24 3588.67 166.04V91.96C3588.67 88.76 3588.3 86.4133 3587.55 84.92C3586.81 83.4267 3585.42 82.4133 3583.39 81.88C3581.47 81.24 3578.43 80.92 3574.27 80.92C3573.95 80.92 3573.79 80.6 3573.79 79.96C3573.79 79.32 3573.95 79 3574.27 79L3582.11 79.16C3586.59 79.3733 3590.17 79.48 3592.83 79.48C3595.82 79.48 3599.55 79.3733 3604.03 79.16L3611.55 79C3611.77 79 3611.87 79.32 3611.87 79.96C3611.87 80.6 3611.77 80.92 3611.55 80.92C3607.39 80.92 3604.3 81.24 3602.27 81.88C3600.35 82.52 3599.02 83.64 3598.27 85.24C3597.63 86.7333 3597.31 89.08 3597.31 92.28V166.04ZM3684.05 180.92C3672.42 180.92 3662.29 178.68 3653.65 174.2C3645.11 169.72 3638.55 163.64 3633.97 155.96C3629.49 148.28 3627.25 139.693 3627.25 130.2C3627.25 119.853 3629.86 110.68 3635.09 102.68C3640.42 94.68 3647.67 88.44 3656.85 83.96C3666.13 79.48 3676.58 77.24 3688.21 77.24C3693.43 77.24 3698.34 77.7733 3702.93 78.84C3707.62 79.9067 3711.51 81.4 3714.61 83.32C3715.35 83.8533 3715.78 84.3333 3715.89 84.76C3716.1 85.08 3716.21 85.5067 3716.21 86.04C3716.31 86.4667 3716.37 86.7867 3716.37 87L3718.29 103.8C3718.29 104.12 3717.97 104.333 3717.33 104.44C3716.79 104.44 3716.47 104.28 3716.37 103.96C3714.34 96.3867 3710.34 90.6267 3704.37 86.68C3698.39 82.6267 3690.82 80.6 3681.65 80.6C3667.57 80.6 3656.63 84.4933 3648.85 92.28C3641.06 100.067 3637.17 110.84 3637.17 124.6C3637.17 134.84 3639.35 144.067 3643.73 152.28C3648.1 160.387 3654.13 166.733 3661.81 171.32C3669.59 175.907 3678.29 178.2 3687.89 178.2C3693.65 178.2 3698.07 177.72 3701.17 176.76C3704.37 175.8 3706.66 173.933 3708.05 171.16C3709.54 168.387 3710.29 164.28 3710.29 158.84C3710.29 153.293 3709.91 149.453 3709.17 147.32C3708.42 145.08 3706.82 143.587 3704.37 142.84C3701.91 142.093 3697.65 141.72 3691.57 141.72C3690.93 141.72 3690.61 141.293 3690.61 140.44C3690.61 140.12 3690.66 139.853 3690.77 139.64C3690.98 139.32 3691.19 139.16 3691.41 139.16C3699.62 139.693 3706.23 139.96 3711.25 139.96C3716.05 139.96 3721.17 139.8 3726.61 139.48C3726.82 139.48 3726.98 139.64 3727.09 139.96C3727.3 140.173 3727.41 140.387 3727.41 140.6C3727.41 141.347 3727.14 141.72 3726.61 141.72C3723.83 141.613 3721.86 141.987 3720.69 142.84C3719.51 143.587 3718.77 145.187 3718.45 147.64C3718.13 150.093 3717.97 154.36 3717.97 160.44C3717.97 165.24 3718.13 168.653 3718.45 170.68C3718.87 172.707 3719.09 173.987 3719.09 174.52C3719.09 175.16 3718.98 175.587 3718.77 175.8C3718.55 176.013 3718.07 176.227 3717.33 176.44C3704.85 179.427 3693.75 180.92 3684.05 180.92ZM3845.31 79C3845.63 79 3845.79 79.32 3845.79 79.96C3845.79 80.6 3845.63 80.92 3845.31 80.92C3840.72 80.92 3837.47 82.04 3835.55 84.28C3833.74 86.52 3832.83 90.36 3832.83 95.8V180.76C3832.83 180.973 3832.56 181.133 3832.03 181.24C3831.5 181.347 3831.12 181.293 3830.91 181.08L3758.59 92.12L3755.87 89.08V162.36C3755.87 167.8 3756.78 171.64 3758.59 173.88C3760.4 176.013 3763.55 177.08 3768.03 177.08C3768.35 177.08 3768.51 177.4 3768.51 178.04C3768.51 178.68 3768.35 179 3768.03 179C3765.47 179 3763.5 178.947 3762.11 178.84L3754.43 178.68L3746.59 178.84C3745.2 178.947 3743.12 179 3740.35 179C3740.14 179 3740.03 178.68 3740.03 178.04C3740.03 177.4 3740.14 177.08 3740.35 177.08C3744.94 177.08 3748.08 176.013 3749.79 173.88C3751.5 171.747 3752.35 167.907 3752.35 162.36V85.72C3748.62 82.52 3744.78 80.92 3740.83 80.92C3740.51 80.92 3740.35 80.6 3740.35 79.96C3740.35 79.32 3740.51 79 3740.83 79L3746.59 79.16C3747.76 79.2667 3749.42 79.32 3751.55 79.32C3753.36 79.32 3754.86 79.2667 3756.03 79.16C3757.2 79.0533 3758.11 79 3758.75 79C3759.5 79 3760.08 79.2133 3760.51 79.64C3761.04 79.96 3761.63 80.7067 3762.27 81.88C3763.44 83.8 3764.72 85.6133 3766.11 87.32L3829.31 165.88V95.8C3829.31 90.36 3828.46 86.52 3826.75 84.28C3825.04 82.04 3821.95 80.92 3817.47 80.92C3817.26 80.92 3817.15 80.6 3817.15 79.96C3817.15 79.32 3817.26 79 3817.47 79L3823.55 79.16C3826.75 79.3733 3829.31 79.48 3831.23 79.48C3833.04 79.48 3835.66 79.3733 3839.07 79.16L3845.31 79Z" fill="#E2E2E2"/>
<circle cx="3914.5" cy="127.5" r="18.5" fill="#E2E2E2"/>
</svg>
