<svg width="4010" height="250" viewBox="0 0 4010 250" fill="none" xmlns="http://www.w3.org/2000/svg">
<path d="M96.16 72H104.64V184H96.16V130.08H23.52V184H15.04V72H23.52V121.92H96.16V72ZM134.731 184V72H143.211V184H134.731ZM224.041 131.36V139.52H173.321V131.36H224.041ZM290.586 72C307.013 72 320.666 77.28 331.546 87.84C342.533 98.2933 348.026 111.68 348.026 128C348.026 144.213 342.533 157.6 331.546 168.16C320.56 178.72 306.906 184 290.586 184H253.946V72H290.586ZM290.906 175.84C304.666 175.84 316.186 171.36 325.466 162.4C334.746 153.44 339.44 141.973 339.546 128C339.546 114.133 334.853 102.72 325.466 93.76C316.186 84.6933 304.666 80.16 290.906 80.16H262.426V175.84H290.906ZM426.121 70.24C442.441 70.24 456.095 75.7867 467.081 86.88C478.068 97.8667 483.561 111.573 483.561 128C483.561 144.427 478.068 158.187 467.081 169.28C456.095 180.267 442.441 185.76 426.121 185.76C409.801 185.76 396.095 180.267 385.001 169.28C374.015 158.187 368.521 144.427 368.521 128C368.521 111.573 374.068 97.8667 385.161 86.88C396.255 75.7867 409.908 70.24 426.121 70.24ZM460.841 92.64C451.455 83.1467 439.881 78.4 426.121 78.4C412.361 78.4 400.735 83.1467 391.241 92.64C381.855 102.133 377.161 113.92 377.161 128C377.161 142.08 381.855 153.867 391.241 163.36C400.735 172.853 412.361 177.6 426.121 177.6C439.881 177.6 451.455 172.853 460.841 163.36C470.335 153.867 475.028 142.08 474.921 128C475.028 113.92 470.335 102.133 460.841 92.64ZM597.27 72H608.63V184H600.15V81.92L558.71 144.16H557.75L516.47 81.92V184H507.99V72H519.19L558.39 130.56L597.27 72ZM723.243 72C739.669 72 753.323 77.28 764.203 87.84C775.189 98.2933 780.683 111.68 780.683 128C780.683 144.213 775.189 157.6 764.203 168.16C753.216 178.72 739.563 184 723.243 184H686.603V72H723.243ZM723.563 175.84C737.323 175.84 748.843 171.36 758.123 162.4C767.403 153.44 772.096 141.973 772.203 128C772.203 114.133 767.509 102.72 758.123 93.76C748.843 84.6933 737.323 80.16 723.563 80.16H695.082V175.84H723.563ZM875.098 80.16H814.457V122.08H871.418V130.24H814.457V175.84H875.098V184H805.978V72H875.098V80.16ZM935.936 123.04C941.91 124.32 946.603 125.44 950.016 126.4C953.536 127.36 957.27 128.693 961.216 130.4C965.163 132 968.096 133.76 970.016 135.68C972.043 137.6 973.75 140.107 975.136 143.2C976.523 146.187 977.216 149.653 977.216 153.6C977.216 163.947 973.43 171.893 965.856 177.44C958.283 182.987 948.683 185.76 937.056 185.76C923.51 185.76 912.79 182.667 904.896 176.48C897.11 170.293 892.203 161.973 890.176 151.52H898.656C903.136 169.013 915.83 177.76 936.736 177.76C946.55 177.76 954.336 175.68 960.096 171.52C965.856 167.36 968.736 161.547 968.736 154.08C968.736 147.467 966.23 142.773 961.216 140C956.203 137.12 947.136 134.24 934.016 131.36C926.87 129.76 921.11 128.267 916.736 126.88C912.363 125.387 908.203 123.52 904.256 121.28C900.416 119.04 897.643 116.32 895.936 113.12C894.23 109.92 893.376 106.027 893.376 101.44C893.376 91.84 897.056 84.2667 904.416 78.72C911.883 73.0667 921.216 70.24 932.416 70.24C944.15 70.24 953.643 72.6933 960.896 77.6C968.15 82.5067 973.003 89.1733 975.456 97.6H966.976C961.643 84.6933 950.23 78.24 932.736 78.24C923.456 78.24 915.99 80.32 910.336 84.48C904.683 88.64 901.856 94.4 901.856 101.76C901.856 107.2 904.203 111.36 908.896 114.24C913.59 117.12 922.603 120.053 935.936 123.04ZM999.888 184V72H1008.37V184H999.888ZM1086 127.04H1144.56V184H1136.88V154.08C1133.89 164 1128.24 171.787 1119.92 177.44C1111.6 182.987 1101.89 185.76 1090.8 185.76C1074.48 185.76 1060.88 180.267 1050 169.28C1039.12 158.293 1033.68 144.533 1033.68 128C1033.68 111.36 1039.17 97.6 1050.16 86.72C1061.14 75.7333 1074.8 70.24 1091.12 70.24C1103.38 70.24 1114.16 73.4933 1123.44 80C1132.82 86.4 1139.6 95.0933 1143.76 106.08H1134.64C1130.8 97.6533 1124.98 90.9333 1117.2 85.92C1109.52 80.9067 1100.77 78.4 1090.96 78.4C1077.2 78.4 1065.62 83.2 1056.24 92.8C1046.85 102.293 1042.16 114.133 1042.16 128.32C1042.16 142.293 1046.8 154.027 1056.08 163.52C1065.36 173.013 1077.04 177.76 1091.12 177.76C1103.92 177.76 1114.53 173.76 1122.96 165.76C1131.38 157.76 1135.76 147.36 1136.08 134.56H1086V127.04ZM1253.95 72H1262.43V184H1251.07L1180.83 82.24L1181.47 137.12V184H1172.99V72H1184.19L1254.59 173.76L1253.95 118.88V72Z" fill="black"/>
<ellipse cx="1309" cy="125.851" rx="10" ry="9.7559" fill="black"/>
<path d="M1433.16 72H1441.64V184H1433.16V130.08H1360.52V184H1352.04V72H1360.52V121.92H1433.16V72ZM1471.73 184V72H1480.21V184H1471.73ZM1561.04 131.36V139.52H1510.32V131.36H1561.04ZM1627.59 72C1644.01 72 1657.67 77.28 1668.55 87.84C1679.53 98.2933 1685.03 111.68 1685.03 128C1685.03 144.213 1679.53 157.6 1668.55 168.16C1657.56 178.72 1643.91 184 1627.59 184H1590.95V72H1627.59ZM1627.91 175.84C1641.67 175.84 1653.19 171.36 1662.47 162.4C1671.75 153.44 1676.44 141.973 1676.55 128C1676.55 114.133 1671.85 102.72 1662.47 93.76C1653.19 84.6933 1641.67 80.16 1627.91 80.16H1599.43V175.84H1627.91ZM1763.12 70.24C1779.44 70.24 1793.09 75.7867 1804.08 86.88C1815.07 97.8667 1820.56 111.573 1820.56 128C1820.56 144.427 1815.07 158.187 1804.08 169.28C1793.09 180.267 1779.44 185.76 1763.12 185.76C1746.8 185.76 1733.09 180.267 1722 169.28C1711.01 158.187 1705.52 144.427 1705.52 128C1705.52 111.573 1711.07 97.8667 1722.16 86.88C1733.25 75.7867 1746.91 70.24 1763.12 70.24ZM1797.84 92.64C1788.45 83.1467 1776.88 78.4 1763.12 78.4C1749.36 78.4 1737.73 83.1467 1728.24 92.64C1718.85 102.133 1714.16 113.92 1714.16 128C1714.16 142.08 1718.85 153.867 1728.24 163.36C1737.73 172.853 1749.36 177.6 1763.12 177.6C1776.88 177.6 1788.45 172.853 1797.84 163.36C1807.33 153.867 1812.03 142.08 1811.92 128C1812.03 113.92 1807.33 102.133 1797.84 92.64ZM1934.27 72H1945.63V184H1937.15V81.92L1895.71 144.16H1894.75L1853.47 81.92V184H1844.99V72H1856.19L1895.39 130.56L1934.27 72ZM2060.24 72C2076.67 72 2090.32 77.28 2101.2 87.84C2112.19 98.2933 2117.68 111.68 2117.68 128C2117.68 144.213 2112.19 157.6 2101.2 168.16C2090.22 178.72 2076.56 184 2060.24 184H2023.6V72H2060.24ZM2060.56 175.84C2074.32 175.84 2085.84 171.36 2095.12 162.4C2104.4 153.44 2109.1 141.973 2109.2 128C2109.2 114.133 2104.51 102.72 2095.12 93.76C2085.84 84.6933 2074.32 80.16 2060.56 80.16H2032.08V175.84H2060.56ZM2212.1 80.16H2151.46V122.08H2208.42V130.24H2151.46V175.84H2212.1V184H2142.98V72H2212.1V80.16ZM2272.94 123.04C2278.91 124.32 2283.6 125.44 2287.02 126.4C2290.54 127.36 2294.27 128.693 2298.22 130.4C2302.16 132 2305.1 133.76 2307.02 135.68C2309.04 137.6 2310.75 140.107 2312.14 143.2C2313.52 146.187 2314.22 149.653 2314.22 153.6C2314.22 163.947 2310.43 171.893 2302.86 177.44C2295.28 182.987 2285.68 185.76 2274.06 185.76C2260.51 185.76 2249.79 182.667 2241.9 176.48C2234.11 170.293 2229.2 161.973 2227.18 151.52H2235.66C2240.14 169.013 2252.83 177.76 2273.74 177.76C2283.55 177.76 2291.34 175.68 2297.1 171.52C2302.86 167.36 2305.74 161.547 2305.74 154.08C2305.74 147.467 2303.23 142.773 2298.22 140C2293.2 137.12 2284.14 134.24 2271.02 131.36C2263.87 129.76 2258.11 128.267 2253.74 126.88C2249.36 125.387 2245.2 123.52 2241.26 121.28C2237.42 119.04 2234.64 116.32 2232.94 113.12C2231.23 109.92 2230.38 106.027 2230.38 101.44C2230.38 91.84 2234.06 84.2667 2241.42 78.72C2248.88 73.0667 2258.22 70.24 2269.42 70.24C2281.15 70.24 2290.64 72.6933 2297.9 77.6C2305.15 82.5067 2310 89.1733 2312.46 97.6H2303.98C2298.64 84.6933 2287.23 78.24 2269.74 78.24C2260.46 78.24 2252.99 80.32 2247.34 84.48C2241.68 88.64 2238.86 94.4 2238.86 101.76C2238.86 107.2 2241.2 111.36 2245.9 114.24C2250.59 117.12 2259.6 120.053 2272.94 123.04ZM2336.89 184V72H2345.37V184H2336.89ZM2423 127.04H2481.56V184H2473.88V154.08C2470.89 164 2465.24 171.787 2456.92 177.44C2448.6 182.987 2438.89 185.76 2427.8 185.76C2411.48 185.76 2397.88 180.267 2387 169.28C2376.12 158.293 2370.68 144.533 2370.68 128C2370.68 111.36 2376.17 97.6 2387.16 86.72C2398.14 75.7333 2411.8 70.24 2428.12 70.24C2440.38 70.24 2451.16 73.4933 2460.44 80C2469.82 86.4 2476.6 95.0933 2480.76 106.08H2471.64C2467.8 97.6533 2461.98 90.9333 2454.2 85.92C2446.52 80.9067 2437.77 78.4 2427.96 78.4C2414.2 78.4 2402.62 83.2 2393.24 92.8C2383.85 102.293 2379.16 114.133 2379.16 128.32C2379.16 142.293 2383.8 154.027 2393.08 163.52C2402.36 173.013 2414.04 177.76 2428.12 177.76C2440.92 177.76 2451.53 173.76 2459.96 165.76C2468.38 157.76 2472.76 147.36 2473.08 134.56H2423V127.04ZM2590.95 72H2599.43V184H2588.07L2517.83 82.24L2518.47 137.12V184H2509.99V72H2521.19L2591.59 173.76L2590.95 118.88V72Z" fill="black"/>
<ellipse cx="2645" cy="125.851" rx="10" ry="9.7559" fill="black"/>
<ellipse cx="2645" cy="125.851" rx="10" ry="9.7559" fill="black"/>
<path d="M2770.16 72H2778.64V184H2770.16V130.08H2697.52V184H2689.04V72H2697.52V121.92H2770.16V72ZM2808.73 184V72H2817.21V184H2808.73ZM2898.04 131.36V139.52H2847.32V131.36H2898.04ZM2964.59 72C2981.01 72 2994.67 77.28 3005.55 87.84C3016.53 98.2933 3022.03 111.68 3022.03 128C3022.03 144.213 3016.53 157.6 3005.55 168.16C2994.56 178.72 2980.91 184 2964.59 184H2927.95V72H2964.59ZM2964.91 175.84C2978.67 175.84 2990.19 171.36 2999.47 162.4C3008.75 153.44 3013.44 141.973 3013.55 128C3013.55 114.133 3008.85 102.72 2999.47 93.76C2990.19 84.6933 2978.67 80.16 2964.91 80.16H2936.43V175.84H2964.91ZM3100.12 70.24C3116.44 70.24 3130.09 75.7867 3141.08 86.88C3152.07 97.8667 3157.56 111.573 3157.56 128C3157.56 144.427 3152.07 158.187 3141.08 169.28C3130.09 180.267 3116.44 185.76 3100.12 185.76C3083.8 185.76 3070.09 180.267 3059 169.28C3048.01 158.187 3042.52 144.427 3042.52 128C3042.52 111.573 3048.07 97.8667 3059.16 86.88C3070.25 75.7867 3083.91 70.24 3100.12 70.24ZM3134.84 92.64C3125.45 83.1467 3113.88 78.4 3100.12 78.4C3086.36 78.4 3074.73 83.1467 3065.24 92.64C3055.85 102.133 3051.16 113.92 3051.16 128C3051.16 142.08 3055.85 153.867 3065.24 163.36C3074.73 172.853 3086.36 177.6 3100.12 177.6C3113.88 177.6 3125.45 172.853 3134.84 163.36C3144.33 153.867 3149.03 142.08 3148.92 128C3149.03 113.92 3144.33 102.133 3134.84 92.64ZM3271.27 72H3282.63V184H3274.15V81.92L3232.71 144.16H3231.75L3190.47 81.92V184H3181.99V72H3193.19L3232.39 130.56L3271.27 72ZM3397.24 72C3413.67 72 3427.32 77.28 3438.2 87.84C3449.19 98.2933 3454.68 111.68 3454.68 128C3454.68 144.213 3449.19 157.6 3438.2 168.16C3427.22 178.72 3413.56 184 3397.24 184H3360.6V72H3397.24ZM3397.56 175.84C3411.32 175.84 3422.84 171.36 3432.12 162.4C3441.4 153.44 3446.1 141.973 3446.2 128C3446.2 114.133 3441.51 102.72 3432.12 93.76C3422.84 84.6933 3411.32 80.16 3397.56 80.16H3369.08V175.84H3397.56ZM3549.1 80.16H3488.46V122.08H3545.42V130.24H3488.46V175.84H3549.1V184H3479.98V72H3549.1V80.16ZM3609.94 123.04C3615.91 124.32 3620.6 125.44 3624.02 126.4C3627.54 127.36 3631.27 128.693 3635.22 130.4C3639.16 132 3642.1 133.76 3644.02 135.68C3646.04 137.6 3647.75 140.107 3649.14 143.2C3650.52 146.187 3651.22 149.653 3651.22 153.6C3651.22 163.947 3647.43 171.893 3639.86 177.44C3632.28 182.987 3622.68 185.76 3611.06 185.76C3597.51 185.76 3586.79 182.667 3578.9 176.48C3571.11 170.293 3566.2 161.973 3564.18 151.52H3572.66C3577.14 169.013 3589.83 177.76 3610.74 177.76C3620.55 177.76 3628.34 175.68 3634.1 171.52C3639.86 167.36 3642.74 161.547 3642.74 154.08C3642.74 147.467 3640.23 142.773 3635.22 140C3630.2 137.12 3621.14 134.24 3608.02 131.36C3600.87 129.76 3595.11 128.267 3590.74 126.88C3586.36 125.387 3582.2 123.52 3578.26 121.28C3574.42 119.04 3571.64 116.32 3569.94 113.12C3568.23 109.92 3567.38 106.027 3567.38 101.44C3567.38 91.84 3571.06 84.2667 3578.42 78.72C3585.88 73.0667 3595.22 70.24 3606.42 70.24C3618.15 70.24 3627.64 72.6933 3634.9 77.6C3642.15 82.5067 3647 89.1733 3649.46 97.6H3640.98C3635.64 84.6933 3624.23 78.24 3606.74 78.24C3597.46 78.24 3589.99 80.32 3584.34 84.48C3578.68 88.64 3575.86 94.4 3575.86 101.76C3575.86 107.2 3578.2 111.36 3582.9 114.24C3587.59 117.12 3596.6 120.053 3609.94 123.04ZM3673.89 184V72H3682.37V184H3673.89ZM3760 127.04H3818.56V184H3810.88V154.08C3807.89 164 3802.24 171.787 3793.92 177.44C3785.6 182.987 3775.89 185.76 3764.8 185.76C3748.48 185.76 3734.88 180.267 3724 169.28C3713.12 158.293 3707.68 144.533 3707.68 128C3707.68 111.36 3713.17 97.6 3724.16 86.72C3735.14 75.7333 3748.8 70.24 3765.12 70.24C3777.38 70.24 3788.16 73.4933 3797.44 80C3806.82 86.4 3813.6 95.0933 3817.76 106.08H3808.64C3804.8 97.6533 3798.98 90.9333 3791.2 85.92C3783.52 80.9067 3774.77 78.4 3764.96 78.4C3751.2 78.4 3739.62 83.2 3730.24 92.8C3720.85 102.293 3716.16 114.133 3716.16 128.32C3716.16 142.293 3720.8 154.027 3730.08 163.52C3739.36 173.013 3751.04 177.76 3765.12 177.76C3777.92 177.76 3788.53 173.76 3796.96 165.76C3805.38 157.76 3809.76 147.36 3810.08 134.56H3760V127.04ZM3927.95 72H3936.43V184H3925.07L3854.83 82.24L3855.47 137.12V184H3846.99V72H3858.19L3928.59 173.76L3927.95 118.88V72Z" fill="black"/>
<ellipse cx="3982" cy="126.756" rx="10" ry="9.7559" fill="black"/>
</svg>
