<svg width="668" height="76" viewBox="0 0 668 76" fill="none" xmlns="http://www.w3.org/2000/svg">
<path d="M28.8 44.52C28.88 44.52 28.92 44.6 28.92 44.76C28.92 44.92 28.88 45 28.8 45C27.9733 45 27.3333 44.9867 26.88 44.96L24.2 44.92L21.44 44.96C20.9867 44.9867 20.36 45 19.56 45C19.48 45 19.44 44.92 19.44 44.76C19.44 44.6 19.48 44.52 19.56 44.52C20.6267 44.52 21.4 44.4533 21.88 44.32C22.36 44.1867 22.68 43.9333 22.84 43.56C23.0267 43.1867 23.12 42.5867 23.12 41.76V32.36H7.16V41.76C7.16 42.5867 7.24 43.1867 7.4 43.56C7.58667 43.9333 7.92 44.1867 8.4 44.32C8.88 44.4533 9.65333 44.52 10.72 44.52C10.7733 44.52 10.8 44.6 10.8 44.76C10.8 44.92 10.7733 45 10.72 45C9.92 45 9.28 44.9867 8.8 44.96L6.08 44.92L3.44 44.96C2.96 44.9867 2.29333 45 1.44 45C1.38667 45 1.36 44.92 1.36 44.76C1.36 44.6 1.38667 44.52 1.44 44.52C2.48 44.52 3.24 44.4533 3.72 44.32C4.22667 44.1867 4.57333 43.9333 4.76 43.56C4.94667 43.16 5.04 42.56 5.04 41.76V23.24C5.04 22.44 4.94667 21.8533 4.76 21.48C4.6 21.1067 4.26667 20.8533 3.76 20.72C3.28 20.56 2.52 20.48 1.48 20.48C1.42667 20.48 1.4 20.4 1.4 20.24C1.4 20.08 1.42667 20 1.48 20L3.44 20.04C4.56 20.0933 5.44 20.12 6.08 20.12C6.8 20.12 7.72 20.0933 8.84 20.04L10.72 20C10.7733 20 10.8 20.08 10.8 20.24C10.8 20.4 10.7733 20.48 10.72 20.48C9.68 20.48 8.90667 20.56 8.4 20.72C7.92 20.88 7.58667 21.16 7.4 21.56C7.24 21.9333 7.16 22.52 7.16 23.32V31.6H23.12V23.32C23.12 22.52 23.0267 21.9333 22.84 21.56C22.68 21.16 22.3467 20.88 21.84 20.72C21.36 20.56 20.6 20.48 19.56 20.48C19.48 20.48 19.44 20.4 19.44 20.24C19.44 20.08 19.48 20 19.56 20L21.44 20.04C22.56 20.0933 23.48 20.12 24.2 20.12C24.8667 20.12 25.76 20.0933 26.88 20.04L28.8 20C28.88 20 28.92 20.08 28.92 20.24C28.92 20.4 28.88 20.48 28.8 20.48C27.76 20.48 26.9867 20.56 26.48 20.72C26 20.8533 25.6667 21.1067 25.48 21.48C25.2933 21.8533 25.2 22.44 25.2 23.24V41.76C25.2 42.56 25.2933 43.16 25.48 43.56C25.6667 43.9333 26 44.1867 26.48 44.32C26.9867 44.4533 27.76 44.52 28.8 44.52ZM37.9925 41.76C37.9925 42.5867 38.0725 43.1867 38.2325 43.56C38.4192 43.9333 38.7525 44.1867 39.2325 44.32C39.7125 44.4533 40.4858 44.52 41.5525 44.52C41.6058 44.52 41.6325 44.6 41.6325 44.76C41.6325 44.92 41.6058 45 41.5525 45C40.7525 45 40.1258 44.9867 39.6725 44.96L36.8725 44.92L34.1925 44.96C33.7125 44.9867 33.0592 45 32.2325 45C32.1525 45 32.1125 44.92 32.1125 44.76C32.1125 44.6 32.1525 44.52 32.2325 44.52C33.2725 44.52 34.0325 44.4533 34.5125 44.32C35.0192 44.1867 35.3658 43.9333 35.5525 43.56C35.7392 43.16 35.8325 42.56 35.8325 41.76V23.24C35.8325 22.44 35.7392 21.8533 35.5525 21.48C35.3658 21.1067 35.0192 20.8533 34.5125 20.72C34.0325 20.56 33.2725 20.48 32.2325 20.48C32.1525 20.48 32.1125 20.4 32.1125 20.24C32.1125 20.08 32.1525 20 32.2325 20L34.1925 20.04C35.3125 20.0933 36.2058 20.12 36.8725 20.12C37.6192 20.12 38.5525 20.0933 39.6725 20.04L41.5525 20C41.6058 20 41.6325 20.08 41.6325 20.24C41.6325 20.4 41.6058 20.48 41.5525 20.48C40.5125 20.48 39.7392 20.56 39.2325 20.72C38.7525 20.88 38.4192 21.16 38.2325 21.56C38.0725 21.9333 37.9925 22.52 37.9925 23.32V41.76ZM44.7956 34.24C44.7156 34.2667 44.6356 34.12 44.5556 33.8C44.5023 33.48 44.4756 33.1867 44.4756 32.92C44.4756 32.68 44.5023 32.56 44.5556 32.56L56.8356 30.68C56.9156 30.6533 56.9823 30.7867 57.0356 31.08C57.1156 31.3733 57.1556 31.6533 57.1556 31.92C57.1556 32.2133 57.1156 32.36 57.0356 32.36L44.7956 34.24ZM70.005 45.16C69.2317 45.16 68.365 45.12 67.405 45.04C67.0317 45.0133 66.565 44.9867 66.005 44.96C65.4717 44.9333 64.8717 44.92 64.205 44.92L61.565 44.96C61.085 44.9867 60.4183 45 59.565 45C59.5117 45 59.485 44.92 59.485 44.76C59.485 44.6 59.5117 44.52 59.565 44.52C60.605 44.52 61.365 44.4533 61.845 44.32C62.3517 44.1867 62.6983 43.9333 62.885 43.56C63.0717 43.16 63.165 42.56 63.165 41.76V23.24C63.165 22.44 63.0717 21.8533 62.885 21.48C62.725 21.1067 62.3917 20.8533 61.885 20.72C61.405 20.56 60.645 20.48 59.605 20.48C59.5517 20.48 59.525 20.4 59.525 20.24C59.525 20.08 59.5517 20 59.605 20L61.565 20.04C62.685 20.0933 63.565 20.12 64.205 20.12C65.1383 20.12 66.085 20.08 67.045 20C68.2183 19.9467 69.0183 19.92 69.445 19.92C72.245 19.92 74.725 20.4533 76.885 21.52C79.045 22.5867 80.7117 24.04 81.885 25.88C83.085 27.72 83.685 29.7867 83.685 32.08C83.685 34.6667 83.0583 36.96 81.805 38.96C80.5783 40.9333 78.925 42.4667 76.845 43.56C74.765 44.6267 72.485 45.16 70.005 45.16ZM69.605 44.64C71.845 44.64 73.8317 44.1867 75.565 43.28C77.2983 42.3733 78.645 41.04 79.605 39.28C80.5917 37.52 81.085 35.4133 81.085 32.96C81.085 30.6133 80.6183 28.4933 79.685 26.6C78.7783 24.7067 77.4583 23.2133 75.725 22.12C74.0183 21 72.045 20.44 69.805 20.44C68.6317 20.44 67.725 20.5067 67.085 20.64C66.4717 20.7733 66.0183 21.0533 65.725 21.48C65.4317 21.88 65.285 22.4933 65.285 23.32V41.32C65.285 42.12 65.405 42.76 65.645 43.24C65.885 43.72 66.3117 44.08 66.925 44.32C67.5383 44.5333 68.4317 44.64 69.605 44.64ZM100.304 45.48C97.8241 45.48 95.6107 44.9067 93.6641 43.76C91.7441 42.5867 90.2507 41.0133 89.1841 39.04C88.1441 37.04 87.6241 34.8667 87.6241 32.52C87.6241 29.7733 88.3174 27.4267 89.7041 25.48C91.0907 23.5067 92.8641 22.0267 95.0241 21.04C97.2107 20.0533 99.4374 19.56 101.704 19.56C104.237 19.56 106.464 20.16 108.384 21.36C110.304 22.5333 111.771 24.0933 112.784 26.04C113.824 27.9867 114.344 30.0533 114.344 32.24C114.344 34.6667 113.704 36.8933 112.424 38.92C111.144 40.9467 109.424 42.5467 107.264 43.72C105.131 44.8933 102.811 45.48 100.304 45.48ZM101.744 44.68C103.637 44.68 105.344 44.24 106.864 43.36C108.384 42.48 109.584 41.1867 110.464 39.48C111.344 37.7733 111.784 35.7333 111.784 33.36C111.784 30.8533 111.291 28.6267 110.304 26.68C109.344 24.7067 107.971 23.1733 106.184 22.08C104.424 20.9867 102.371 20.44 100.024 20.44C96.9307 20.44 94.5174 21.4 92.7841 23.32C91.0507 25.24 90.1841 27.8533 90.1841 31.16C90.1841 33.64 90.6641 35.92 91.6241 38C92.6107 40.0533 93.9841 41.68 95.7441 42.88C97.5041 44.08 99.5041 44.68 101.744 44.68ZM148.569 44.52C148.649 44.52 148.689 44.6 148.689 44.76C148.689 44.92 148.649 45 148.569 45C147.742 45 147.089 44.9867 146.609 44.96L143.929 44.92L141.449 44.96C141.049 44.9867 140.489 45 139.769 45C139.716 45 139.689 44.92 139.689 44.76C139.689 44.6 139.716 44.52 139.769 44.52C140.702 44.52 141.382 44.4533 141.809 44.32C142.262 44.16 142.556 43.8933 142.689 43.52C142.849 43.1467 142.902 42.56 142.849 41.76L142.169 23.16L132.809 44.72C132.756 44.8267 132.649 44.88 132.489 44.88C132.356 44.88 132.236 44.8267 132.129 44.72L122.369 23.32L122.329 23.24L122.009 40.84C121.982 42.2267 122.209 43.1867 122.689 43.72C123.169 44.2533 124.062 44.52 125.369 44.52C125.422 44.52 125.449 44.6 125.449 44.76C125.449 44.92 125.422 45 125.369 45C124.622 45 124.049 44.9867 123.649 44.96L121.489 44.92L119.529 44.96C119.182 44.9867 118.662 45 117.969 45C117.916 45 117.889 44.92 117.889 44.76C117.889 44.6 117.916 44.52 117.969 44.52C119.089 44.52 119.876 44.2533 120.329 43.72C120.809 43.16 121.062 42.2 121.089 40.84L121.489 21.88C120.662 20.9467 119.582 20.48 118.249 20.48C118.196 20.48 118.169 20.4 118.169 20.24C118.169 20.08 118.196 20 118.249 20L119.609 20.04C119.876 20.0667 120.222 20.08 120.649 20.08C121.076 20.08 121.436 20.0667 121.729 20.04C122.022 20.0133 122.249 20 122.409 20C122.782 20 123.076 20.1333 123.289 20.4C123.502 20.64 123.822 21.2 124.249 22.08L133.249 41.52L142.209 21C142.342 20.7067 142.516 20.4667 142.729 20.28C142.969 20.0933 143.196 20 143.409 20C143.516 20 143.689 20.0133 143.929 20.04C144.169 20.0667 144.502 20.08 144.929 20.08L146.729 20.04C146.996 20.0133 147.409 20 147.969 20C148.022 20 148.049 20.08 148.049 20.24C148.049 20.4 148.022 20.48 147.969 20.48C146.582 20.48 145.596 20.6667 145.009 21.04C144.449 21.3867 144.182 22.0933 144.209 23.16L144.969 41.76C144.996 42.5867 145.089 43.1867 145.249 43.56C145.436 43.9333 145.769 44.1867 146.249 44.32C146.756 44.4533 147.529 44.52 148.569 44.52ZM170.747 45.16C169.974 45.16 169.107 45.12 168.147 45.04C167.774 45.0133 167.307 44.9867 166.747 44.96C166.214 44.9333 165.614 44.92 164.947 44.92L162.307 44.96C161.827 44.9867 161.161 45 160.307 45C160.254 45 160.227 44.92 160.227 44.76C160.227 44.6 160.254 44.52 160.307 44.52C161.347 44.52 162.107 44.4533 162.587 44.32C163.094 44.1867 163.441 43.9333 163.627 43.56C163.814 43.16 163.907 42.56 163.907 41.76V23.24C163.907 22.44 163.814 21.8533 163.627 21.48C163.467 21.1067 163.134 20.8533 162.627 20.72C162.147 20.56 161.387 20.48 160.347 20.48C160.294 20.48 160.267 20.4 160.267 20.24C160.267 20.08 160.294 20 160.347 20L162.307 20.04C163.427 20.0933 164.307 20.12 164.947 20.12C165.881 20.12 166.827 20.08 167.787 20C168.961 19.9467 169.761 19.92 170.187 19.92C172.987 19.92 175.467 20.4533 177.627 21.52C179.787 22.5867 181.454 24.04 182.627 25.88C183.827 27.72 184.427 29.7867 184.427 32.08C184.427 34.6667 183.801 36.96 182.547 38.96C181.321 40.9333 179.667 42.4667 177.587 43.56C175.507 44.6267 173.227 45.16 170.747 45.16ZM170.347 44.64C172.587 44.64 174.574 44.1867 176.307 43.28C178.041 42.3733 179.387 41.04 180.347 39.28C181.334 37.52 181.827 35.4133 181.827 32.96C181.827 30.6133 181.361 28.4933 180.427 26.6C179.521 24.7067 178.201 23.2133 176.467 22.12C174.761 21 172.787 20.44 170.547 20.44C169.374 20.44 168.467 20.5067 167.827 20.64C167.214 20.7733 166.761 21.0533 166.467 21.48C166.174 21.88 166.027 22.4933 166.027 23.32V41.32C166.027 42.12 166.147 42.76 166.387 43.24C166.627 43.72 167.054 44.08 167.667 44.32C168.281 44.5333 169.174 44.64 170.347 44.64ZM205.206 39.16C205.206 39.08 205.286 39.0533 205.446 39.08C205.606 39.08 205.686 39.12 205.686 39.2C205.446 40.88 205.326 42.6133 205.326 44.4C205.326 44.6133 205.273 44.7733 205.166 44.88C205.086 44.96 204.926 45 204.686 45H188.166C188.113 45 188.086 44.92 188.086 44.76C188.086 44.6 188.113 44.52 188.166 44.52C189.206 44.52 189.966 44.4533 190.446 44.32C190.953 44.1867 191.286 43.9333 191.446 43.56C191.633 43.16 191.726 42.56 191.726 41.76V23.24C191.726 22.44 191.633 21.8533 191.446 21.48C191.286 21.1067 190.953 20.8533 190.446 20.72C189.966 20.56 189.206 20.48 188.166 20.48C188.113 20.48 188.086 20.4 188.086 20.24C188.086 20.08 188.113 20 188.166 20H204.006C204.246 20 204.366 20.12 204.366 20.36L204.446 25.2C204.446 25.28 204.366 25.32 204.206 25.32C204.073 25.32 204.006 25.28 204.006 25.2C204.006 23.84 203.646 22.76 202.926 21.96C202.206 21.16 201.26 20.76 200.086 20.76H197.326C196.313 20.76 195.566 20.8267 195.086 20.96C194.606 21.0933 194.273 21.3467 194.086 21.72C193.926 22.0933 193.846 22.68 193.846 23.48V31.6H199.126C200.353 31.6 201.206 31.4 201.686 31C202.166 30.5733 202.406 29.8533 202.406 28.84C202.406 28.7867 202.486 28.76 202.646 28.76C202.806 28.76 202.886 28.7867 202.886 28.84L202.846 32C202.846 32.7733 202.86 33.3467 202.886 33.72L202.926 35.6C202.926 35.6533 202.846 35.68 202.686 35.68C202.526 35.68 202.446 35.6533 202.446 35.6C202.446 34.4 202.193 33.56 201.686 33.08C201.18 32.6 200.286 32.36 199.006 32.36H193.846V41.6C193.846 42.3733 193.926 42.9467 194.086 43.32C194.273 43.6667 194.593 43.9067 195.046 44.04C195.526 44.1733 196.286 44.24 197.326 44.24H201.006C202.073 44.24 202.98 43.7733 203.726 42.84C204.5 41.9067 204.993 40.68 205.206 39.16ZM213.254 24.84C213.254 25.9067 213.508 26.8267 214.014 27.6C214.521 28.3733 215.134 29.0267 215.854 29.56C216.601 30.0667 217.628 30.7067 218.934 31.48C220.321 32.3067 221.388 33 222.134 33.56C222.908 34.0933 223.561 34.7867 224.094 35.64C224.654 36.4933 224.934 37.52 224.934 38.72C224.934 39.9733 224.628 41.12 224.014 42.16C223.401 43.1733 222.481 43.9867 221.254 44.6C220.054 45.1867 218.574 45.48 216.814 45.48C215.881 45.48 214.988 45.3733 214.134 45.16C213.308 44.9733 212.388 44.6267 211.374 44.12C211.241 44.04 211.148 43.9467 211.094 43.84C211.068 43.7333 211.041 43.5733 211.014 43.36L210.414 38.16V38.12C210.414 38.0133 210.481 37.96 210.614 37.96C210.748 37.9333 210.828 37.9733 210.854 38.08C211.121 39.92 211.828 41.52 212.974 42.88C214.121 44.24 215.694 44.92 217.694 44.92C219.108 44.92 220.294 44.5333 221.254 43.76C222.241 42.9867 222.734 41.7733 222.734 40.12C222.734 38.92 222.468 37.8933 221.934 37.04C221.401 36.16 220.748 35.44 219.974 34.88C219.228 34.2933 218.201 33.6133 216.894 32.84C215.614 32.0933 214.601 31.44 213.854 30.88C213.134 30.32 212.508 29.6267 211.974 28.8C211.468 27.9467 211.214 26.9333 211.214 25.76C211.214 24.4267 211.548 23.2933 212.214 22.36C212.908 21.4267 213.801 20.7333 214.894 20.28C215.988 19.8 217.161 19.56 218.414 19.56C219.881 19.56 221.401 19.88 222.974 20.52C223.374 20.68 223.574 20.9067 223.574 21.2L223.934 25.44C223.934 25.5467 223.854 25.6 223.694 25.6C223.561 25.6 223.481 25.5467 223.454 25.44C223.348 24.0533 222.828 22.8133 221.894 21.72C220.961 20.6267 219.628 20.08 217.894 20.08C216.294 20.08 215.121 20.5467 214.374 21.48C213.628 22.4133 213.254 23.5333 213.254 24.84ZM234.828 41.76C234.828 42.5867 234.908 43.1867 235.068 43.56C235.255 43.9333 235.588 44.1867 236.068 44.32C236.548 44.4533 237.322 44.52 238.388 44.52C238.442 44.52 238.468 44.6 238.468 44.76C238.468 44.92 238.442 45 238.388 45C237.588 45 236.962 44.9867 236.508 44.96L233.708 44.92L231.028 44.96C230.548 44.9867 229.895 45 229.068 45C228.988 45 228.948 44.92 228.948 44.76C228.948 44.6 228.988 44.52 229.068 44.52C230.108 44.52 230.868 44.4533 231.348 44.32C231.855 44.1867 232.202 43.9333 232.388 43.56C232.575 43.16 232.668 42.56 232.668 41.76V23.24C232.668 22.44 232.575 21.8533 232.388 21.48C232.202 21.1067 231.855 20.8533 231.348 20.72C230.868 20.56 230.108 20.48 229.068 20.48C228.988 20.48 228.948 20.4 228.948 20.24C228.948 20.08 228.988 20 229.068 20L231.028 20.04C232.148 20.0933 233.042 20.12 233.708 20.12C234.455 20.12 235.388 20.0933 236.508 20.04L238.388 20C238.442 20 238.468 20.08 238.468 20.24C238.468 20.4 238.442 20.48 238.388 20.48C237.348 20.48 236.575 20.56 236.068 20.72C235.588 20.88 235.255 21.16 235.068 21.56C234.908 21.9333 234.828 22.52 234.828 23.32V41.76ZM256.512 45.48C253.605 45.48 251.072 44.92 248.912 43.8C246.778 42.68 245.138 41.16 243.992 39.24C242.872 37.32 242.312 35.1733 242.312 32.8C242.312 30.2133 242.965 27.92 244.272 25.92C245.605 23.92 247.418 22.36 249.712 21.24C252.032 20.12 254.645 19.56 257.552 19.56C258.858 19.56 260.085 19.6933 261.232 19.96C262.405 20.2267 263.378 20.6 264.152 21.08C264.338 21.2133 264.445 21.3333 264.472 21.44C264.525 21.52 264.552 21.6267 264.552 21.76C264.578 21.8667 264.592 21.9467 264.592 22L265.072 26.2C265.072 26.28 264.992 26.3333 264.832 26.36C264.698 26.36 264.618 26.32 264.592 26.24C264.085 24.3467 263.085 22.9067 261.592 21.92C260.098 20.9067 258.205 20.4 255.912 20.4C252.392 20.4 249.658 21.3733 247.712 23.32C245.765 25.2667 244.792 27.96 244.792 31.4C244.792 33.96 245.338 36.2667 246.432 38.32C247.525 40.3467 249.032 41.9333 250.952 43.08C252.898 44.2267 255.072 44.8 257.472 44.8C258.912 44.8 260.018 44.68 260.792 44.44C261.592 44.2 262.165 43.7333 262.512 43.04C262.885 42.3467 263.072 41.32 263.072 39.96C263.072 38.5733 262.978 37.6133 262.792 37.08C262.605 36.52 262.205 36.1467 261.592 35.96C260.978 35.7733 259.912 35.68 258.392 35.68C258.232 35.68 258.152 35.5733 258.152 35.36C258.152 35.28 258.165 35.2133 258.192 35.16C258.245 35.08 258.298 35.04 258.352 35.04C260.405 35.1733 262.058 35.24 263.312 35.24C264.512 35.24 265.792 35.2 267.152 35.12C267.205 35.12 267.245 35.16 267.272 35.24C267.325 35.2933 267.352 35.3467 267.352 35.4C267.352 35.5867 267.285 35.68 267.152 35.68C266.458 35.6533 265.965 35.7467 265.672 35.96C265.378 36.1467 265.192 36.5467 265.112 37.16C265.032 37.7733 264.992 38.84 264.992 40.36C264.992 41.56 265.032 42.4133 265.112 42.92C265.218 43.4267 265.272 43.7467 265.272 43.88C265.272 44.04 265.245 44.1467 265.192 44.2C265.138 44.2533 265.018 44.3067 264.832 44.36C261.712 45.1067 258.938 45.48 256.512 45.48ZM296.827 20C296.907 20 296.947 20.08 296.947 20.24C296.947 20.4 296.907 20.48 296.827 20.48C295.681 20.48 294.867 20.76 294.387 21.32C293.934 21.88 293.707 22.84 293.707 24.2V45.44C293.707 45.4933 293.641 45.5333 293.507 45.56C293.374 45.5867 293.281 45.5733 293.227 45.52L275.147 23.28L274.467 22.52V40.84C274.467 42.2 274.694 43.16 275.147 43.72C275.601 44.2533 276.387 44.52 277.507 44.52C277.587 44.52 277.627 44.6 277.627 44.76C277.627 44.92 277.587 45 277.507 45C276.867 45 276.374 44.9867 276.027 44.96L274.107 44.92L272.147 44.96C271.801 44.9867 271.281 45 270.587 45C270.534 45 270.507 44.92 270.507 44.76C270.507 44.6 270.534 44.52 270.587 44.52C271.734 44.52 272.521 44.2533 272.947 43.72C273.374 43.1867 273.587 42.2267 273.587 40.84V21.68C272.654 20.88 271.694 20.48 270.707 20.48C270.627 20.48 270.587 20.4 270.587 20.24C270.587 20.08 270.627 20 270.707 20L272.147 20.04C272.441 20.0667 272.854 20.08 273.387 20.08C273.841 20.08 274.214 20.0667 274.507 20.04C274.801 20.0133 275.027 20 275.187 20C275.374 20 275.521 20.0533 275.627 20.16C275.761 20.24 275.907 20.4267 276.067 20.72C276.361 21.2 276.681 21.6533 277.027 22.08L292.827 41.72V24.2C292.827 22.84 292.614 21.88 292.187 21.32C291.761 20.76 290.987 20.48 289.867 20.48C289.814 20.48 289.787 20.4 289.787 20.24C289.787 20.08 289.814 20 289.867 20L291.387 20.04C292.187 20.0933 292.827 20.12 293.307 20.12C293.761 20.12 294.414 20.0933 295.267 20.04L296.827 20Z" fill="#E2E2E2"/>
<circle cx="317.5" cy="34.6279" r="3.5" fill="#E2E2E2"/>
<path d="M366.8 44.52C366.88 44.52 366.92 44.6 366.92 44.76C366.92 44.92 366.88 45 366.8 45C365.973 45 365.333 44.9867 364.88 44.96L362.2 44.92L359.44 44.96C358.987 44.9867 358.36 45 357.56 45C357.48 45 357.44 44.92 357.44 44.76C357.44 44.6 357.48 44.52 357.56 44.52C358.627 44.52 359.4 44.4533 359.88 44.32C360.36 44.1867 360.68 43.9333 360.84 43.56C361.027 43.1867 361.12 42.5867 361.12 41.76V32.36H345.16V41.76C345.16 42.5867 345.24 43.1867 345.4 43.56C345.587 43.9333 345.92 44.1867 346.4 44.32C346.88 44.4533 347.653 44.52 348.72 44.52C348.773 44.52 348.8 44.6 348.8 44.76C348.8 44.92 348.773 45 348.72 45C347.92 45 347.28 44.9867 346.8 44.96L344.08 44.92L341.44 44.96C340.96 44.9867 340.293 45 339.44 45C339.387 45 339.36 44.92 339.36 44.76C339.36 44.6 339.387 44.52 339.44 44.52C340.48 44.52 341.24 44.4533 341.72 44.32C342.227 44.1867 342.573 43.9333 342.76 43.56C342.947 43.16 343.04 42.56 343.04 41.76V23.24C343.04 22.44 342.947 21.8533 342.76 21.48C342.6 21.1067 342.267 20.8533 341.76 20.72C341.28 20.56 340.52 20.48 339.48 20.48C339.427 20.48 339.4 20.4 339.4 20.24C339.4 20.08 339.427 20 339.48 20L341.44 20.04C342.56 20.0933 343.44 20.12 344.08 20.12C344.8 20.12 345.72 20.0933 346.84 20.04L348.72 20C348.773 20 348.8 20.08 348.8 20.24C348.8 20.4 348.773 20.48 348.72 20.48C347.68 20.48 346.907 20.56 346.4 20.72C345.92 20.88 345.587 21.16 345.4 21.56C345.24 21.9333 345.16 22.52 345.16 23.32V31.6H361.12V23.32C361.12 22.52 361.027 21.9333 360.84 21.56C360.68 21.16 360.347 20.88 359.84 20.72C359.36 20.56 358.6 20.48 357.56 20.48C357.48 20.48 357.44 20.4 357.44 20.24C357.44 20.08 357.48 20 357.56 20L359.44 20.04C360.56 20.0933 361.48 20.12 362.2 20.12C362.867 20.12 363.76 20.0933 364.88 20.04L366.8 20C366.88 20 366.92 20.08 366.92 20.24C366.92 20.4 366.88 20.48 366.8 20.48C365.76 20.48 364.987 20.56 364.48 20.72C364 20.8533 363.667 21.1067 363.48 21.48C363.293 21.8533 363.2 22.44 363.2 23.24V41.76C363.2 42.56 363.293 43.16 363.48 43.56C363.667 43.9333 364 44.1867 364.48 44.32C364.987 44.4533 365.76 44.52 366.8 44.52ZM375.993 41.76C375.993 42.5867 376.073 43.1867 376.233 43.56C376.419 43.9333 376.753 44.1867 377.233 44.32C377.713 44.4533 378.486 44.52 379.553 44.52C379.606 44.52 379.633 44.6 379.633 44.76C379.633 44.92 379.606 45 379.553 45C378.753 45 378.126 44.9867 377.673 44.96L374.873 44.92L372.193 44.96C371.713 44.9867 371.059 45 370.233 45C370.153 45 370.113 44.92 370.113 44.76C370.113 44.6 370.153 44.52 370.233 44.52C371.273 44.52 372.033 44.4533 372.513 44.32C373.019 44.1867 373.366 43.9333 373.553 43.56C373.739 43.16 373.833 42.56 373.833 41.76V23.24C373.833 22.44 373.739 21.8533 373.553 21.48C373.366 21.1067 373.019 20.8533 372.513 20.72C372.033 20.56 371.273 20.48 370.233 20.48C370.153 20.48 370.113 20.4 370.113 20.24C370.113 20.08 370.153 20 370.233 20L372.193 20.04C373.313 20.0933 374.206 20.12 374.873 20.12C375.619 20.12 376.553 20.0933 377.673 20.04L379.553 20C379.606 20 379.633 20.08 379.633 20.24C379.633 20.4 379.606 20.48 379.553 20.48C378.513 20.48 377.739 20.56 377.233 20.72C376.753 20.88 376.419 21.16 376.233 21.56C376.073 21.9333 375.993 22.52 375.993 23.32V41.76ZM382.796 34.24C382.716 34.2667 382.636 34.12 382.556 33.8C382.502 33.48 382.476 33.1867 382.476 32.92C382.476 32.68 382.502 32.56 382.556 32.56L394.836 30.68C394.916 30.6533 394.982 30.7867 395.036 31.08C395.116 31.3733 395.156 31.6533 395.156 31.92C395.156 32.2133 395.116 32.36 395.036 32.36L382.796 34.24ZM408.005 45.16C407.232 45.16 406.365 45.12 405.405 45.04C405.032 45.0133 404.565 44.9867 404.005 44.96C403.472 44.9333 402.872 44.92 402.205 44.92L399.565 44.96C399.085 44.9867 398.418 45 397.565 45C397.512 45 397.485 44.92 397.485 44.76C397.485 44.6 397.512 44.52 397.565 44.52C398.605 44.52 399.365 44.4533 399.845 44.32C400.352 44.1867 400.698 43.9333 400.885 43.56C401.072 43.16 401.165 42.56 401.165 41.76V23.24C401.165 22.44 401.072 21.8533 400.885 21.48C400.725 21.1067 400.392 20.8533 399.885 20.72C399.405 20.56 398.645 20.48 397.605 20.48C397.552 20.48 397.525 20.4 397.525 20.24C397.525 20.08 397.552 20 397.605 20L399.565 20.04C400.685 20.0933 401.565 20.12 402.205 20.12C403.138 20.12 404.085 20.08 405.045 20C406.218 19.9467 407.018 19.92 407.445 19.92C410.245 19.92 412.725 20.4533 414.885 21.52C417.045 22.5867 418.712 24.04 419.885 25.88C421.085 27.72 421.685 29.7867 421.685 32.08C421.685 34.6667 421.058 36.96 419.805 38.96C418.578 40.9333 416.925 42.4667 414.845 43.56C412.765 44.6267 410.485 45.16 408.005 45.16ZM407.605 44.64C409.845 44.64 411.832 44.1867 413.565 43.28C415.298 42.3733 416.645 41.04 417.605 39.28C418.592 37.52 419.085 35.4133 419.085 32.96C419.085 30.6133 418.618 28.4933 417.685 26.6C416.778 24.7067 415.458 23.2133 413.725 22.12C412.018 21 410.045 20.44 407.805 20.44C406.632 20.44 405.725 20.5067 405.085 20.64C404.472 20.7733 404.018 21.0533 403.725 21.48C403.432 21.88 403.285 22.4933 403.285 23.32V41.32C403.285 42.12 403.405 42.76 403.645 43.24C403.885 43.72 404.312 44.08 404.925 44.32C405.538 44.5333 406.432 44.64 407.605 44.64ZM438.304 45.48C435.824 45.48 433.611 44.9067 431.664 43.76C429.744 42.5867 428.251 41.0133 427.184 39.04C426.144 37.04 425.624 34.8667 425.624 32.52C425.624 29.7733 426.317 27.4267 427.704 25.48C429.091 23.5067 430.864 22.0267 433.024 21.04C435.211 20.0533 437.437 19.56 439.704 19.56C442.237 19.56 444.464 20.16 446.384 21.36C448.304 22.5333 449.771 24.0933 450.784 26.04C451.824 27.9867 452.344 30.0533 452.344 32.24C452.344 34.6667 451.704 36.8933 450.424 38.92C449.144 40.9467 447.424 42.5467 445.264 43.72C443.131 44.8933 440.811 45.48 438.304 45.48ZM439.744 44.68C441.637 44.68 443.344 44.24 444.864 43.36C446.384 42.48 447.584 41.1867 448.464 39.48C449.344 37.7733 449.784 35.7333 449.784 33.36C449.784 30.8533 449.291 28.6267 448.304 26.68C447.344 24.7067 445.971 23.1733 444.184 22.08C442.424 20.9867 440.371 20.44 438.024 20.44C434.931 20.44 432.517 21.4 430.784 23.32C429.051 25.24 428.184 27.8533 428.184 31.16C428.184 33.64 428.664 35.92 429.624 38C430.611 40.0533 431.984 41.68 433.744 42.88C435.504 44.08 437.504 44.68 439.744 44.68ZM486.569 44.52C486.649 44.52 486.689 44.6 486.689 44.76C486.689 44.92 486.649 45 486.569 45C485.742 45 485.089 44.9867 484.609 44.96L481.929 44.92L479.449 44.96C479.049 44.9867 478.489 45 477.769 45C477.716 45 477.689 44.92 477.689 44.76C477.689 44.6 477.716 44.52 477.769 44.52C478.702 44.52 479.382 44.4533 479.809 44.32C480.262 44.16 480.556 43.8933 480.689 43.52C480.849 43.1467 480.902 42.56 480.849 41.76L480.169 23.16L470.809 44.72C470.756 44.8267 470.649 44.88 470.489 44.88C470.356 44.88 470.236 44.8267 470.129 44.72L460.369 23.32L460.329 23.24L460.009 40.84C459.982 42.2267 460.209 43.1867 460.689 43.72C461.169 44.2533 462.062 44.52 463.369 44.52C463.422 44.52 463.449 44.6 463.449 44.76C463.449 44.92 463.422 45 463.369 45C462.622 45 462.049 44.9867 461.649 44.96L459.489 44.92L457.529 44.96C457.182 44.9867 456.662 45 455.969 45C455.916 45 455.889 44.92 455.889 44.76C455.889 44.6 455.916 44.52 455.969 44.52C457.089 44.52 457.876 44.2533 458.329 43.72C458.809 43.16 459.062 42.2 459.089 40.84L459.489 21.88C458.662 20.9467 457.582 20.48 456.249 20.48C456.196 20.48 456.169 20.4 456.169 20.24C456.169 20.08 456.196 20 456.249 20L457.609 20.04C457.876 20.0667 458.222 20.08 458.649 20.08C459.076 20.08 459.436 20.0667 459.729 20.04C460.022 20.0133 460.249 20 460.409 20C460.782 20 461.076 20.1333 461.289 20.4C461.502 20.64 461.822 21.2 462.249 22.08L471.249 41.52L480.209 21C480.342 20.7067 480.516 20.4667 480.729 20.28C480.969 20.0933 481.196 20 481.409 20C481.516 20 481.689 20.0133 481.929 20.04C482.169 20.0667 482.502 20.08 482.929 20.08L484.729 20.04C484.996 20.0133 485.409 20 485.969 20C486.022 20 486.049 20.08 486.049 20.24C486.049 20.4 486.022 20.48 485.969 20.48C484.582 20.48 483.596 20.6667 483.009 21.04C482.449 21.3867 482.182 22.0933 482.209 23.16L482.969 41.76C482.996 42.5867 483.089 43.1867 483.249 43.56C483.436 43.9333 483.769 44.1867 484.249 44.32C484.756 44.4533 485.529 44.52 486.569 44.52ZM508.747 45.16C507.974 45.16 507.107 45.12 506.147 45.04C505.774 45.0133 505.307 44.9867 504.747 44.96C504.214 44.9333 503.614 44.92 502.947 44.92L500.307 44.96C499.827 44.9867 499.161 45 498.307 45C498.254 45 498.227 44.92 498.227 44.76C498.227 44.6 498.254 44.52 498.307 44.52C499.347 44.52 500.107 44.4533 500.587 44.32C501.094 44.1867 501.441 43.9333 501.627 43.56C501.814 43.16 501.907 42.56 501.907 41.76V23.24C501.907 22.44 501.814 21.8533 501.627 21.48C501.467 21.1067 501.134 20.8533 500.627 20.72C500.147 20.56 499.387 20.48 498.347 20.48C498.294 20.48 498.267 20.4 498.267 20.24C498.267 20.08 498.294 20 498.347 20L500.307 20.04C501.427 20.0933 502.307 20.12 502.947 20.12C503.881 20.12 504.827 20.08 505.787 20C506.961 19.9467 507.761 19.92 508.187 19.92C510.987 19.92 513.467 20.4533 515.627 21.52C517.787 22.5867 519.454 24.04 520.627 25.88C521.827 27.72 522.427 29.7867 522.427 32.08C522.427 34.6667 521.801 36.96 520.547 38.96C519.321 40.9333 517.667 42.4667 515.587 43.56C513.507 44.6267 511.227 45.16 508.747 45.16ZM508.347 44.64C510.587 44.64 512.574 44.1867 514.307 43.28C516.041 42.3733 517.387 41.04 518.347 39.28C519.334 37.52 519.827 35.4133 519.827 32.96C519.827 30.6133 519.361 28.4933 518.427 26.6C517.521 24.7067 516.201 23.2133 514.467 22.12C512.761 21 510.787 20.44 508.547 20.44C507.374 20.44 506.467 20.5067 505.827 20.64C505.214 20.7733 504.761 21.0533 504.467 21.48C504.174 21.88 504.027 22.4933 504.027 23.32V41.32C504.027 42.12 504.147 42.76 504.387 43.24C504.627 43.72 505.054 44.08 505.667 44.32C506.281 44.5333 507.174 44.64 508.347 44.64ZM543.206 39.16C543.206 39.08 543.286 39.0533 543.446 39.08C543.606 39.08 543.686 39.12 543.686 39.2C543.446 40.88 543.326 42.6133 543.326 44.4C543.326 44.6133 543.273 44.7733 543.166 44.88C543.086 44.96 542.926 45 542.686 45H526.166C526.113 45 526.086 44.92 526.086 44.76C526.086 44.6 526.113 44.52 526.166 44.52C527.206 44.52 527.966 44.4533 528.446 44.32C528.953 44.1867 529.286 43.9333 529.446 43.56C529.633 43.16 529.726 42.56 529.726 41.76V23.24C529.726 22.44 529.633 21.8533 529.446 21.48C529.286 21.1067 528.953 20.8533 528.446 20.72C527.966 20.56 527.206 20.48 526.166 20.48C526.113 20.48 526.086 20.4 526.086 20.24C526.086 20.08 526.113 20 526.166 20H542.006C542.246 20 542.366 20.12 542.366 20.36L542.446 25.2C542.446 25.28 542.366 25.32 542.206 25.32C542.073 25.32 542.006 25.28 542.006 25.2C542.006 23.84 541.646 22.76 540.926 21.96C540.206 21.16 539.26 20.76 538.086 20.76H535.326C534.313 20.76 533.566 20.8267 533.086 20.96C532.606 21.0933 532.273 21.3467 532.086 21.72C531.926 22.0933 531.846 22.68 531.846 23.48V31.6H537.126C538.353 31.6 539.206 31.4 539.686 31C540.166 30.5733 540.406 29.8533 540.406 28.84C540.406 28.7867 540.486 28.76 540.646 28.76C540.806 28.76 540.886 28.7867 540.886 28.84L540.846 32C540.846 32.7733 540.86 33.3467 540.886 33.72L540.926 35.6C540.926 35.6533 540.846 35.68 540.686 35.68C540.526 35.68 540.446 35.6533 540.446 35.6C540.446 34.4 540.193 33.56 539.686 33.08C539.18 32.6 538.286 32.36 537.006 32.36H531.846V41.6C531.846 42.3733 531.926 42.9467 532.086 43.32C532.273 43.6667 532.593 43.9067 533.046 44.04C533.526 44.1733 534.286 44.24 535.326 44.24H539.006C540.073 44.24 540.98 43.7733 541.726 42.84C542.5 41.9067 542.993 40.68 543.206 39.16ZM551.254 24.84C551.254 25.9067 551.508 26.8267 552.014 27.6C552.521 28.3733 553.134 29.0267 553.854 29.56C554.601 30.0667 555.628 30.7067 556.934 31.48C558.321 32.3067 559.388 33 560.134 33.56C560.908 34.0933 561.561 34.7867 562.094 35.64C562.654 36.4933 562.934 37.52 562.934 38.72C562.934 39.9733 562.628 41.12 562.014 42.16C561.401 43.1733 560.481 43.9867 559.254 44.6C558.054 45.1867 556.574 45.48 554.814 45.48C553.881 45.48 552.988 45.3733 552.134 45.16C551.308 44.9733 550.388 44.6267 549.374 44.12C549.241 44.04 549.148 43.9467 549.094 43.84C549.068 43.7333 549.041 43.5733 549.014 43.36L548.414 38.16V38.12C548.414 38.0133 548.481 37.96 548.614 37.96C548.748 37.9333 548.828 37.9733 548.854 38.08C549.121 39.92 549.828 41.52 550.974 42.88C552.121 44.24 553.694 44.92 555.694 44.92C557.108 44.92 558.294 44.5333 559.254 43.76C560.241 42.9867 560.734 41.7733 560.734 40.12C560.734 38.92 560.468 37.8933 559.934 37.04C559.401 36.16 558.748 35.44 557.974 34.88C557.228 34.2933 556.201 33.6133 554.894 32.84C553.614 32.0933 552.601 31.44 551.854 30.88C551.134 30.32 550.508 29.6267 549.974 28.8C549.468 27.9467 549.214 26.9333 549.214 25.76C549.214 24.4267 549.548 23.2933 550.214 22.36C550.908 21.4267 551.801 20.7333 552.894 20.28C553.988 19.8 555.161 19.56 556.414 19.56C557.881 19.56 559.401 19.88 560.974 20.52C561.374 20.68 561.574 20.9067 561.574 21.2L561.934 25.44C561.934 25.5467 561.854 25.6 561.694 25.6C561.561 25.6 561.481 25.5467 561.454 25.44C561.348 24.0533 560.828 22.8133 559.894 21.72C558.961 20.6267 557.628 20.08 555.894 20.08C554.294 20.08 553.121 20.5467 552.374 21.48C551.628 22.4133 551.254 23.5333 551.254 24.84ZM572.828 41.76C572.828 42.5867 572.908 43.1867 573.068 43.56C573.255 43.9333 573.588 44.1867 574.068 44.32C574.548 44.4533 575.322 44.52 576.388 44.52C576.442 44.52 576.468 44.6 576.468 44.76C576.468 44.92 576.442 45 576.388 45C575.588 45 574.962 44.9867 574.508 44.96L571.708 44.92L569.028 44.96C568.548 44.9867 567.895 45 567.068 45C566.988 45 566.948 44.92 566.948 44.76C566.948 44.6 566.988 44.52 567.068 44.52C568.108 44.52 568.868 44.4533 569.348 44.32C569.855 44.1867 570.202 43.9333 570.388 43.56C570.575 43.16 570.668 42.56 570.668 41.76V23.24C570.668 22.44 570.575 21.8533 570.388 21.48C570.202 21.1067 569.855 20.8533 569.348 20.72C568.868 20.56 568.108 20.48 567.068 20.48C566.988 20.48 566.948 20.4 566.948 20.24C566.948 20.08 566.988 20 567.068 20L569.028 20.04C570.148 20.0933 571.042 20.12 571.708 20.12C572.455 20.12 573.388 20.0933 574.508 20.04L576.388 20C576.442 20 576.468 20.08 576.468 20.24C576.468 20.4 576.442 20.48 576.388 20.48C575.348 20.48 574.575 20.56 574.068 20.72C573.588 20.88 573.255 21.16 573.068 21.56C572.908 21.9333 572.828 22.52 572.828 23.32V41.76ZM594.512 45.48C591.605 45.48 589.072 44.92 586.912 43.8C584.778 42.68 583.138 41.16 581.992 39.24C580.872 37.32 580.312 35.1733 580.312 32.8C580.312 30.2133 580.965 27.92 582.272 25.92C583.605 23.92 585.418 22.36 587.712 21.24C590.032 20.12 592.645 19.56 595.552 19.56C596.858 19.56 598.085 19.6933 599.232 19.96C600.405 20.2267 601.378 20.6 602.152 21.08C602.338 21.2133 602.445 21.3333 602.472 21.44C602.525 21.52 602.552 21.6267 602.552 21.76C602.578 21.8667 602.592 21.9467 602.592 22L603.072 26.2C603.072 26.28 602.992 26.3333 602.832 26.36C602.698 26.36 602.618 26.32 602.592 26.24C602.085 24.3467 601.085 22.9067 599.592 21.92C598.098 20.9067 596.205 20.4 593.912 20.4C590.392 20.4 587.658 21.3733 585.712 23.32C583.765 25.2667 582.792 27.96 582.792 31.4C582.792 33.96 583.338 36.2667 584.432 38.32C585.525 40.3467 587.032 41.9333 588.952 43.08C590.898 44.2267 593.072 44.8 595.472 44.8C596.912 44.8 598.018 44.68 598.792 44.44C599.592 44.2 600.165 43.7333 600.512 43.04C600.885 42.3467 601.072 41.32 601.072 39.96C601.072 38.5733 600.978 37.6133 600.792 37.08C600.605 36.52 600.205 36.1467 599.592 35.96C598.978 35.7733 597.912 35.68 596.392 35.68C596.232 35.68 596.152 35.5733 596.152 35.36C596.152 35.28 596.165 35.2133 596.192 35.16C596.245 35.08 596.298 35.04 596.352 35.04C598.405 35.1733 600.058 35.24 601.312 35.24C602.512 35.24 603.792 35.2 605.152 35.12C605.205 35.12 605.245 35.16 605.272 35.24C605.325 35.2933 605.352 35.3467 605.352 35.4C605.352 35.5867 605.285 35.68 605.152 35.68C604.458 35.6533 603.965 35.7467 603.672 35.96C603.378 36.1467 603.192 36.5467 603.112 37.16C603.032 37.7733 602.992 38.84 602.992 40.36C602.992 41.56 603.032 42.4133 603.112 42.92C603.218 43.4267 603.272 43.7467 603.272 43.88C603.272 44.04 603.245 44.1467 603.192 44.2C603.138 44.2533 603.018 44.3067 602.832 44.36C599.712 45.1067 596.938 45.48 594.512 45.48ZM634.827 20C634.907 20 634.947 20.08 634.947 20.24C634.947 20.4 634.907 20.48 634.827 20.48C633.681 20.48 632.867 20.76 632.387 21.32C631.934 21.88 631.707 22.84 631.707 24.2V45.44C631.707 45.4933 631.641 45.5333 631.507 45.56C631.374 45.5867 631.281 45.5733 631.227 45.52L613.147 23.28L612.467 22.52V40.84C612.467 42.2 612.694 43.16 613.147 43.72C613.601 44.2533 614.387 44.52 615.507 44.52C615.587 44.52 615.627 44.6 615.627 44.76C615.627 44.92 615.587 45 615.507 45C614.867 45 614.374 44.9867 614.027 44.96L612.107 44.92L610.147 44.96C609.801 44.9867 609.281 45 608.587 45C608.534 45 608.507 44.92 608.507 44.76C608.507 44.6 608.534 44.52 608.587 44.52C609.734 44.52 610.521 44.2533 610.947 43.72C611.374 43.1867 611.587 42.2267 611.587 40.84V21.68C610.654 20.88 609.694 20.48 608.707 20.48C608.627 20.48 608.587 20.4 608.587 20.24C608.587 20.08 608.627 20 608.707 20L610.147 20.04C610.441 20.0667 610.854 20.08 611.387 20.08C611.841 20.08 612.214 20.0667 612.507 20.04C612.801 20.0133 613.027 20 613.187 20C613.374 20 613.521 20.0533 613.627 20.16C613.761 20.24 613.907 20.4267 614.067 20.72C614.361 21.2 614.681 21.6533 615.027 22.08L630.827 41.72V24.2C630.827 22.84 630.614 21.88 630.187 21.32C629.761 20.76 628.987 20.48 627.867 20.48C627.814 20.48 627.787 20.4 627.787 20.24C627.787 20.08 627.814 20 627.867 20L629.387 20.04C630.187 20.0933 630.827 20.12 631.307 20.12C631.761 20.12 632.414 20.0933 633.267 20.04L634.827 20Z" fill="#E2E2E2"/>
<circle cx="656.5" cy="34.3589" r="3.5" fill="#E2E2E2"/>
</svg>
