<svg width="1088" height="47" viewBox="0 0 1088 47" fill="none" xmlns="http://www.w3.org/2000/svg">
<path d="M24.04 18H26.16V46H24.04V32.52H5.88V46H3.76V18H5.88V30.48H24.04V18ZM33.6828 46V18H35.8028V46H33.6828ZM56.0103 32.84V34.88H43.3303V32.84H56.0103ZM72.6466 18C76.7532 18 80.1666 19.32 82.8866 21.96C85.6332 24.5733 87.0066 27.92 87.0066 32C87.0066 36.0533 85.6332 39.4 82.8866 42.04C80.1399 44.68 76.7266 46 72.6466 46H63.4866V18H72.6466ZM72.7266 43.96C76.1666 43.96 79.0466 42.84 81.3666 40.6C83.6866 38.36 84.8599 35.4933 84.8866 32C84.8866 28.5333 83.7132 25.68 81.3666 23.44C79.0466 21.1733 76.1666 20.04 72.7266 20.04H65.6066V43.96H72.7266ZM106.53 17.56C110.61 17.56 114.024 18.9467 116.77 21.72C119.517 24.4667 120.89 27.8933 120.89 32C120.89 36.1067 119.517 39.5467 116.77 42.32C114.024 45.0667 110.61 46.44 106.53 46.44C102.45 46.44 99.0236 45.0667 96.2503 42.32C93.5036 39.5467 92.1303 36.1067 92.1303 32C92.1303 27.8933 93.517 24.4667 96.2903 21.72C99.0636 18.9467 102.477 17.56 106.53 17.56ZM115.21 23.16C112.864 20.7867 109.97 19.6 106.53 19.6C103.09 19.6 100.184 20.7867 97.8103 23.16C95.4636 25.5333 94.2903 28.48 94.2903 32C94.2903 35.52 95.4636 38.4667 97.8103 40.84C100.184 43.2133 103.09 44.4 106.53 44.4C109.97 44.4 112.864 43.2133 115.21 40.84C117.584 38.4667 118.757 35.52 118.73 32C118.757 28.48 117.584 25.5333 115.21 23.16ZM149.318 18H152.158V46H150.038V20.48L139.678 36.04H139.438L129.118 20.48V46H126.998V18H129.798L139.598 32.64L149.318 18ZM180.811 18C184.917 18 188.331 19.32 191.051 21.96C193.797 24.5733 195.171 27.92 195.171 32C195.171 36.0533 193.797 39.4 191.051 42.04C188.304 44.68 184.891 46 180.811 46H171.651V18H180.811ZM180.891 43.96C184.331 43.96 187.211 42.84 189.531 40.6C191.851 38.36 193.024 35.4933 193.051 32C193.051 28.5333 191.877 25.68 189.531 23.44C187.211 21.1733 184.331 20.04 180.891 20.04H173.771V43.96H180.891ZM218.774 20.04H203.614V30.52H217.854V32.56H203.614V43.96H218.774V46H201.494V18H218.774V20.04ZM233.984 30.76C235.477 31.08 236.651 31.36 237.504 31.6C238.384 31.84 239.317 32.1733 240.304 32.6C241.291 33 242.024 33.44 242.504 33.92C243.011 34.4 243.437 35.0267 243.784 35.8C244.131 36.5467 244.304 37.4133 244.304 38.4C244.304 40.9867 243.357 42.9733 241.464 44.36C239.571 45.7467 237.171 46.44 234.264 46.44C230.877 46.44 228.197 45.6667 226.224 44.12C224.277 42.5733 223.051 40.4933 222.544 37.88H224.664C225.784 42.2533 228.957 44.44 234.184 44.44C236.637 44.44 238.584 43.92 240.024 42.88C241.464 41.84 242.184 40.3867 242.184 38.52C242.184 36.8667 241.557 35.6933 240.304 35C239.051 34.28 236.784 33.56 233.504 32.84C231.717 32.44 230.277 32.0667 229.184 31.72C228.091 31.3467 227.051 30.88 226.064 30.32C225.104 29.76 224.411 29.08 223.984 28.28C223.557 27.48 223.344 26.5067 223.344 25.36C223.344 22.96 224.264 21.0667 226.104 19.68C227.971 18.2667 230.304 17.56 233.104 17.56C236.037 17.56 238.411 18.1733 240.224 19.4C242.037 20.6267 243.251 22.2933 243.864 24.4H241.744C240.411 21.1733 237.557 19.56 233.184 19.56C230.864 19.56 228.997 20.08 227.584 21.12C226.171 22.16 225.464 23.6 225.464 25.44C225.464 26.8 226.051 27.84 227.224 28.56C228.397 29.28 230.651 30.0133 233.984 30.76ZM249.972 46V18H252.092V46H249.972ZM271.499 31.76H286.139V46H284.219V38.52C283.473 41 282.059 42.9467 279.979 44.36C277.899 45.7467 275.473 46.44 272.699 46.44C268.619 46.44 265.219 45.0667 262.499 42.32C259.779 39.5733 258.419 36.1333 258.419 32C258.419 27.84 259.793 24.4 262.539 21.68C265.286 18.9333 268.699 17.56 272.779 17.56C275.846 17.56 278.539 18.3733 280.859 20C283.206 21.6 284.899 23.7733 285.939 26.52H283.659C282.699 24.4133 281.246 22.7333 279.299 21.48C277.379 20.2267 275.193 19.6 272.739 19.6C269.299 19.6 266.406 20.8 264.059 23.2C261.713 25.5733 260.539 28.5333 260.539 32.08C260.539 35.5733 261.699 38.5067 264.019 40.88C266.339 43.2533 269.259 44.44 272.779 44.44C275.979 44.44 278.633 43.44 280.739 41.44C282.846 39.44 283.939 36.84 284.019 33.64H271.499V31.76ZM313.488 18H315.608V46H312.768L295.208 20.56L295.368 34.28V46H293.248V18H296.048L313.648 43.44L313.488 29.72V18Z" fill="black"/>
<circle cx="341.5" cy="32.5" r="5.5" fill="black"/>
<circle cx="706.5" cy="32.5" r="5.5" fill="black"/>
<path d="M386.04 18H388.16V46H386.04V32.52H367.88V46H365.76V18H367.88V30.48H386.04V18ZM395.683 46V18H397.803V46H395.683ZM418.01 32.84V34.88H405.33V32.84H418.01ZM434.647 18C438.753 18 442.167 19.32 444.887 21.96C447.633 24.5733 449.007 27.92 449.007 32C449.007 36.0533 447.633 39.4 444.887 42.04C442.14 44.68 438.727 46 434.647 46H425.487V18H434.647ZM434.727 43.96C438.167 43.96 441.047 42.84 443.367 40.6C445.687 38.36 446.86 35.4933 446.887 32C446.887 28.5333 445.713 25.68 443.367 23.44C441.047 21.1733 438.167 20.04 434.727 20.04H427.607V43.96H434.727ZM468.53 17.56C472.61 17.56 476.024 18.9467 478.77 21.72C481.517 24.4667 482.89 27.8933 482.89 32C482.89 36.1067 481.517 39.5467 478.77 42.32C476.024 45.0667 472.61 46.44 468.53 46.44C464.45 46.44 461.024 45.0667 458.25 42.32C455.504 39.5467 454.13 36.1067 454.13 32C454.13 27.8933 455.517 24.4667 458.29 21.72C461.064 18.9467 464.477 17.56 468.53 17.56ZM477.21 23.16C474.864 20.7867 471.97 19.6 468.53 19.6C465.09 19.6 462.184 20.7867 459.81 23.16C457.464 25.5333 456.29 28.48 456.29 32C456.29 35.52 457.464 38.4667 459.81 40.84C462.184 43.2133 465.09 44.4 468.53 44.4C471.97 44.4 474.864 43.2133 477.21 40.84C479.584 38.4667 480.757 35.52 480.73 32C480.757 28.48 479.584 25.5333 477.21 23.16ZM511.318 18H514.158V46H512.038V20.48L501.678 36.04H501.438L491.118 20.48V46H488.998V18H491.798L501.598 32.64L511.318 18ZM542.811 18C546.917 18 550.331 19.32 553.051 21.96C555.797 24.5733 557.171 27.92 557.171 32C557.171 36.0533 555.797 39.4 553.051 42.04C550.304 44.68 546.891 46 542.811 46H533.651V18H542.811ZM542.891 43.96C546.331 43.96 549.211 42.84 551.531 40.6C553.851 38.36 555.024 35.4933 555.051 32C555.051 28.5333 553.877 25.68 551.531 23.44C549.211 21.1733 546.331 20.04 542.891 20.04H535.771V43.96H542.891ZM580.774 20.04H565.614V30.52H579.854V32.56H565.614V43.96H580.774V46H563.494V18H580.774V20.04ZM595.984 30.76C597.477 31.08 598.651 31.36 599.504 31.6C600.384 31.84 601.317 32.1733 602.304 32.6C603.291 33 604.024 33.44 604.504 33.92C605.011 34.4 605.437 35.0267 605.784 35.8C606.131 36.5467 606.304 37.4133 606.304 38.4C606.304 40.9867 605.357 42.9733 603.464 44.36C601.571 45.7467 599.171 46.44 596.264 46.44C592.877 46.44 590.197 45.6667 588.224 44.12C586.277 42.5733 585.051 40.4933 584.544 37.88H586.664C587.784 42.2533 590.957 44.44 596.184 44.44C598.637 44.44 600.584 43.92 602.024 42.88C603.464 41.84 604.184 40.3867 604.184 38.52C604.184 36.8667 603.557 35.6933 602.304 35C601.051 34.28 598.784 33.56 595.504 32.84C593.717 32.44 592.277 32.0667 591.184 31.72C590.091 31.3467 589.051 30.88 588.064 30.32C587.104 29.76 586.411 29.08 585.984 28.28C585.557 27.48 585.344 26.5067 585.344 25.36C585.344 22.96 586.264 21.0667 588.104 19.68C589.971 18.2667 592.304 17.56 595.104 17.56C598.037 17.56 600.411 18.1733 602.224 19.4C604.037 20.6267 605.251 22.2933 605.864 24.4H603.744C602.411 21.1733 599.557 19.56 595.184 19.56C592.864 19.56 590.997 20.08 589.584 21.12C588.171 22.16 587.464 23.6 587.464 25.44C587.464 26.8 588.051 27.84 589.224 28.56C590.397 29.28 592.651 30.0133 595.984 30.76ZM611.972 46V18H614.092V46H611.972ZM633.499 31.76H648.139V46H646.219V38.52C645.473 41 644.059 42.9467 641.979 44.36C639.899 45.7467 637.473 46.44 634.699 46.44C630.619 46.44 627.219 45.0667 624.499 42.32C621.779 39.5733 620.419 36.1333 620.419 32C620.419 27.84 621.793 24.4 624.539 21.68C627.286 18.9333 630.699 17.56 634.779 17.56C637.846 17.56 640.539 18.3733 642.859 20C645.206 21.6 646.899 23.7733 647.939 26.52H645.659C644.699 24.4133 643.246 22.7333 641.299 21.48C639.379 20.2267 637.193 19.6 634.739 19.6C631.299 19.6 628.406 20.8 626.059 23.2C623.713 25.5733 622.539 28.5333 622.539 32.08C622.539 35.5733 623.699 38.5067 626.019 40.88C628.339 43.2533 631.259 44.44 634.779 44.44C637.979 44.44 640.633 43.44 642.739 41.44C644.846 39.44 645.939 36.84 646.019 33.64H633.499V31.76ZM675.488 18H677.608V46H674.768L657.208 20.56L657.368 34.28V46H655.248V18H658.048L675.648 43.44L675.488 29.72V18Z" fill="black"/>
<path d="M751.04 18H753.16V46H751.04V32.52H732.88V46H730.76V18H732.88V30.48H751.04V18ZM760.683 46V18H762.803V46H760.683ZM783.01 32.84V34.88H770.33V32.84H783.01ZM799.647 18C803.753 18 807.167 19.32 809.887 21.96C812.633 24.5733 814.007 27.92 814.007 32C814.007 36.0533 812.633 39.4 809.887 42.04C807.14 44.68 803.727 46 799.647 46H790.487V18H799.647ZM799.727 43.96C803.167 43.96 806.047 42.84 808.367 40.6C810.687 38.36 811.86 35.4933 811.887 32C811.887 28.5333 810.713 25.68 808.367 23.44C806.047 21.1733 803.167 20.04 799.727 20.04H792.607V43.96H799.727ZM833.53 17.56C837.61 17.56 841.024 18.9467 843.77 21.72C846.517 24.4667 847.89 27.8933 847.89 32C847.89 36.1067 846.517 39.5467 843.77 42.32C841.024 45.0667 837.61 46.44 833.53 46.44C829.45 46.44 826.024 45.0667 823.25 42.32C820.504 39.5467 819.13 36.1067 819.13 32C819.13 27.8933 820.517 24.4667 823.29 21.72C826.064 18.9467 829.477 17.56 833.53 17.56ZM842.21 23.16C839.864 20.7867 836.97 19.6 833.53 19.6C830.09 19.6 827.184 20.7867 824.81 23.16C822.464 25.5333 821.29 28.48 821.29 32C821.29 35.52 822.464 38.4667 824.81 40.84C827.184 43.2133 830.09 44.4 833.53 44.4C836.97 44.4 839.864 43.2133 842.21 40.84C844.584 38.4667 845.757 35.52 845.73 32C845.757 28.48 844.584 25.5333 842.21 23.16ZM876.318 18H879.158V46H877.038V20.48L866.678 36.04H866.438L856.118 20.48V46H853.998V18H856.798L866.598 32.64L876.318 18ZM907.811 18C911.917 18 915.331 19.32 918.051 21.96C920.797 24.5733 922.171 27.92 922.171 32C922.171 36.0533 920.797 39.4 918.051 42.04C915.304 44.68 911.891 46 907.811 46H898.651V18H907.811ZM907.891 43.96C911.331 43.96 914.211 42.84 916.531 40.6C918.851 38.36 920.024 35.4933 920.051 32C920.051 28.5333 918.877 25.68 916.531 23.44C914.211 21.1733 911.331 20.04 907.891 20.04H900.771V43.96H907.891ZM945.774 20.04H930.614V30.52H944.854V32.56H930.614V43.96H945.774V46H928.494V18H945.774V20.04ZM960.984 30.76C962.477 31.08 963.651 31.36 964.504 31.6C965.384 31.84 966.317 32.1733 967.304 32.6C968.291 33 969.024 33.44 969.504 33.92C970.011 34.4 970.437 35.0267 970.784 35.8C971.131 36.5467 971.304 37.4133 971.304 38.4C971.304 40.9867 970.357 42.9733 968.464 44.36C966.571 45.7467 964.171 46.44 961.264 46.44C957.877 46.44 955.197 45.6667 953.224 44.12C951.277 42.5733 950.051 40.4933 949.544 37.88H951.664C952.784 42.2533 955.957 44.44 961.184 44.44C963.637 44.44 965.584 43.92 967.024 42.88C968.464 41.84 969.184 40.3867 969.184 38.52C969.184 36.8667 968.557 35.6933 967.304 35C966.051 34.28 963.784 33.56 960.504 32.84C958.717 32.44 957.277 32.0667 956.184 31.72C955.091 31.3467 954.051 30.88 953.064 30.32C952.104 29.76 951.411 29.08 950.984 28.28C950.557 27.48 950.344 26.5067 950.344 25.36C950.344 22.96 951.264 21.0667 953.104 19.68C954.971 18.2667 957.304 17.56 960.104 17.56C963.037 17.56 965.411 18.1733 967.224 19.4C969.037 20.6267 970.251 22.2933 970.864 24.4H968.744C967.411 21.1733 964.557 19.56 960.184 19.56C957.864 19.56 955.997 20.08 954.584 21.12C953.171 22.16 952.464 23.6 952.464 25.44C952.464 26.8 953.051 27.84 954.224 28.56C955.397 29.28 957.651 30.0133 960.984 30.76ZM976.972 46V18H979.092V46H976.972ZM998.499 31.76H1013.14V46H1011.22V38.52C1010.47 41 1009.06 42.9467 1006.98 44.36C1004.9 45.7467 1002.47 46.44 999.699 46.44C995.619 46.44 992.219 45.0667 989.499 42.32C986.779 39.5733 985.419 36.1333 985.419 32C985.419 27.84 986.793 24.4 989.539 21.68C992.286 18.9333 995.699 17.56 999.779 17.56C1002.85 17.56 1005.54 18.3733 1007.86 20C1010.21 21.6 1011.9 23.7733 1012.94 26.52H1010.66C1009.7 24.4133 1008.25 22.7333 1006.3 21.48C1004.38 20.2267 1002.19 19.6 999.739 19.6C996.299 19.6 993.406 20.8 991.059 23.2C988.713 25.5733 987.539 28.5333 987.539 32.08C987.539 35.5733 988.699 38.5067 991.019 40.88C993.339 43.2533 996.259 44.44 999.779 44.44C1002.98 44.44 1005.63 43.44 1007.74 41.44C1009.85 39.44 1010.94 36.84 1011.02 33.64H998.499V31.76ZM1040.49 18H1042.61V46H1039.77L1022.21 20.56L1022.37 34.28V46H1020.25V18H1023.05L1040.65 43.44L1040.49 29.72V18Z" fill="black"/>
<circle cx="1067.5" cy="32.5" r="5.5" fill="black"/>
</svg>
