<svg width="1822" height="251" viewBox="0 0 1822 251" fill="none" xmlns="http://www.w3.org/2000/svg">
<path d="M96.16 72.4532H104.64V184.453H96.16V130.533H23.52V184.453H15.04V72.4532H23.52V122.373H96.16V72.4532ZM134.731 184.453V72.4532H143.211V184.453H134.731ZM224.041 131.813V139.973H173.321V131.813H224.041ZM290.586 72.4532C307.013 72.4532 320.666 77.7332 331.546 88.2932C342.533 98.7466 348.026 112.133 348.026 128.453C348.026 144.667 342.533 158.053 331.546 168.613C320.56 179.173 306.906 184.453 290.586 184.453H253.946V72.4532H290.586ZM290.906 176.293C304.666 176.293 316.186 171.813 325.466 162.853C334.746 153.893 339.44 142.427 339.546 128.453C339.546 114.587 334.853 103.173 325.466 94.2132C316.186 85.1466 304.666 80.6132 290.906 80.6132H262.426V176.293H290.906ZM426.121 70.6932C442.441 70.6932 456.095 76.2399 467.081 87.3332C478.068 98.3199 483.561 112.027 483.561 128.453C483.561 144.88 478.068 158.64 467.081 169.733C456.095 180.72 442.441 186.213 426.121 186.213C409.801 186.213 396.095 180.72 385.001 169.733C374.015 158.64 368.521 144.88 368.521 128.453C368.521 112.027 374.068 98.3199 385.161 87.3332C396.255 76.2399 409.908 70.6932 426.121 70.6932ZM460.841 93.0932C451.455 83.5999 439.881 78.8532 426.121 78.8532C412.361 78.8532 400.735 83.5999 391.241 93.0932C381.855 102.587 377.161 114.373 377.161 128.453C377.161 142.533 381.855 154.32 391.241 163.813C400.735 173.307 412.361 178.053 426.121 178.053C439.881 178.053 451.455 173.307 460.841 163.813C470.335 154.32 475.028 142.533 474.921 128.453C475.028 114.373 470.335 102.587 460.841 93.0932ZM597.27 72.4532H608.63V184.453H600.15V82.3732L558.71 144.613H557.75L516.47 82.3732V184.453H507.99V72.4532H519.19L558.39 131.013L597.27 72.4532ZM723.243 72.4532C739.669 72.4532 753.323 77.7332 764.203 88.2932C775.189 98.7466 780.683 112.133 780.683 128.453C780.683 144.667 775.189 158.053 764.203 168.613C753.216 179.173 739.563 184.453 723.243 184.453H686.603V72.4532H723.243ZM723.563 176.293C737.323 176.293 748.843 171.813 758.123 162.853C767.403 153.893 772.096 142.427 772.203 128.453C772.203 114.587 767.509 103.173 758.123 94.2132C748.843 85.1466 737.323 80.6132 723.563 80.6132H695.082V176.293H723.563ZM875.098 80.6132H814.457V122.533H871.418V130.693H814.457V176.293H875.098V184.453H805.978V72.4532H875.098V80.6132ZM935.936 123.493C941.91 124.773 946.603 125.893 950.016 126.853C953.536 127.813 957.27 129.147 961.216 130.853C965.163 132.453 968.096 134.213 970.016 136.133C972.043 138.053 973.75 140.56 975.136 143.653C976.523 146.64 977.216 150.107 977.216 154.053C977.216 164.4 973.43 172.347 965.856 177.893C958.283 183.44 948.683 186.213 937.056 186.213C923.51 186.213 912.79 183.12 904.896 176.933C897.11 170.747 892.203 162.427 890.176 151.973H898.656C903.136 169.467 915.83 178.213 936.736 178.213C946.55 178.213 954.336 176.133 960.096 171.973C965.856 167.813 968.736 162 968.736 154.533C968.736 147.92 966.23 143.227 961.216 140.453C956.203 137.573 947.136 134.693 934.016 131.813C926.87 130.213 921.11 128.72 916.736 127.333C912.363 125.84 908.203 123.973 904.256 121.733C900.416 119.493 897.643 116.773 895.936 113.573C894.23 110.373 893.376 106.48 893.376 101.893C893.376 92.2932 897.056 84.7199 904.416 79.1732C911.883 73.5199 921.216 70.6932 932.416 70.6932C944.15 70.6932 953.643 73.1466 960.896 78.0532C968.15 82.9599 973.003 89.6266 975.456 98.0532H966.976C961.643 85.1466 950.23 78.6932 932.736 78.6932C923.456 78.6932 915.99 80.7732 910.336 84.9332C904.683 89.0932 901.856 94.8532 901.856 102.213C901.856 107.653 904.203 111.813 908.896 114.693C913.59 117.573 922.603 120.507 935.936 123.493ZM999.888 184.453V72.4532H1008.37V184.453H999.888ZM1086 127.493H1144.56V184.453H1136.88V154.533C1133.89 164.453 1128.24 172.24 1119.92 177.893C1111.6 183.44 1101.89 186.213 1090.8 186.213C1074.48 186.213 1060.88 180.72 1050 169.733C1039.12 158.747 1033.68 144.987 1033.68 128.453C1033.68 111.813 1039.17 98.0532 1050.16 87.1732C1061.14 76.1866 1074.8 70.6932 1091.12 70.6932C1103.38 70.6932 1114.16 73.9466 1123.44 80.4532C1132.82 86.8532 1139.6 95.5466 1143.76 106.533H1134.64C1130.8 98.1066 1124.98 91.3866 1117.2 86.3732C1109.52 81.3599 1100.77 78.8532 1090.96 78.8532C1077.2 78.8532 1065.62 83.6532 1056.24 93.2532C1046.85 102.747 1042.16 114.587 1042.16 128.773C1042.16 142.747 1046.8 154.48 1056.08 163.973C1065.36 173.467 1077.04 178.213 1091.12 178.213C1103.92 178.213 1114.53 174.213 1122.96 166.213C1131.38 158.213 1135.76 147.813 1136.08 135.013H1086V127.493ZM1253.95 72.4532H1262.43V184.453H1251.07L1180.83 82.6932L1181.47 137.573V184.453H1172.99V72.4532H1184.19L1254.59 174.213L1253.95 119.333V72.4532Z" fill="black"/>
<ellipse cx="1309" cy="126.304" rx="10" ry="9.7559" fill="black"/>
<path d="M1433.16 72.4532H1441.64V184.453H1433.16V130.533H1360.52V184.453H1352.04V72.4532H1360.52V122.373H1433.16V72.4532ZM1471.73 184.453V72.4532H1480.21V184.453H1471.73ZM1561.04 131.813V139.973H1510.32V131.813H1561.04ZM1627.59 72.4532C1644.01 72.4532 1657.67 77.7332 1668.55 88.2932C1679.53 98.7466 1685.03 112.133 1685.03 128.453C1685.03 144.667 1679.53 158.053 1668.55 168.613C1657.56 179.173 1643.91 184.453 1627.59 184.453H1590.95V72.4532H1627.59ZM1627.91 176.293C1641.67 176.293 1653.19 171.813 1662.47 162.853C1671.75 153.893 1676.44 142.427 1676.55 128.453C1676.55 114.587 1671.85 103.173 1662.47 94.2132C1653.19 85.1466 1641.67 80.6132 1627.91 80.6132H1599.43V176.293H1627.91ZM1763.12 70.6932C1779.44 70.6932 1793.09 76.2399 1804.08 87.3332C1815.07 98.3199 1820.56 112.027 1820.56 128.453C1820.56 144.88 1815.07 158.64 1804.08 169.733C1793.09 180.72 1779.44 186.213 1763.12 186.213C1746.8 186.213 1733.09 180.72 1722 169.733C1711.01 158.64 1705.52 144.88 1705.52 128.453C1705.52 112.027 1711.07 98.3199 1722.16 87.3332C1733.25 76.2399 1746.91 70.6932 1763.12 70.6932ZM1797.84 93.0932C1788.45 83.5999 1776.88 78.8532 1763.12 78.8532C1749.36 78.8532 1737.73 83.5999 1728.24 93.0932C1718.85 102.587 1714.16 114.373 1714.16 128.453C1714.16 142.533 1718.85 154.32 1728.24 163.813C1737.73 173.307 1749.36 178.053 1763.12 178.053C1776.88 178.053 1788.45 173.307 1797.84 163.813C1807.33 154.32 1812.03 142.533 1811.92 128.453C1812.03 114.373 1807.33 102.587 1797.84 93.0932ZM1934.27 72.4532H1945.63V184.453H1937.15V82.3732L1895.71 144.613H1894.75L1853.47 82.3732V184.453H1844.99V72.4532H1856.19L1895.39 131.013L1934.27 72.4532ZM2060.24 72.4532C2076.67 72.4532 2090.32 77.7332 2101.2 88.2932C2112.19 98.7466 2117.68 112.133 2117.68 128.453C2117.68 144.667 2112.19 158.053 2101.2 168.613C2090.22 179.173 2076.56 184.453 2060.24 184.453H2023.6V72.4532H2060.24ZM2060.56 176.293C2074.32 176.293 2085.84 171.813 2095.12 162.853C2104.4 153.893 2109.1 142.427 2109.2 128.453C2109.2 114.587 2104.51 103.173 2095.12 94.2132C2085.84 85.1466 2074.32 80.6132 2060.56 80.6132H2032.08V176.293H2060.56ZM2212.1 80.6132H2151.46V122.533H2208.42V130.693H2151.46V176.293H2212.1V184.453H2142.98V72.4532H2212.1V80.6132ZM2272.94 123.493C2278.91 124.773 2283.6 125.893 2287.02 126.853C2290.54 127.813 2294.27 129.147 2298.22 130.853C2302.16 132.453 2305.1 134.213 2307.02 136.133C2309.04 138.053 2310.75 140.56 2312.14 143.653C2313.52 146.64 2314.22 150.107 2314.22 154.053C2314.22 164.4 2310.43 172.347 2302.86 177.893C2295.28 183.44 2285.68 186.213 2274.06 186.213C2260.51 186.213 2249.79 183.12 2241.9 176.933C2234.11 170.747 2229.2 162.427 2227.18 151.973H2235.66C2240.14 169.467 2252.83 178.213 2273.74 178.213C2283.55 178.213 2291.34 176.133 2297.1 171.973C2302.86 167.813 2305.74 162 2305.74 154.533C2305.74 147.92 2303.23 143.227 2298.22 140.453C2293.2 137.573 2284.14 134.693 2271.02 131.813C2263.87 130.213 2258.11 128.72 2253.74 127.333C2249.36 125.84 2245.2 123.973 2241.26 121.733C2237.42 119.493 2234.64 116.773 2232.94 113.573C2231.23 110.373 2230.38 106.48 2230.38 101.893C2230.38 92.2932 2234.06 84.7199 2241.42 79.1732C2248.88 73.5199 2258.22 70.6932 2269.42 70.6932C2281.15 70.6932 2290.64 73.1466 2297.9 78.0532C2305.15 82.9599 2310 89.6266 2312.46 98.0532H2303.98C2298.64 85.1466 2287.23 78.6932 2269.74 78.6932C2260.46 78.6932 2252.99 80.7732 2247.34 84.9332C2241.68 89.0932 2238.86 94.8532 2238.86 102.213C2238.86 107.653 2241.2 111.813 2245.9 114.693C2250.59 117.573 2259.6 120.507 2272.94 123.493ZM2336.89 184.453V72.4532H2345.37V184.453H2336.89ZM2423 127.493H2481.56V184.453H2473.88V154.533C2470.89 164.453 2465.24 172.24 2456.92 177.893C2448.6 183.44 2438.89 186.213 2427.8 186.213C2411.48 186.213 2397.88 180.72 2387 169.733C2376.12 158.747 2370.68 144.987 2370.68 128.453C2370.68 111.813 2376.17 98.0532 2387.16 87.1732C2398.14 76.1866 2411.8 70.6932 2428.12 70.6932C2440.38 70.6932 2451.16 73.9466 2460.44 80.4532C2469.82 86.8532 2476.6 95.5466 2480.76 106.533H2471.64C2467.8 98.1066 2461.98 91.3866 2454.2 86.3732C2446.52 81.3599 2437.77 78.8532 2427.96 78.8532C2414.2 78.8532 2402.62 83.6532 2393.24 93.2532C2383.85 102.747 2379.16 114.587 2379.16 128.773C2379.16 142.747 2383.8 154.48 2393.08 163.973C2402.36 173.467 2414.04 178.213 2428.12 178.213C2440.92 178.213 2451.53 174.213 2459.96 166.213C2468.38 158.213 2472.76 147.813 2473.08 135.013H2423V127.493ZM2590.95 72.4532H2599.43V184.453H2588.07L2517.83 82.6932L2518.47 137.573V184.453H2509.99V72.4532H2521.19L2591.59 174.213L2590.95 119.333V72.4532Z" fill="black"/>
</svg>
