<svg width="269" height="269" viewBox="0 0 269 269" fill="none" xmlns="http://www.w3.org/2000/svg">
<path d="M0.500019 134.5C0.500012 60.4938 60.4938 0.499988 134.5 0.499981C208.506 0.499975 268.5 60.4938 268.5 134.5C268.5 208.506 208.506 268.5 134.5 268.5C60.4939 268.5 0.500025 208.506 0.500019 134.5Z" stroke="url(#paint0_radial_135_140)" stroke-opacity="0.6"/>
<path d="M0.500019 134.5C0.500012 60.4938 60.4938 0.499988 134.5 0.499981C208.506 0.499975 268.5 60.4938 268.5 134.5C268.5 208.506 208.506 268.5 134.5 268.5C60.4939 268.5 0.500025 208.506 0.500019 134.5Z" stroke="url(#paint1_radial_135_140)" stroke-opacity="0.59"/>
<path d="M0.500019 134.5C0.500012 60.4938 60.4938 0.499988 134.5 0.499981C208.506 0.499975 268.5 60.4938 268.5 134.5C268.5 208.506 208.506 268.5 134.5 268.5C60.4939 268.5 0.500025 208.506 0.500019 134.5Z" stroke="url(#paint2_radial_135_140)"/>
<defs>
<radialGradient id="paint0_radial_135_140" cx="0" cy="0" r="1" gradientUnits="userSpaceOnUse" gradientTransform="translate(-59.9578 -350.515) rotate(61.4122) scale(765.049 383.099)">
<stop stop-color="white"/>
<stop offset="1" stop-color="white" stop-opacity="0"/>
</radialGradient>
<radialGradient id="paint1_radial_135_140" cx="0" cy="0" r="1" gradientUnits="userSpaceOnUse" gradientTransform="translate(321.666 452.409) rotate(-127.356) scale(574.469 300.702)">
<stop stop-color="white"/>
<stop offset="1" stop-color="white" stop-opacity="0"/>
</radialGradient>
<radialGradient id="paint2_radial_135_140" cx="0" cy="0" r="1" gradientUnits="userSpaceOnUse" gradientTransform="translate(134.5 134.5) rotate(-44.0434) scale(205.077 153.177)">
<stop stop-color="white"/>
<stop offset="1" stop-color="#151515" stop-opacity="0"/>
</radialGradient>
</defs>
</svg>
